<svg xmlns="http://www.w3.org/2000/svg" width="137" height="262" fill="none" viewBox="0 0 137 262"><path fill="#FF700A" fill-opacity=".1" fill-rule="evenodd" d="M308.12 130.56c0-11.73-1.55-23.09-4.44-33.9 20 9.8 30.55 21.09 30.55 31.29 0 10.85-10.78 21.65-29.15 30.76 1.99-9.07 3.04-18.49 3.04-28.15zm-11.16-59.48l-4.02-1.68A130.54 130.54 0 00177.56 0a130.54 130.54 0 00-115.6 69.83c-.55.1-1.1.25-1.64.45C22.78 83.9 0 103.87 0 127.95c0 23.77 22.8 43.75 58.93 57.21 20.67 44.84 66.02 75.96 118.63 75.96S275.52 230 296.2 185.16c36.13-13.46 58.93-33.44 58.93-57.21 0-23.61-21.91-43.28-58.16-56.87zM47 130.56c0-11.73 1.55-23.1 4.45-33.92-19.91 9.73-30.56 21.06-30.56 31.3 0 10.86 10.78 21.66 29.15 30.77-1.99-9.07-3.04-18.49-3.04-28.15zm20.9 0c0 13.3 2.36 26.06 6.7 37.87 27.48 8.73 63.44 14.35 102.96 14.35 39.52 0 75.48-5.62 102.96-14.35a109.44 109.44 0 006.71-37.87c0-60.57-49.1-109.67-109.67-109.67S67.9 69.99 67.9 130.56zm109.66 109.67c-36.97 0-69.67-18.3-89.54-46.33 26.33 6.3 56.95 9.77 89.54 9.77s63.2-3.48 89.54-9.77a109.53 109.53 0 01-89.54 46.33zm67.9-151.45a10.44 10.44 0 11-20.9 0 10.44 10.44 0 0120.9 0zm-41.79 78.34a15.67 15.67 0 100-31.34 15.67 15.67 0 000 31.34zM141 57.45a36.56 36.56 0 110 73.11 36.56 36.56 0 010-73.11zm0 20.89a15.67 15.67 0 100 31.33 15.67 15.67 0 000-31.33z" clip-rule="evenodd"/></svg>