<svg xmlns="http://www.w3.org/2000/svg" width="199" height="313" fill="none" viewBox="0 0 199 313"><path fill="#4DD6F1" fill-opacity=".14" d="M149 280.26l-22.07-20.21-20.85 12.03a7.14 7.14 0 01-7.13-12.36l16.94-9.78-12.14-11.11c-.54-.5-1-1.06-1.36-1.7l-8.92-15.44a7.14 7.14 0 012.61-9.75l9.27-5.35-7.14-12.37-9.27 5.36a7.14 7.14 0 01-7.13-12.36l9.27-5.35-7.14-12.37-9.27 5.36a7.14 7.14 0 01-9.75-2.62L56 156.8a7.13 7.13 0 01-.78-2.02l-3.56-16.07-16.94 9.78a7.14 7.14 0 11-7.13-12.36l20.84-12.03-6.47-29.23-10.1 5.84a7.14 7.14 0 01-7.14-12.36l86.52-49.96a7.14 7.14 0 017.14 12.36l-30.9 17.84 5.35 9.27 12.36-7.13a7.14 7.14 0 019.75 2.61l17.84 30.9a7.14 7.14 0 01-2.62 9.75l-12.36 7.13 7.18 12.43c3.52-1.96 7.4-4.08 11.56-6.3 13.4-7.18 27.01-14.01 40.02-19.92 41.62-18.92 67.08-25.15 75.68-10.26 8.6 14.89-9.53 33.83-46.73 60.41a702.06 702.06 0 01-37.25 24.7c-4.01 2.5-7.78 4.79-11.24 6.86l7.17 12.43 12.36-7.14a7.14 7.14 0 019.75 2.61l17.84 30.9a7.14 7.14 0 01-2.61 9.75l-12.37 7.13 5.36 9.28 30.9-17.84a7.14 7.14 0 117.13 12.35l-86.52 49.96a7.14 7.14 0 11-7.13-12.36l10.1-5.84zm16.15-62.88a7.14 7.14 0 01-9.75-2.6l-14.28-24.73a7.14 7.14 0 012.62-9.75 240.74 240.74 0 004.67-2.75c3.73-2.23 7.88-4.74 12.31-7.5a687.22 687.22 0 0036.5-24.19c28.42-20.32 44.99-37.63 42.66-41.66-2.33-4.04-25.61 1.65-57.42 16.11a688.12 688.12 0 00-39.19 19.5 791.02 791.02 0 00-17.37 9.6 7.14 7.14 0 01-9.75-2.62l-14.27-24.72a7.14 7.14 0 012.6-9.75l12.37-7.13-10.7-18.54-12.37 7.13a7.14 7.14 0 01-9.74-2.6l-8.92-15.46-20.2 11.66 14 63.23 4.8 8.32 9.27-5.35a7.14 7.14 0 019.74 2.6l28.55 49.45a7.14 7.14 0 01-2.61 9.75l-9.27 5.35 4.8 8.32 47.77 43.73 20.19-11.66-8.92-15.45a7.14 7.14 0 012.6-9.75l12.37-7.13-10.7-18.54-12.36 7.13zm-15.36-69.41a7.13 7.13 0 117.13 12.36l-18.54 10.7a7.14 7.14 0 01-7.13-12.36l18.54-10.7z"/></svg>