<svg xmlns="http://www.w3.org/2000/svg" width="155" height="245" fill="none" viewBox="0 0 155 245"><path fill="#B943C4" fill-opacity=".33" fill-rule="evenodd" d="M19.45 82.86C19.45 37.1 56.62 0 102.41 0h3.63C151.87 0 189 37.08 189 82.87c0 18.13-4.19 31.69-13.39 50.06-.6 1.21-3.78 7.45-4.62 9.15a119.72 119.72 0 00-3.82 8.34c-2.3 5.7-3.42 10.52-3.42 15.31 0 9.97 2.48 20.2 6.65 30.08a95.87 95.87 0 004.6 9.48c.93 1.64 1.62 2.76 1.97 3.28a7.2 7.2 0 01-3.62 10.8L101.2 244.6a7.22 7.22 0 01-9.23-4.52l-12.78-38.3H55.53a36.04 36.04 0 01-36.08-36.05v-18h-7.22c-9.08 0-14.6-8.13-11.23-16.56l18.45-46.08v-2.22zM157.1 201.4c-4.85-11.52-7.78-23.57-7.78-35.68 0-6.84 1.52-13.41 4.47-20.7 1.15-2.86 2.5-5.77 4.27-9.35.88-1.78 4.07-8.05 4.65-9.2 8.28-16.55 11.86-28.12 11.86-43.61a68.47 68.47 0 00-68.53-68.46h-3.63c-37.82 0-68.53 30.66-68.53 68.45v3.61a7.2 7.2 0 01-.51 2.68L15.68 133.3h10.99a7.21 7.21 0 017.21 7.2v25.2a21.62 21.62 0 0021.65 21.64h28.86c3.1 0 5.86 1.99 6.84 4.93l12.11 36.3 57.08-19.96a118.3 118.3 0 01-3.32-7.21zm6.65-118.54a7.21 7.21 0 01-14.43 0 43.26 43.26 0 00-43.29-43.24 43.26 43.26 0 00-43.29 43.24 7.21 7.21 0 01-14.43 0 57.68 57.68 0 0157.72-57.65 57.68 57.68 0 0157.72 57.65zm-25.25 0a7.21 7.21 0 01-14.43 0c0-9.95-8.08-18.02-18.04-18.02a18.03 18.03 0 00-18.04 18.02 7.21 7.21 0 01-14.43 0 32.45 32.45 0 0132.47-32.43 32.45 32.45 0 0132.47 32.43zm-32.47 7.2a7.21 7.21 0 110-14.42 7.21 7.21 0 010 14.42z" clip-rule="evenodd" opacity=".18"/></svg>