<svg width="64" height="64" viewBox="0 0 64 64" fill="none" xmlns="http://www.w3.org/2000/svg">
<path d="M61.2389 17.1411L34.5425 5.50938C32.8976 4.83021 31.0516 4.83021 29.4067 5.50938L2.71034 17.1411C1.91556 17.4333 1.22941 17.963 0.744676 18.6588C0.259941 19.3546 0 20.1828 0 21.0315C0 21.8802 0.259941 22.7084 0.744676 23.4042C1.22941 24.0999 1.91556 24.6297 2.71034 24.9218L3.96229 25.4709V50.5958L0.739951 56.1371C0.561955 56.4419 0.467437 56.7883 0.465968 57.1415C0.464499 57.4946 0.556131 57.8419 0.731586 58.1481C0.907041 58.4543 1.16009 58.7086 1.4651 58.8852C1.77011 59.0618 2.11626 59.1545 2.46849 59.1538H9.46801C9.82024 59.1545 10.1664 59.0618 10.4714 58.8852C10.7764 58.7086 11.0295 58.4543 11.2049 58.1481C11.3804 57.8419 11.472 57.4946 11.4705 57.1415C11.4691 56.7883 11.3745 56.4419 11.1966 56.1371L7.9671 50.5958V27.2396L11.9719 28.9869V40.854C11.9719 43.6638 14.1059 46.274 17.9613 48.2067C21.7101 50.0966 26.6894 51.1307 31.9746 51.1307C37.2598 51.1307 42.2391 50.0966 45.995 48.2139C49.8575 46.2812 51.9844 43.6638 51.9844 40.8611V28.9797L61.1393 25.0003L61.2602 24.9503C62.0622 24.6625 62.7559 24.1332 63.2463 23.4348C63.7368 22.7365 64 21.9034 64 21.0493C64 20.1953 63.7368 19.3621 63.2463 18.6638C62.7559 17.9655 62.0622 17.4361 61.2602 17.1483L61.2389 17.1411ZM47.9796 40.854C47.9796 42.0093 46.5569 43.457 44.2024 44.6195C42.4694 45.4602 40.6357 46.0738 38.7465 46.4452C34.285 47.3339 29.6927 47.3339 25.2312 46.4452C23.3419 46.0738 21.5082 45.4602 19.7752 44.6195C17.4136 43.4642 15.9696 42.0378 15.9696 40.854V30.727L29.4067 36.5821C31.0512 37.2636 32.8981 37.2636 34.5425 36.5821L47.9796 30.727V40.854ZM59.6526 21.2633L32.9491 32.9021C32.3213 33.1411 31.6279 33.1411 31.0001 32.9021L4.31084 21.2704C4.18617 21.2231 4.07416 21.1474 3.98363 21.0493C4.07416 20.9512 4.18617 20.8755 4.31084 20.8282L31.0001 9.18933C31.6273 8.94701 32.3219 8.94701 32.9491 9.18933L59.6384 20.8211C59.763 20.8684 59.875 20.9441 59.9656 21.0422C59.8793 21.1387 59.7723 21.2143 59.6526 21.2633Z" fill="#FF0080"/>
</svg>
