<svg xmlns="http://www.w3.org/2000/svg" x="0" y="0" version="1.1" viewBox="0 0 28.3 28.3" xml:space="preserve">
  <path fill="currentColor" d="M23.7 4.7c-5.2-5.2-13.8-5.2-19 0s-5.2 13.8 0 19 13.8 5.2 19 0c5.2-5.3 5.2-13.8 0-19zm-1.5 17.5c-4.4 4.4-11.6 4.4-16.1 0-4.4-4.4-4.4-11.6 0-16.1 4.4-4.4 11.6-4.4 16.1 0 4.4 4.5 4.4 11.7 0 16.1zm-13-11.7c0-.8.7-1.5 1.5-1.5.9 0 1.6.7 1.6 1.6 0 .9-.7 1.6-1.6 1.6-.8-.1-1.5-.8-1.5-1.7zm7.1 0c0-.8.7-1.5 1.6-1.5s1.6.7 1.6 1.6c0 .9-.7 1.6-1.6 1.6-.9-.1-1.6-.8-1.6-1.7zM20 17c-1 2.2-3.3 3.7-5.8 3.7-2.6 0-4.9-1.5-5.8-3.7-.2-.4 0-.8.4-1 .1 0 .2-.1.3-.1.3 0 .6.2.7.5.7 1.7 2.4 2.8 4.4 2.8 1.9 0 3.7-1.1 4.4-2.8.2-.4.6-.6 1-.4.4.1.6.6.4 1z"/>
</svg>