<svg width="64" height="64" viewBox="0 0 64 64" fill="none" xmlns="http://www.w3.org/2000/svg">
<path d="M15.125 37.0625C16.057 37.0625 16.8125 36.307 16.8125 35.375C16.8125 34.443 16.057 33.6875 15.125 33.6875C14.193 33.6875 13.4375 34.443 13.4375 35.375C13.4375 36.307 14.193 37.0625 15.125 37.0625Z" fill="#FF0080"/>
<path d="M15.125 43.8125C16.057 43.8125 16.8125 43.057 16.8125 42.125C16.8125 41.193 16.057 40.4375 15.125 40.4375C14.193 40.4375 13.4375 41.193 13.4375 42.125C13.4375 43.057 14.193 43.8125 15.125 43.8125Z" fill="#FF0080"/>
<path d="M15.125 50.5625C16.057 50.5625 16.8125 49.807 16.8125 48.875C16.8125 47.943 16.057 47.1875 15.125 47.1875C14.193 47.1875 13.4375 47.943 13.4375 48.875C13.4375 49.807 14.193 50.5625 15.125 50.5625Z" fill="#FF0080"/>
<path d="M42.125 30.3125C43.057 30.3125 43.8125 29.557 43.8125 28.625C43.8125 27.693 43.057 26.9375 42.125 26.9375C41.193 26.9375 40.4375 27.693 40.4375 28.625C40.4375 29.557 41.193 30.3125 42.125 30.3125Z" fill="#FF0080"/>
<path d="M42.125 37.0625C43.057 37.0625 43.8125 36.307 43.8125 35.375C43.8125 34.443 43.057 33.6875 42.125 33.6875C41.193 33.6875 40.4375 34.443 40.4375 35.375C40.4375 36.307 41.193 37.0625 42.125 37.0625Z" fill="#FF0080"/>
<path d="M42.125 43.8125C43.057 43.8125 43.8125 43.057 43.8125 42.125C43.8125 41.193 43.057 40.4375 42.125 40.4375C41.193 40.4375 40.4375 41.193 40.4375 42.125C40.4375 43.057 41.193 43.8125 42.125 43.8125Z" fill="#FF0080"/>
<path d="M42.125 50.5625C43.057 50.5625 43.8125 49.807 43.8125 48.875C43.8125 47.943 43.057 47.1875 42.125 47.1875C41.193 47.1875 40.4375 47.943 40.4375 48.875C40.4375 49.807 41.193 50.5625 42.125 50.5625Z" fill="#FF0080"/>
<path d="M48.875 30.3125C49.807 30.3125 50.5625 29.557 50.5625 28.625C50.5625 27.693 49.807 26.9375 48.875 26.9375C47.943 26.9375 47.1875 27.693 47.1875 28.625C47.1875 29.557 47.943 30.3125 48.875 30.3125Z" fill="#FF0080"/>
<path d="M48.875 37.0625C49.807 37.0625 50.5625 36.307 50.5625 35.375C50.5625 34.443 49.807 33.6875 48.875 33.6875C47.943 33.6875 47.1875 34.443 47.1875 35.375C47.1875 36.307 47.943 37.0625 48.875 37.0625Z" fill="#FF0080"/>
<path d="M48.875 43.8125C49.807 43.8125 50.5625 43.057 50.5625 42.125C50.5625 41.193 49.807 40.4375 48.875 40.4375C47.943 40.4375 47.1875 41.193 47.1875 42.125C47.1875 43.057 47.943 43.8125 48.875 43.8125Z" fill="#FF0080"/>
<path d="M28.625 30.3125C29.557 30.3125 30.3125 29.557 30.3125 28.625C30.3125 27.693 29.557 26.9375 28.625 26.9375C27.693 26.9375 26.9375 27.693 26.9375 28.625C26.9375 29.557 27.693 30.3125 28.625 30.3125Z" fill="#FF0080"/>
<path d="M28.625 37.0625C29.557 37.0625 30.3125 36.307 30.3125 35.375C30.3125 34.443 29.557 33.6875 28.625 33.6875C27.693 33.6875 26.9375 34.443 26.9375 35.375C26.9375 36.307 27.693 37.0625 28.625 37.0625Z" fill="#FF0080"/>
<path d="M28.625 43.8125C29.557 43.8125 30.3125 43.057 30.3125 42.125C30.3125 41.193 29.557 40.4375 28.625 40.4375C27.693 40.4375 26.9375 41.193 26.9375 42.125C26.9375 43.057 27.693 43.8125 28.625 43.8125Z" fill="#FF0080"/>
<path d="M28.625 50.5625C29.557 50.5625 30.3125 49.807 30.3125 48.875C30.3125 47.943 29.557 47.1875 28.625 47.1875C27.693 47.1875 26.9375 47.943 26.9375 48.875C26.9375 49.807 27.693 50.5625 28.625 50.5625Z" fill="#FF0080"/>
<path d="M21.875 30.3125C22.807 30.3125 23.5625 29.557 23.5625 28.625C23.5625 27.693 22.807 26.9375 21.875 26.9375C20.943 26.9375 20.1875 27.693 20.1875 28.625C20.1875 29.557 20.943 30.3125 21.875 30.3125Z" fill="#FF0080"/>
<path d="M21.875 37.0625C22.807 37.0625 23.5625 36.307 23.5625 35.375C23.5625 34.443 22.807 33.6875 21.875 33.6875C20.943 33.6875 20.1875 34.443 20.1875 35.375C20.1875 36.307 20.943 37.0625 21.875 37.0625Z" fill="#FF0080"/>
<path d="M21.875 43.8125C22.807 43.8125 23.5625 43.057 23.5625 42.125C23.5625 41.193 22.807 40.4375 21.875 40.4375C20.943 40.4375 20.1875 41.193 20.1875 42.125C20.1875 43.057 20.943 43.8125 21.875 43.8125Z" fill="#FF0080"/>
<path d="M21.875 50.5625C22.807 50.5625 23.5625 49.807 23.5625 48.875C23.5625 47.943 22.807 47.1875 21.875 47.1875C20.943 47.1875 20.1875 47.943 20.1875 48.875C20.1875 49.807 20.943 50.5625 21.875 50.5625Z" fill="#FF0080"/>
<path d="M35.375 30.3125C36.307 30.3125 37.0625 29.557 37.0625 28.625C37.0625 27.693 36.307 26.9375 35.375 26.9375C34.443 26.9375 33.6875 27.693 33.6875 28.625C33.6875 29.557 34.443 30.3125 35.375 30.3125Z" fill="#FF0080"/>
<path d="M35.375 37.0625C36.307 37.0625 37.0625 36.307 37.0625 35.375C37.0625 34.443 36.307 33.6875 35.375 33.6875C34.443 33.6875 33.6875 34.443 33.6875 35.375C33.6875 36.307 34.443 37.0625 35.375 37.0625Z" fill="#FF0080"/>
<path d="M35.375 43.8125C36.307 43.8125 37.0625 43.057 37.0625 42.125C37.0625 41.193 36.307 40.4375 35.375 40.4375C34.443 40.4375 33.6875 41.193 33.6875 42.125C33.6875 43.057 34.443 43.8125 35.375 43.8125Z" fill="#FF0080"/>
<path d="M35.375 50.5625C36.307 50.5625 37.0625 49.807 37.0625 48.875C37.0625 47.943 36.307 47.1875 35.375 47.1875C34.443 47.1875 33.6875 47.943 33.6875 48.875C33.6875 49.807 34.443 50.5625 35.375 50.5625Z" fill="#FF0080"/>
<rect x="5" y="18.5" width="54" height="2" fill="#FF0080"/>
<rect x="15.9688" y="4" width="10.125" height="3" rx="1.5" transform="rotate(90 15.9688 4)" fill="#FF0080"/>
<rect x="50.5625" y="4" width="10.125" height="3" rx="1.5" transform="rotate(90 50.5625 4)" fill="#FF0080"/>
<rect x="6.5" y="9.875" width="51" height="47.625" rx="3.5" stroke="#FF0080" stroke-width="3"/>
</svg>
