<svg xmlns="http://www.w3.org/2000/svg" width="20" height="20" fill="none" viewBox="0 0 20 20"><path fill="#333" fill-rule="evenodd" d="M10 0a10.1 10.1 0 0110 10 10.1 10.1 0 01-10 10A10.1 10.1 0 010 10 10.1 10.1 0 0110 0zm4.92 12.62L12.26 10l2.66-2.62c.08-.1.12-.22.12-.34a.56.56 0 00-.12-.35L13.3 5.1a.44.44 0 00-.33-.13.59.59 0 00-.36.12L10 7.74 7.38 5.08a.56.56 0 00-.34-.12.56.56 0 00-.35.12L5.1 6.7a.44.44 0 00-.13.33c0 .13.04.25.12.36L7.74 10l-2.66 2.62a.56.56 0 00-.12.34c0 .12.04.24.12.35l1.61 1.6c.08.09.2.13.33.13s.25-.04.36-.12L10 12.26l2.62 2.66c.1.08.22.12.34.12.12 0 .24-.04.35-.12l1.6-1.61a.44.44 0 00.13-.33.59.59 0 00-.12-.36z" clip-rule="evenodd"/></svg>