<svg xmlns="http://www.w3.org/2000/svg" x="0" y="0" version="1.1" viewBox="0 0 28.3 28.3" xml:space="preserve">
  <path fill="currentColor" d="M16.2 20c-.4 0-1-.1-1.8-.4-.7-.2-1.3-.3-1.7-.3s-.7.1-1 .2l-.8.4c-.1 0-.1.1-.2.1s-.3-.1-.4-.2l-.8-1.1c-.1-.2-.1-.5.1-.6.6-.4 1.1-.8 1.4-1.3.3-.4.5-.9.5-1.4 0-.1 0-.3-.1-.5 0-.1 0-.1-.1-.2v-.1H9.8c-.2 0-.4-.2-.4-.4v-.8c0-.2.2-.4.4-.4h.6l-.1-.1-.3-.6c0-.3-.1-.5-.1-.7 0-.3-.1-.5-.1-.7 0-.9.4-1.8 1.2-2.5s1.9-1.1 3.3-1.1c1.3 0 2.4.4 3.1 1.1s1.1 1.7 1.1 3v.1c0 .2-.2.4-.4.4h-1.5c-.2 0-.4-.2-.4-.4 0-.7-.2-1.2-.5-1.5-.3-.3-.8-.5-1.4-.5-.6 0-1.1.2-1.4.5-.3.3-.5.7-.5 1.1 0 .2.1.5.2.7.1.3.3.7.6 1.3v.1h2.4c.2 0 .4.2.4.4v.8c0 .2-.2.4-.4.4h-1.8v.6c0 .6-.2 1.2-.6 1.8 0 .1-.1.1-.1.2l-.1-.1h.5c.5 0 1 .1 1.7.3.9.2 1.1.3 1.2.3.2 0 .4 0 .5-.1s.3-.2.5-.3c.1-.1.2-.1.3-.1h.1c.1 0 .2.1.3.2l.7 1.1c.1.2.1.4-.1.5l-.9.6c-.6.1-1.1.2-1.6.2z"/>
  <path fill="currentColor" d="M23.6 4.7C18.4-.5 9.9-.5 4.7 4.7s-5.2 13.7 0 18.9 13.7 5.2 18.9 0 5.2-13.7 0-18.9zm-1.4 17.5c-4.4 4.4-11.6 4.4-16 0s-4.4-11.6 0-16 11.6-4.4 16 0 4.4 11.5 0 16z"/>
</svg>