<svg width="1500" height="130" viewBox="0 0 1500 130" fill="none" xmlns="http://www.w3.org/2000/svg">
<rect width="1500" height="129" rx="8" fill="#E8E6F2"/>
<mask id="mask0" mask-type="alpha" maskUnits="userSpaceOnUse" x="0" y="0" width="1500" height="130">
<rect width="1500" height="130" fill="#E8E6F2"/>
</mask>
<g mask="url(#mask0)">
<path d="M1368.59 -357.041L1199.68 -402.366L1154.48 -233.425L1323.39 -188.099C1393.35 -169.325 1434.89 -97.3767 1416.17 -27.3988C1397.44 42.5791 1325.55 84.0876 1255.59 65.313L1086.68 19.9871C1008.28 -1.04997 924.763 9.92351 854.495 50.4928C784.227 91.0621 732.965 157.904 711.986 236.315C691.007 314.726 702.03 398.282 742.629 468.602C783.228 538.922 850.079 590.246 928.474 611.283L1097.38 656.609C1167.35 675.384 1208.89 747.332 1190.16 817.31C1171.44 887.287 1099.55 928.796 1029.58 910.021L860.673 864.695C782.277 843.659 698.759 854.632 628.491 895.201C558.223 935.77 506.961 1002.61 485.982 1081.02C465.003 1159.43 476.026 1242.99 516.625 1313.31C557.225 1383.63 624.075 1434.95 702.47 1455.99L747.671 1287.05C677.707 1268.28 636.167 1196.33 654.89 1126.35C673.613 1056.37 745.508 1014.86 815.472 1033.64L984.381 1078.96C1062.78 1100 1146.29 1089.03 1216.56 1048.46C1286.83 1007.89 1338.09 941.046 1359.07 862.635C1380.05 784.225 1369.03 700.669 1328.43 630.348C1287.83 560.028 1220.98 508.704 1142.58 487.667L973.675 442.342C903.711 423.567 862.171 351.619 880.894 281.641C899.617 211.663 971.512 170.155 1041.48 188.929L1210.38 234.255C1288.78 255.292 1372.3 244.318 1442.57 203.749C1512.83 163.18 1564.1 96.3378 1585.07 17.9271C1606.05 -60.4836 1595.03 -144.04 1554.43 -214.36C1513.83 -284.68 1446.98 -336.003 1368.59 -357.041Z" fill="#D3CFE6"/>
</g>
</svg>
