<svg id="Layer_1" data-name="Layer 1"
  xmlns="http://www.w3.org/2000/svg" viewBox="0 0 594 190.969">
  <title>eng</title>
  <path d="M74.213,65.591c3.332,1.824,7.56-.032,9.226-3.2,1.6-3.1.833-7.552-2.434-9.248-3.364-1.728-7.5.224-9.162,3.36C70.177,59.607,70.978,63.863,74.213,65.591Z" fill="#fff"/>
  <path d="M28.326,74.2c2.563,1.248,5.189-1.088,6.214-3.264,1.154-2.4,1.506-6.432-1.313-7.872-2.659-1.312-5.221,1.088-6.247,3.328C25.955,68.793,25.539,72.857,28.326,74.2Z" fill="#fff"/>
  <path d="M19.388,87.93c2.338,1.984,5-.736,5.862-2.88.9-2.272,1.089-5.728-.865-7.52-2.274-2.08-5.093.48-5.99,2.688C17.466,82.554,17.306,86.17,19.388,87.93Z" fill="#fff"/>
  <path d="M41.075,82.552a5.754,5.754,0,0,0-3.236-3.712,5.106,5.106,0,0,0-5,1.024c-2.819,2.3-3.748,6.72-2.563,10.112a5.53,5.53,0,0,0,3.235,3.52,5.2,5.2,0,0,0,4.838-.992A9.6,9.6,0,0,0,41.075,82.552Z" fill="#fff"/>
  <path d="M41.005,125.273c-.961-3.1-4.132-6.464-7.688-5.024-3.427,1.408-4,5.952-3.171,9.12.865,3.3,4.164,7.008,7.912,5.344C41.55,133.145,41.966,128.473,41.005,125.273Z" fill="#fff"/>
  <path d="M26.336,131.418c-.48-2.272-2.434-5.7-5.285-4.928-2.787.736-3.044,4.7-2.5,6.976.513,2.176,2.434,5.216,5.093,4.7C26.528,137.626,26.785,133.69,26.336,131.418Z" fill="#fff"/>
  <path d="M85.717,152.829a7.258,7.258,0,0,0-7.592-6.336c-3.812.288-6.214,4-5.638,7.648a7.523,7.523,0,0,0,7.4,6.272C83.763,160.285,86.23,156.445,85.717,152.829Z" fill="#fff"/>
  <path d="M35.84,144.283c-.961-2.336-3.62-5.056-6.407-3.84-2.755,1.184-2.627,5.024-1.73,7.36.929,2.368,3.4,4.928,6.215,3.968C36.929,150.683,36.833,146.683,35.84,144.283Z" fill="#fff"/>
  <path d="M55.741,60.186c2.563,2.656,6.631,1.44,8.745-1.088,2.05-2.4,2.595-6.432-.032-8.672-2.467-2.112-6.022-1.12-8.1,1.024C54.107,53.722,53.306,57.722,55.741,60.186Z" fill="#fff"/>
  <path d="M42.121,64.923c2.979.576,5.606-1.92,6.631-4.48,1.057-2.624.48-6.368-2.723-7.136-3.14-.7-5.959,1.952-6.919,4.7C38.181,60.7,38.949,64.315,42.121,64.923Z" fill="#fff"/>
  <path d="M47.762,70.488c-2.371,2.976-2.787,7.616-.32,10.656a5.75,5.75,0,0,0,4.869,2.176,7.126,7.126,0,0,0,4.773-2.528,9.2,9.2,0,0,0,1.794-9.44,6.038,6.038,0,0,0-9.386-2.528A8.537,8.537,0,0,0,47.762,70.488Z" fill="#fff"/>
  <path d="M14.6,102.776a3.494,3.494,0,0,0,2.5,2.176c1.377.224,2.5-.864,3.139-1.952a8.434,8.434,0,0,0,.385-7.584,3.4,3.4,0,0,0-2.691-2.208,3.464,3.464,0,0,0-3.011,2.08A8.331,8.331,0,0,0,14.6,102.776Z" fill="#fff"/>
  <path d="M33.123,101.531a4.9,4.9,0,0,0-3.972-2.208,4.708,4.708,0,0,0-3.684,2.272,9.722,9.722,0,0,0-.128,10.3,4.819,4.819,0,0,0,3.78,2.432,4.877,4.877,0,0,0,4-2.208A9.4,9.4,0,0,0,33.123,101.531Z" fill="#fff"/>
  <path d="M21,113.274a4.685,4.685,0,0,0-2.755-3.008,2.846,2.846,0,0,0-3.011,1.312,8.281,8.281,0,0,0-.608,7.168,4.8,4.8,0,0,0,2.658,3.072,2.972,2.972,0,0,0,3.364-1.568A8.291,8.291,0,0,0,21,113.274Z" fill="#fff"/>
  <path d="M58.847,142.3a9.319,9.319,0,0,0-2.723-10.368,5.933,5.933,0,0,0-9.482,1.728,9.046,9.046,0,0,0,1.986,10.464,6.9,6.9,0,0,0,5.158,1.984,5.976,5.976,0,0,0,4.548-2.848A4.628,4.628,0,0,0,58.847,142.3Z" fill="#fff"/>
  <path d="M67.793,158.331A7.449,7.449,0,0,0,60.81,151.9a5.147,5.147,0,0,0-4.069,2.144,6.073,6.073,0,0,0-.961,4.128,7.38,7.38,0,0,0,6.92,6.3,5.059,5.059,0,0,0,4.228-2.24A5.982,5.982,0,0,0,67.793,158.331Z" fill="#fff"/>
  <path d="M49.306,152.184c-1.73-2.5-5.542-4.32-8.041-1.7-2.242,2.368-1.217,6.24.737,8.416,1.794,1.984,5.03,3.1,7.24,1.056C51.452,157.944,50.844,154.36,49.306,152.184Z" fill="#fff"/>
  <path d="M100.967,32.541a5.413,5.413,0,0,0,6.375-1.76,4.242,4.242,0,0,0-1.858-6.368,5.571,5.571,0,0,0-6.663,1.76A4.208,4.208,0,0,0,100.967,32.541Z" fill="#fff"/>
  <path d="M14.983,56.25c1.6.1,2.788-1.728,3.332-3.008.513-1.248.929-3.968-1.025-4.224-1.73-.192-3.043,1.76-3.524,3.136C13.318,53.37,13.03,56.122,14.983,56.25Z" fill="#fff"/>
  <path d="M116.759,44.121a5.02,5.02,0,0,0,7.143-1.28,5.411,5.411,0,0,0-1.858-7.3,5.208,5.208,0,0,0-6.759,1.216C113.491,39.1,114.42,42.521,116.759,44.121Z" fill="#fff"/>
  <path d="M7.726,68.7c1.442.672,2.659-1.376,3.075-2.432.513-1.28,1.057-3.936-.512-4.736C8.719,60.762,7.438,63,7.053,64.154,6.637,65.37,6.189,67.994,7.726,68.7Z" fill="#fff"/>
  <path d="M125.678,170.842a4.776,4.776,0,0,0-6.086-3.584,5.694,5.694,0,0,0-3.972,6.4,4.956,4.956,0,0,0,5.862,3.744A5.572,5.572,0,0,0,125.678,170.842Z" fill="#fff"/>
  <path d="M11.692,149.817c-.288-1.344-1.345-3.872-3.043-3.744-1.762.128-1.6,2.752-1.314,3.9.321,1.344,1.218,3.392,2.851,3.488C11.948,153.529,11.948,151,11.692,149.817Z" fill="#fff"/>
  <path d="M109.688,183.673a5.216,5.216,0,0,0-5.926-3.584c-2.659.448-4.869,3.008-3.908,5.728a5.42,5.42,0,0,0,5.734,3.264C108.214,188.793,110.425,186.393,109.688,183.673Z" fill="#fff"/>
  <path d="M19.189,161.529c-.545-1.408-1.762-3.136-3.428-3.136-1.986.1-1.666,2.88-1.185,4.1.513,1.344,1.73,3.1,3.364,3.072C19.99,165.561,19.669,162.777,19.189,161.529Z" fill="#fff"/>
  <path d="M58.585,43.194a6.389,6.389,0,0,0,5.767-4.256,3.871,3.871,0,0,0-.193-3.1A3.8,3.8,0,0,0,60.251,34.2a6.446,6.446,0,0,0-5.221,4.32A3.6,3.6,0,0,0,58.585,43.194Z" fill="#fff"/>
  <path d="M42.861,47.449c2.114.224,4.165-1.344,5.158-3.1,1.089-1.888,1.121-4.928-1.538-5.5-2.242-.48-4.581,1.12-5.67,2.976C39.626,43.9,39.946,47.129,42.861,47.449Z" fill="#fff"/>
  <path d="M6.762,103.8a1.671,1.671,0,0,0,1.89.544,3.873,3.873,0,0,0,1.826-2.752c.448-1.76.384-4.16-.865-5.6A1.664,1.664,0,0,0,7.4,95.579a4.54,4.54,0,0,0-1.569,2.88C5.545,100.123,5.577,102.427,6.762,103.8Z" fill="#fff"/>
  <path d="M10.482,112.922c-.321-.928-.929-2.112-1.986-2.336a1.876,1.876,0,0,0-1.954,1.088,7.287,7.287,0,0,0-.353,5.568c.288.96.9,2.208,1.986,2.432a1.989,1.989,0,0,0,1.986-1.152A7.229,7.229,0,0,0,10.482,112.922Z" fill="#fff"/>
  <path d="M66.052,175.9a6.218,6.218,0,0,0-5.093-5.216c-2.4-.416-4.966,1.088-4.677,3.744a6.122,6.122,0,0,0,4.9,5.12,4.725,4.725,0,0,0,3.3-.416A3.357,3.357,0,0,0,66.052,175.9Z" fill="#fff"/>
  <path d="M49.054,169.4c-1.217-1.728-3.651-3.264-5.83-2.4-2.562,1.024-2.082,4.224-.737,6.016,1.25,1.632,3.684,3.04,5.767,2.24C50.784,174.3,50.272,171.163,49.054,169.4Z" fill="#fff"/>
  <path d="M43.74,33.592a5.488,5.488,0,0,0,4-2.112c1.121-1.408,1.153-3.648-1.121-3.68a5.708,5.708,0,0,0-4.2,2.048,3.159,3.159,0,0,0-.8,2.272C41.722,33.144,42.843,33.592,43.74,33.592Z" fill="#fff"/>
  <path d="M.612,103.64a1.008,1.008,0,0,0,1.249.48,2.829,2.829,0,0,0,1.122-2.08,6.739,6.739,0,0,0-.353-4.128c-.256-.544-.833-1.056-1.441-.7A2.8,2.8,0,0,0,.164,99.32,6.443,6.443,0,0,0,.612,103.64Z" fill="#fff"/>
  <path d="M3.243,114.042c-.064-.96-.353-3.648-1.858-3.36C.039,110.938.1,113.37.136,114.394c.032.832.256,3.616,1.633,3.392C3.211,117.53,3.307,115.13,3.243,114.042Z" fill="#fff"/>
  <path d="M64.259,188.6c-.384-1.952-2.5-3.1-4.26-3.552-1.634-.384-3.908.416-3.428,2.464.481,1.856,2.5,2.848,4.165,3.3S64.516,190.649,64.259,188.6Z" fill="#fff"/>
  <path d="M48.883,182.685a5.237,5.237,0,0,0-4.485-2.016c-2.21.32-1.89,2.624-.705,3.872a5.8,5.8,0,0,0,4.229,1.856C50.164,186.237,49.972,184,48.883,182.685Z" fill="#fff"/>
  <path d="M57.759,28.89a5.984,5.984,0,0,0,4.517-2.3,2.616,2.616,0,0,0,.577-2.432,2.4,2.4,0,0,0-2.435-1.216,6.193,6.193,0,0,0-4.389,2.112,2.713,2.713,0,0,0-.736,2.208A2.307,2.307,0,0,0,57.759,28.89Z" fill="#fff"/>
  <path d="M88.007,48.379a5.887,5.887,0,0,0,7.431-1.952,5.467,5.467,0,0,0-1.729-7.68,5.977,5.977,0,0,0-8.105,2.08A5.524,5.524,0,0,0,88.007,48.379Z" fill="#fff"/>
  <path d="M21.339,64.314c2.178.224,3.812-2.272,4.42-4.064.545-1.6.737-4.64-1.473-5.088-2.179-.416-3.94,2.048-4.581,3.808C19.1,60.666,18.84,64.09,21.339,64.314Z" fill="#fff"/>
  <path d="M103.184,60.924a5.836,5.836,0,0,0,8.3-1.152,6.5,6.5,0,0,0-1.57-8.672,5.889,5.889,0,0,0-8.489,1.344A6.422,6.422,0,0,0,103.184,60.924Z" fill="#fff"/>
  <path d="M12.717,77.244c1.73,1.344,3.588-.928,4.26-2.336.769-1.664,1.346-4.48-.16-5.92C13.806,66.012,9.642,74.78,12.717,77.244Z" fill="#fff"/>
  <path d="M113.566,154.425a5.7,5.7,0,0,0-7.656-4.1,6.7,6.7,0,0,0-4.068,7.712,5.724,5.724,0,0,0,7.463,3.968A6.687,6.687,0,0,0,113.566,154.425Z" fill="#fff"/>
  <path d="M18.124,141.724c-.385-1.728-1.57-4.16-3.588-4.384-2.4-.288-2.531,3.168-2.178,4.736.384,1.728,1.633,4.48,3.748,4.48C18.412,146.492,18.508,143.292,18.124,141.724Z" fill="#fff"/>
  <path d="M97.811,168.092a5.812,5.812,0,0,0-6.631-4.16,5.687,5.687,0,0,0-4.645,6.4,5.846,5.846,0,0,0,6.952,4.544A5.581,5.581,0,0,0,97.811,168.092Z" fill="#fff"/>
  <path d="M26.563,154.137c-.673-1.7-2.274-3.968-4.388-3.776-2.5.256-2.243,3.712-1.6,5.376.641,1.7,2.242,3.9,4.292,3.808C27.492,159.417,27.2,155.8,26.563,154.137Z" fill="#fff"/>
  <path d="M514.747,138.873c-13.967,0-24.634-5.248-24.634-25.248V76.281a1.7,1.7,0,0,1,1.762-1.664h10.859a1.7,1.7,0,0,1,1.762,1.664v37.312c0,8.96,2.37,13.376,10.283,13.376s10.347-4.416,10.347-13.376V76.281a1.7,1.7,0,0,1,1.761-1.664h10.764a1.783,1.783,0,0,1,1.858,1.664v37.312C539.445,133.625,528.713,138.873,514.747,138.873Z" fill="#fff"/>
  <path d="M593.561,76.826l-18.9,28.608,19,30.816a1.693,1.693,0,0,1,.352.96c0,.512-.448.864-1.217.864H578.346a2.067,2.067,0,0,1-1.955-1.248l-17.17-27.616v27.1a1.776,1.776,0,0,1-1.761,1.76H546.632a1.952,1.952,0,0,1-1.762-1.088V76.954c0-1.632.8-2.336,1.762-2.336H557.46a1.7,1.7,0,0,1,1.761,1.664v26.176l18.644-26.816a2.015,2.015,0,0,1,1.922-1.056h12.781c.961,0,1.41.448,1.41.96A2.4,2.4,0,0,1,593.561,76.826Z" fill="#fff"/>
  <path d="M100.9,137.6c-2.819.448-6.247,1.216-16.722,1.216-11.436,0-20.341-3.072-20.341-17.377V92.442c0-15.616,8.905-18.688,20.341-18.688,10.475,0,13.9.8,16.722,1.216,1.313.16,1.761.608,1.761,1.856v5.632a1.776,1.776,0,0,1-1.761,1.76H82.932c-5.126,0-6.952,1.76-6.952,7.552v9.12H99.845a1.777,1.777,0,0,1,1.762,1.76v6.336a1.777,1.777,0,0,1-1.762,1.76H75.98v10.016c0,5.793,1.858,7.553,6.952,7.553H100.9a1.776,1.776,0,0,1,1.761,1.76v5.632C102.664,136.987,102.216,137.4,100.9,137.6Z" fill="#fff"/>
  <path d="M193.132,96.572l-2.915,1.152a11.1,11.1,0,0,1,2.211,7.008v.608c0,10.976-7.56,15.968-20.822,15.968a26.424,26.424,0,0,1-9.578-1.5,2.824,2.824,0,0,0-1.506,2.272c0,1.729.961,2.465,2.979,2.881l10.347,2.464c11.949,2.816,19.669,4.64,19.669,14.048v.608c0,8.96-6.6,13.792-21.527,13.792-14.223,0-21.783-5.344-21.783-14.56v-.768a13.219,13.219,0,0,1,4.485-9.664,10.185,10.185,0,0,1-3.94-8.065v-.1a8.485,8.485,0,0,1,3.524-7.1c-2.627-2.72-3.588-5.888-3.588-10.272v-.608c0-8.768,5.7-16.128,20.886-16.128h20.533a2.364,2.364,0,0,1,2.371,2.368v3.68C194.542,95.964,194.189,96.124,193.132,96.572Zm-11.147,44.9c0-1.92-1.154-3.072-10.379-5.28l-7.816-1.856c-1.314,1.856-2.211,2.976-2.211,6.144v.768c0,3.584,2.211,5.792,10.443,5.792,8.425,0,9.931-1.856,9.931-4.992v-.576Zm-.993-36.577c0-4.192-1.826-7.456-9.386-7.456-7.464,0-9.482,3.328-9.482,7.456v.7c0,3.264,1.313,6.944,9.482,6.944,7.271,0,9.386-2.56,9.386-6.944Z" fill="#fff"/>
  <path d="M208.343,138.04h-8.072a1.84,1.84,0,0,1-1.762-1.856V90.328a1.777,1.777,0,0,1,1.762-1.76h8.072a1.777,1.777,0,0,1,1.762,1.76v45.888A1.833,1.833,0,0,1,208.343,138.04Z" fill="#fff"/>
  <path d="M253.352,138.041h-8.073a1.84,1.84,0,0,1-1.762-1.856V107.577c0-7.616-.7-9.824-7.463-9.824-2.979,0-5,1.216-8.681,3.168v35.264a1.862,1.862,0,0,1-1.762,1.856h-8.073a1.84,1.84,0,0,1-1.762-1.856V90.329a1.777,1.777,0,0,1,1.762-1.76h7.624a1.777,1.777,0,0,1,1.762,1.76v1.856c5.093-3.264,7.208-4.224,13.006-4.224,12.653,0,15.184,8.512,15.184,19.648v28.608A1.833,1.833,0,0,1,253.352,138.041Z" fill="#fff"/>
  <path d="M297.816,117.337H270.427v.256c0,5.088,1.474,11.136,9.93,11.136,6.407,0,11.853-.512,15.537-.864h.256c.865,0,1.57.448,1.57,1.312v5.792c0,1.408-.257,2.016-1.858,2.272a72.016,72.016,0,0,1-16.433,1.5c-8.778,0-20.63-4.736-20.63-22.016v-6.5c0-13.7,7.015-22.272,20.469-22.272,13.519,0,20.278,9.216,20.278,22.272v4.9C299.578,116.569,299.065,117.337,297.816,117.337Zm-9.931-8.576c0-6.848-3.171-10.784-8.617-10.784s-8.777,3.872-8.777,10.784v.352h17.394Z" fill="#fff"/>
  <path d="M341.259,117.337H313.87v.256c0,5.088,1.474,11.136,9.931,11.136,6.407,0,11.852-.512,15.536-.864h.256c.865,0,1.57.448,1.57,1.312v5.792c0,1.408-.256,2.016-1.858,2.272a72.016,72.016,0,0,1-16.433,1.5c-8.777,0-20.63-4.736-20.63-22.016v-6.5c0-13.7,7.016-22.272,20.47-22.272,13.518,0,20.277,9.216,20.277,22.272v4.9C343.021,116.569,342.476,117.337,341.259,117.337Zm-9.93-8.576c0-6.848-3.172-10.784-8.617-10.784s-8.778,3.872-8.778,10.784v.352h17.395Z" fill="#fff"/>
  <path d="M371.693,97.785a24.6,24.6,0,0,0-12.109,3.168v35.264a1.862,1.862,0,0,1-1.762,1.856H349.75a1.84,1.84,0,0,1-1.762-1.856V90.329a1.777,1.777,0,0,1,1.762-1.76h7.656a1.777,1.777,0,0,1,1.762,1.76v1.856a20.521,20.521,0,0,1,12.557-4.224,1.777,1.777,0,0,1,1.762,1.76v6.3A1.849,1.849,0,0,1,371.693,97.785Z" fill="#fff"/>
  <path d="M432.516,138.041h-8.073a1.84,1.84,0,0,1-1.762-1.856V107.577c0-7.616-.7-9.824-7.464-9.824-2.979,0-5,1.216-8.681,3.168v35.264a1.861,1.861,0,0,1-1.761,1.856H396.7a1.84,1.84,0,0,1-1.762-1.856V90.329a1.777,1.777,0,0,1,1.762-1.76h7.656a1.777,1.777,0,0,1,1.762,1.76v1.856c5.093-3.264,7.207-4.224,13.006-4.224,12.653,0,15.184,8.512,15.184,19.648v28.608A1.884,1.884,0,0,1,432.516,138.041Z" fill="#fff"/>
  <path d="M480.926,96.572l-2.883,1.152a11.109,11.109,0,0,1,2.21,7.008v.608c0,10.976-7.56,15.968-20.822,15.968a26.428,26.428,0,0,1-9.578-1.5,2.822,2.822,0,0,0-1.5,2.272c0,1.729.961,2.465,2.979,2.881l10.347,2.464c11.948,2.816,19.668,4.64,19.668,14.048v.608c0,8.96-6.6,13.792-21.526,13.792-14.223,0-21.783-5.344-21.783-14.56v-.768a13.219,13.219,0,0,1,4.485-9.664,10.185,10.185,0,0,1-3.94-8.065v-.1a8.57,8.57,0,0,1,3.523-7.1c-2.627-2.72-3.588-5.888-3.588-10.272v-.608c0-8.768,5.7-16.128,20.918-16.128H480a2.365,2.365,0,0,1,2.371,2.368v3.68C482.335,95.964,481.983,96.124,480.926,96.572Zm-11.148,44.9c0-1.92-1.153-3.072-10.379-5.28l-7.816-1.856c-1.313,1.856-2.178,2.976-2.178,6.144v.768c0,3.584,2.178,5.792,10.443,5.792,8.425,0,9.93-1.856,9.93-4.992v-.576Zm-.961-36.577c0-4.192-1.858-7.456-9.386-7.456-7.463,0-9.482,3.328-9.482,7.456v.7c0,3.264,1.314,6.944,9.482,6.944,7.3,0,9.386-2.56,9.386-6.944Z" fill="#fff"/>
  <path d="M144.761,138.041h-8.073a1.84,1.84,0,0,1-1.762-1.856V107.577c0-7.616-.7-9.824-7.464-9.824-2.979,0-5,1.216-8.681,3.168v35.264a1.861,1.861,0,0,1-1.761,1.856h-8.073a1.84,1.84,0,0,1-1.762-1.856V90.329a1.777,1.777,0,0,1,1.762-1.76h7.624a1.777,1.777,0,0,1,1.762,1.76v1.856c5.093-3.264,7.207-4.224,13.006-4.224,12.653,0,15.183,8.512,15.183,19.648v28.608A1.832,1.832,0,0,1,144.761,138.041Z" fill="#fff"/>
  <path d="M210.533,77.432a6.215,6.215,0,1,1-6.215-6.208A6.217,6.217,0,0,1,210.533,77.432Z" fill="#fff"/>
  <path d="M387.129,138.04h-8.073a1.84,1.84,0,0,1-1.762-1.856V90.328a1.777,1.777,0,0,1,1.762-1.76h8.073a1.777,1.777,0,0,1,1.762,1.76v45.888A1.833,1.833,0,0,1,387.129,138.04Z" fill="#fff"/>
  <path d="M389.3,77.432a6.215,6.215,0,1,1-6.215-6.208A6.217,6.217,0,0,1,389.3,77.432Z" fill="#fff"/>
</svg>
