<svg
  xmlns="http://www.w3.org/2000/svg" x="0" y="0" version="1.1" viewBox="0 0 28.3 28.3" xml:space="preserve">
  <path d="M14.2 27.6c.3 0 .5-.1.7-.3.4-.5 8.8-11.5 8.8-16.7 0-5.4-4.2-9.9-9.5-9.9-5.2 0-9.5 4.4-9.5 9.9 0 5.2 8.4 16.2 8.8 16.7.2.1.4.3.7.3zm0-25.1c4.3 0 7.7 3.6 7.8 8.1 0 3.5-5.1 11.1-7.8 14.7-2.7-3.7-7.8-11.3-7.8-14.8 0-4.4 3.5-8 7.8-8z" class="st0"/>
  <path d="M17.6 9.6c0-2-1.5-3.6-3.4-3.6s-3.4 1.6-3.4 3.6 1.5 3.6 3.4 3.6 3.4-1.6 3.4-3.6zm-5.1 0c0-1 .8-1.8 1.7-1.8 1 0 1.7.8 1.7 1.8s-.8 1.8-1.7 1.8c-1 0-1.7-.8-1.7-1.8z" class="st0"/>
</svg>