<svg xmlns="http://www.w3.org/2000/svg" id="Layer_1" data-name="Layer 1" viewBox="0 0 1920 783.27">
  <path fill="#dad6e7" fill-rule="evenodd" d="M1424.75 172.66a1.82 1.82 0 011.46-2.1l7.13-1.28a1.81 1.81 0 012.1 1.46l7.52 41.88a1.79 1.79 0 010 .83l-2.28 7.77a1.82 1.82 0 01-3.19.57l-4.85-6.49a1.73 1.73 0 01-.33-.76zm13.43 44.06l1.15-3.88-.4-2.26-3.57.64.4 2.26zm.1-9.7l-4.8-26.73-3.56.64 4.8 26.73zm-9-29.65l3.56-.64-.64-3.57-3.56.64zm-20.89-3.61l3.56-.64a3.62 3.62 0 014.21 2.91l8.17 45.43a3.63 3.63 0 01-2.93 4.21l-33.85 6.08a3.62 3.62 0 01-4.21-2.91l-8.16-45.43a3.62 3.62 0 012.91-4.21l3.56-.64-.16-.89a3.63 3.63 0 012.92-4.2l4.14-.74a6.44 6.44 0 01.48-1.19 6.34 6.34 0 018.51-2.82 6.45 6.45 0 011.47 1 7.76 7.76 0 01.86.95l4.13-.67a3.61 3.61 0 014.2 2.91zm-29.64 9l8.15 45.44 33.86-6.08-8.16-45.44-3.57.64.17.89a3.62 3.62 0 01-2.93 4.2l-19.6 3.52a3.61 3.61 0 01-4.2-2.92l-.17-.89zm26.88-3.91l-1-5.35-5.35 1a1.81 1.81 0 01-2-1 3.63 3.63 0 00-.79-1 2.71 2.71 0 00-3.84.13 3.09 3.09 0 00-.44.63 3.7 3.7 0 00-.38 1.25 1.81 1.81 0 01-1.49 1.66l-5.34 1 1 5.34zm3.69 10.37a1.81 1.81 0 11.65 3.57l-11.58 2.08a1.81 1.81 0 01-.64-3.57zm1.93 10.69a1.82 1.82 0 01.72 3.56h-.08l-11.57 2.08a1.81 1.81 0 01-.64-3.57zm-23.73-6.23l.62.43 1.89-2.72a1.81 1.81 0 013 2.07l-2.92 4.2a1.81 1.81 0 01-2.52.45l-2.1-1.46a1.81 1.81 0 012.06-3zm1.92 10.69l.62.43 1.89-2.72a1.81 1.81 0 013 2.07l-2.92 4.2a1.81 1.81 0 01-2.52.46l-2.1-1.47a1.81 1.81 0 112-3zm23.73 6.24a1.81 1.81 0 11.72 3.55h-.08l-11.57 2.08a1.81 1.81 0 01-.64-3.56zm-21.81 4.45l.62.43 1.89-2.72a1.81 1.81 0 013 2.07l-2.92 4.2a1.81 1.81 0 01-2.52.46l-2.1-1.46a1.81 1.81 0 112-3z"/>
  <path fill="#dad6e7" d="M1542.62 147.81l19.6-3.53a1.81 1.81 0 012.1 1.47l2.4 13.36a1.79 1.79 0 01-1.45 2.1l-19.61 3.53 1.93 10.73a37.94 37.94 0 0130.83 9.87A1.81 1.81 0 111576 188a34.35 34.35 0 00-27.73-9l1.27 7.08a1.81 1.81 0 01-3.56.64l-1.27-7.08a34.37 34.37 0 00-22.89 18 1.81 1.81 0 11-3.23-1.63 38 38 0 0125.48-20l-5.25-29.24a2.71 2.71 0 113.73-.89 2.2 2.2 0 01-.17.25zm20.22 10.19l-1.76-9.8-17.82 3.2 1.76 9.8zm-32.23 40.74a1.81 1.81 0 111.46-2.1 1.8 1.8 0 01-1.46 2.1zm14.65 4.73a3.62 3.62 0 112.92-4.2 3.64 3.64 0 01-2.92 4.2zm-6.54-10.78a2.72 2.72 0 112.2-3.16 2.72 2.72 0 01-2.2 3.16zM978.12 271.13l1.75-2.52a1.81 1.81 0 013 2.06l-4.41 6.33a1.81 1.81 0 01-2.52.45l-6.31-4.38a1.81 1.81 0 012.07-3l2.85 2a25.35 25.35 0 0139.77-22.85 1.81 1.81 0 01-2.07 3 21.72 21.72 0 00-34.13 18.95zm43.4-2.25l-1.76 2.52a1.81 1.81 0 01-3-2.07l4.39-6.3a1.8 1.8 0 012.52-.46L1030 267a1.81 1.81 0 01-2 3l-2.86-2a25.34 25.34 0 01-39.73 22.86 1.81 1.81 0 112.06-3 21.73 21.73 0 0034.11-19zm-13.59-4.88a1.81 1.81 0 012.1 1.46 1.86 1.86 0 01-.12 1l-7.81 18a1.82 1.82 0 01-3.45-.4l-1.6-8.91-5.34 1a1.82 1.82 0 01-2.11-1.46 2 2 0 01.09-1l7.5-19.74a1.81 1.81 0 013.47.32l1.92 10.7zm-2.69 4.16l-3.8.68a1.8 1.8 0 01-2.1-1.46l-1.09-6-4 10.64 4-.72a1.82 1.82 0 012.1 1.47l.86 4.8z"/>
  <path fill="#dad6e7" fill-rule="evenodd" d="M1112.87 228.6a1.81 1.81 0 01-.64-3.56l14.26-2.57a1.81 1.81 0 11.72 3.55h-.08l1.87 10.39a18.1 18.1 0 11-14.26 2.56zm26.39 26.4c-3.88 2.59-9 3.21-15.14.69-5.44-2.23-9.5-1.5-12.5.88a8.49 8.49 0 00-.84.75c1.51 3.67 9.27 12.26 16.58 10.95a14.51 14.51 0 0011.9-13.27zm-.37-4.37a14.49 14.49 0 00-11.75-10.92 1.79 1.79 0 01-1.49-1.47l-2.09-11.6-7.12 1.28 2.08 11.6a1.81 1.81 0 01-.89 1.9 14.5 14.5 0 00-7.28 11.6c3.88-2.58 9-3.21 15.14-.68 5.44 2.22 9.5 1.5 12.49-.88a9 9 0 00.91-.83zm22.42-28.93a1.81 1.81 0 01.64 3.56l-10.69 1.92a1.81 1.81 0 11-.73-3.55h.09zm1.28 7.13a1.81 1.81 0 11.64 3.56l-10.69 1.92a1.81 1.81 0 11-.73-3.55h.09zm1.28 7.13a1.81 1.81 0 11.72 3.54h-.08l-10.69 1.92a1.81 1.81 0 11-.73-3.55h.09zm-18.87-7.62l-3.72.67-4.69 6.74a1.81 1.81 0 11-3-2l5.12-7.36a1.79 1.79 0 011.16-.75l4.46-.8a1.81 1.81 0 01.64 3.56z"/>
  <path fill="#dad6e7" d="M1833.3 131.77l19.19 13.34a1.81 1.81 0 01-2.07 3l-19.19-13.34a25.33 25.33 0 112.07-3zm-18 8.44a21.73 21.73 0 10-25.23-17.55 21.73 21.73 0 0025.23 17.55zm-12.75-19.79a9 9 0 012.28-7.77 9 9 0 01-4.84-6.49l-.32-1.78a1.82 1.82 0 011.46-2.1l14.26-2.56a1.82 1.82 0 012.1 1.46l.32 1.79a9 9 0 01-2.28 7.76 9.06 9.06 0 014 12.16 9.19 9.19 0 01-1.46 2.1 9 9 0 014.84 6.49l.32 1.78a1.81 1.81 0 01-1.46 2.1l-14.25 2.56a1.8 1.8 0 01-2.1-1.46l-.33-1.78a9.07 9.07 0 012.29-7.77 9 9 0 01-4.78-6.49zm1-14.9a5.44 5.44 0 1010.7-1.92zm5.12 28.52l10.69-1.93a5.43 5.43 0 00-10.69 1.93zm7.51-17.91a5.44 5.44 0 00-10.09 1.81zm-9.45 5.38a5.44 5.44 0 0010.09-1.82z"/>
  <path fill="#dad6e7" fill-rule="evenodd" d="M1669.23 155.92l6 4.13-7.75 11.15-6-4.14zm-11.3 13.08l8.91 6.2a1.81 1.81 0 002.53-.46l9.82-14.12a1.81 1.81 0 00-.45-2.52l-8.93-6.2a1.8 1.8 0 00-2.51.45l-9.83 14.13a1.82 1.82 0 00.46 2.52zM1692.5 122.47l6 4.14-7.76 11.15-6-4.14zm-11.31 13.09l8.92 6.2a1.81 1.81 0 002.52-.45l9.82-14.12a1.81 1.81 0 00-.45-2.52l-8.92-6.2a1.81 1.81 0 00-2.52.45l-9.82 14.08a1.81 1.81 0 00.45 2.52z"/>
  <path fill="#dad6e7" fill-rule="evenodd" d="M1687.14 139.7a1.81 1.81 0 00-3-2.07l-2.07 3a1.82 1.82 0 00.43 2.53 1.8 1.8 0 002.52-.43zM1677.83 153.07a1.81 1.81 0 00-3-2.06l-2.07 3a1.81 1.81 0 003 2.07z"/>
  <path fill="#dad6e7" fill-rule="evenodd" d="M1692.66 152.36l-3.1 4.46-22.3-15.51a1.81 1.81 0 00-2.1 2.95l23.84 16.57a1.8 1.8 0 002.52-.46l5.17-7.43a1.81 1.81 0 00-.45-2.52l-23.79-16.54a1.81 1.81 0 00-2.07 3z"/>
  <path fill="#dad6e7" fill-rule="evenodd" d="M1698.49 157.52l-4.12-2.86a1.81 1.81 0 10-2.06 3l4.11 2.86a3.62 3.62 0 103.91-3.3 3.54 3.54 0 00-1.84.33zM1666.49 129.75l3 2.06-7.24 10.41-3-2.07zm-10.79 12.34l5.94 4.14a1.8 1.8 0 002.52-.46l9.31-13.38a1.79 1.79 0 00-.46-2.51l-5.94-4.13a1.82 1.82 0 00-2.53.45l-9.3 13.38a1.81 1.81 0 00.46 2.52z"/>
  <path fill="#dad6e7" d="M1255.75 247.63a6.34 6.34 0 004.43-3.38c.66-1.07 1-1.5 1.84-1.66s1.31.15 2.32.91a6.08 6.08 0 008.59-.11 6.19 6.19 0 001.14-1.64c.67-1.06 1-1.5 1.83-1.65s1.31.14 2.3.9a6.1 6.1 0 009.76-1.76c.67-1.05 1-1.5 1.85-1.65s1.3.15 2.3.91a6.21 6.21 0 005.31 1.63 1.92 1.92 0 00-.68-3.78c-.86.15-1.3-.15-2.3-.91a7.28 7.28 0 00-3.47-1.68l1.17-11.68a1.93 1.93 0 00-1.46-2.06l-7-1.71-2.23-12.45a1.93 1.93 0 00-2.24-1.55l-3.78.68-1-5.68a1.92 1.92 0 00-2.24-1.55l-7.57 1.36a1.92 1.92 0 00-1.55 2.23l1 5.68-3.79.68a1.92 1.92 0 00-1.55 2.23l2.23 12.45-5.93 4a1.91 1.91 0 00-.65 2.43l5.18 10.55a7.35 7.35 0 00-2.67 2.78c-.67 1.06-1 1.5-1.85 1.65a1.93 1.93 0 00.68 3.79zm31.25-13a7.9 7.9 0 00-2.31 2.57c-.67 1.06-1 1.49-1.83 1.65s-1.31-.15-2.3-.91a7.35 7.35 0 00-3.39-1.66l-2.93-16.28 13.9 3.41zm-19.79-32.06l3.78-.68.68 3.78-3.78.69zm-4.32 8.59l15.14-2.72 1.6 8.87-7.35-1.8a1.8 1.8 0 00-.8 0 1.93 1.93 0 00-.74.3l-6.26 4.25zm7.56 9.47l2.94 16.34a7.37 7.37 0 00-2.57 2.72c-.66 1.06-1 1.5-1.84 1.65s-1.31-.14-2.32-.91a7.8 7.8 0 00-3.07-1.6l-5-10.17z"/>
  <path fill="#dad6e7" fill-rule="evenodd" d="M1430.05 593.89a1.82 1.82 0 011.47-2.1l7.12-1.28a1.81 1.81 0 012.1 1.46l7.53 41.88a1.79 1.79 0 010 .83l-2.28 7.77a1.82 1.82 0 01-2.25 1.23 1.75 1.75 0 01-.94-.66l-4.84-6.49a1.75 1.75 0 01-.34-.76zm13.44 44.11l1.14-3.88-.41-2.25-3.56.64.4 2.25zm.1-9.7l-4.8-26.73-3.57.64 4.8 26.73zm-9-29.65l3.57-.64-.65-3.57-3.56.64zM1413.7 595l3.56-.64a3.61 3.61 0 014.2 2.92l8.16 45.43a3.63 3.63 0 01-2.93 4.21l-33.84 6.08a3.62 3.62 0 01-4.21-2.92l-8.16-45.43a3.61 3.61 0 012.91-4.21l3.55-.64-.16-.89a3.62 3.62 0 012.92-4.2l4.14-.75a6.73 6.73 0 01.48-1.19 6.36 6.36 0 0110-1.79 7.76 7.76 0 01.86.95l4.14-.74a3.61 3.61 0 014.2 2.92zm-29.65 9l8.15 45.44 33.86-6.08-8.16-45.44-3.56.64.16.89a3.62 3.62 0 01-2.93 4.2l-19.6 3.53a3.62 3.62 0 01-4.2-2.93l-.16-.89zm26.88-3.91l-1-5.35-5.35 1a1.81 1.81 0 01-2-1 3.54 3.54 0 00-.79-1 2.71 2.71 0 00-3.84.13 3.09 3.09 0 00-.44.63 3.7 3.7 0 00-.38 1.25 1.82 1.82 0 01-1.49 1.67l-5.34 1 1 5.34zm3.69 10.37a1.81 1.81 0 01.65 3.57l-11.58 2.07a1.81 1.81 0 11-.72-3.55h.08zm1.93 10.7a1.81 1.81 0 11.64 3.56l-11.57 2.08a1.81 1.81 0 01-.64-3.57zm-23.73-6.24l.62.43 1.89-2.72a1.81 1.81 0 013 2.07l-2.92 4.2a1.8 1.8 0 01-2.52.45l-2.09-1.46a1.81 1.81 0 112-3zm1.92 10.69l.62.43 1.89-2.72a1.81 1.81 0 013 2.07l-2.92 4.2a1.81 1.81 0 01-2.52.46l-2.1-1.46a1.81 1.81 0 112-3zm23.73 6.24a1.81 1.81 0 11.64 3.56l-11.57 2.08a1.81 1.81 0 11-.64-3.56zm-21.81 4.45l.62.43 1.89-2.71a1.81 1.81 0 113 2.06l-2.92 4.21a1.81 1.81 0 01-2.52.45l-2.1-1.46a1.81 1.81 0 012.07-3z"/>
  <path fill="#dad6e7" d="M1547.92 569l19.61-3.52a1.8 1.8 0 012.1 1.46l2.4 13.37a1.82 1.82 0 01-1.46 2.1L1551 586l1.93 10.73a38 38 0 0130.84 9.87 1.81 1.81 0 11-2.47 2.65 34.35 34.35 0 00-27.73-9l1.27 7.08a1.81 1.81 0 01-3.56.64l-1.27-7.08a34.42 34.42 0 00-22.93 18.11 1.81 1.81 0 01-3.23-1.64 38 38 0 0125.48-20l-5.25-29.24a2.72 2.72 0 113.73-.89 2.2 2.2 0 01-.17.25zm20.22 10.16l-1.76-9.8-17.82 3.2 1.76 9.8zm-32.23 40.74a1.81 1.81 0 111.46-2.1 1.8 1.8 0 01-1.46 2.1zm14.65 4.73a3.62 3.62 0 112.92-4.2 3.61 3.61 0 01-2.92 4.2zm-6.56-10.74a2.72 2.72 0 112.19-3.15 2.71 2.71 0 01-2.19 3.15z"/>
  <path fill="#dad6e7" fill-rule="evenodd" d="M1118.18 649.83a1.81 1.81 0 01-.73-3.55h.09l14.25-2.56a1.81 1.81 0 01.72 3.55h-.08l1.87 10.39a18.1 18.1 0 11-14.26 2.56zm26.38 26.44c-3.88 2.58-9 3.21-15.14.68-5.44-2.23-9.5-1.5-12.5.88-.29.24-.57.49-.84.76 1.51 3.67 9.27 12.26 16.59 10.95a14.5 14.5 0 0011.89-13.27zm-.37-4.37a14.49 14.49 0 00-11.75-10.9 1.82 1.82 0 01-1.49-1.47l-2.08-11.6-7.13 1.28 2.08 11.61a1.81 1.81 0 01-.88 1.89 14.51 14.51 0 00-7.29 11.6c3.88-2.58 9-3.21 15.14-.68 5.44 2.23 9.5 1.5 12.5-.88a8.85 8.85 0 00.9-.83zm22.42-28.9a1.81 1.81 0 11.64 3.56l-10.69 1.92a1.81 1.81 0 11-.64-3.56zm1.28 7.13a1.81 1.81 0 01.64 3.56l-10.69 1.92a1.81 1.81 0 11-.72-3.55h.08zm1.28 7.12a1.81 1.81 0 01.64 3.57l-10.69 1.92a1.81 1.81 0 11-.72-3.55h.08zm-18.85-7.65l-3.71.67-4.69 6.74a1.81 1.81 0 01-3-2.07l5.12-7.35a1.75 1.75 0 011.17-.75l4.45-.8a1.81 1.81 0 01.64 3.56z"/>
  <path fill="#dad6e7" d="M1838.6 553l19.19 13.34a1.81 1.81 0 01-2.07 3L1836.53 556a25.33 25.33 0 112.07-3zm-17.95 8.43a21.72 21.72 0 10-25.23-17.54 21.71 21.71 0 0025.23 17.54zm-12.75-19.78a9 9 0 012.28-7.76 9.07 9.07 0 01-4.84-6.49l-.32-1.78a1.81 1.81 0 011.46-2.1l14.26-2.56a1.8 1.8 0 012.1 1.46l.32 1.78a9 9 0 01-2.28 7.77 9 9 0 014 12.15 8.77 8.77 0 01-1.46 2.1 9 9 0 014.84 6.49l.32 1.78a1.8 1.8 0 01-1.46 2.1l-14.25 2.56a1.81 1.81 0 01-2.11-1.46l-.32-1.78a9.05 9.05 0 012.29-7.77 9 9 0 01-4.83-6.49zm1-14.9a5.43 5.43 0 0010.69-1.92zm5.12 28.52l10.7-1.92a5.44 5.44 0 00-10.7 1.92zm7.51-17.9a5.44 5.44 0 00-10.09 1.81zm-9.45 5.37a5.44 5.44 0 0010.09-1.81z"/>
  <path fill="#dad6e7" fill-rule="evenodd" d="M1674.54 577.15l5.94 4.14-7.75 11.14-5.94-4.13zm-11.31 13.09l8.92 6.2a1.8 1.8 0 002.52-.46l9.82-14.12a1.8 1.8 0 00-.45-2.51l-8.92-6.2a1.81 1.81 0 00-2.52.46l-9.82 14.12a1.81 1.81 0 00.45 2.51zM1697.8 543.71l6 4.13L1696 559l-5.94-4.14zm-11.31 13.08l8.92 6.2a1.81 1.81 0 002.52-.45l9.82-14.12a1.81 1.81 0 00-.45-2.52l-8.92-6.2a1.81 1.81 0 00-2.52.45l-9.86 14.12a1.81 1.81 0 00.45 2.52z"/>
  <path fill="#dad6e7" fill-rule="evenodd" d="M1692.44 560.93a1.81 1.81 0 00-3-2.07l-2.06 3a1.81 1.81 0 003 2.07zM1683.13 574.31a1.81 1.81 0 00-3-2.07l-2.07 3a1.81 1.81 0 003 2.07z"/>
  <path fill="#dad6e7" fill-rule="evenodd" d="M1698 573.59l-3.1 4.46-22.3-15.5a1.81 1.81 0 00-2.06 3l23.78 16.54a1.81 1.81 0 002.52-.45l5.17-7.44a1.81 1.81 0 00-.45-2.52l-23.79-16.54a1.81 1.81 0 00-2.11 2.94h.05z"/>
  <path fill="#dad6e7" fill-rule="evenodd" d="M1703.79 578.75l-4.11-2.86a1.81 1.81 0 00-2.07 3l4.11 2.86a3.62 3.62 0 103.91-3.3 3.54 3.54 0 00-1.84.3zM1671.79 551l3 2.07-7.23 10.4-3-2.07zM1661 563.32l5.94 4.14a1.81 1.81 0 002.52-.45l9.31-13.38a1.81 1.81 0 00-.46-2.52l-5.94-4.14a1.82 1.82 0 00-2.53.46l-9.3 13.37a1.81 1.81 0 00.46 2.52z"/>
  <path fill="#dad6e7" d="M1261.06 668.86a6.32 6.32 0 004.42-3.38c.67-1.07 1-1.5 1.85-1.66s1.31.15 2.31.91a6.08 6.08 0 008.59-.11 6.22 6.22 0 001.15-1.64c.67-1.06 1-1.5 1.82-1.65s1.31.15 2.3.9a6.28 6.28 0 005.32 1.64 6.43 6.43 0 004.45-3.39c.67-1.06 1-1.5 1.84-1.65s1.31.15 2.3.91a6.27 6.27 0 005.32 1.63 1.92 1.92 0 10-.64-3.79c-.87.16-1.31-.14-2.31-.9a7.29 7.29 0 00-3.46-1.68l1.16-11.68a1.93 1.93 0 00-1.46-2.06l-7-1.71-2.24-12.45a1.92 1.92 0 00-2.23-1.55l-3.79.68-1-5.68a1.92 1.92 0 00-2.23-1.55l-7.58 1.36a1.92 1.92 0 00-1.55 2.23l1 5.68-3.79.68a1.93 1.93 0 00-1.55 2.24l2.23 12.44-5.93 4a1.92 1.92 0 00-.65 2.44l5.18 10.54a7.28 7.28 0 00-2.67 2.78c-.67 1.06-1 1.5-1.85 1.66a1.92 1.92 0 00.68 3.78zm31.24-13a7.74 7.74 0 00-2.3 2.56c-.67 1.06-1 1.5-1.84 1.65s-1.3-.15-2.3-.91a7.41 7.41 0 00-3.38-1.66l-2.93-16.33 13.9 3.41zm-19.79-32.07l3.79-.68.68 3.79-3.79.68zm-4.32 8.59l15.15-2.72 1.59 8.87-7.35-1.8a1.86 1.86 0 00-1.54.28l-6.26 4.24zm7.56 9.47l2.94 16.34a7.37 7.37 0 00-2.57 2.72c-.66 1.06-1 1.5-1.84 1.65s-1.31-.14-2.31-.91a7.9 7.9 0 00-3.08-1.6l-5-10.17zM1343.43 346.23l1.75-2.52a1.81 1.81 0 013 2.07l-4.39 6.31a1.81 1.81 0 01-2.52.45l-6.31-4.39a1.81 1.81 0 112.07-3l2.85 2a25.35 25.35 0 0139.77-22.84 1.81 1.81 0 01-2.07 3 21.73 21.73 0 00-34.13 18.94zm43.4-2.25l-1.75 2.52a1.81 1.81 0 01-3-2.06l4.39-6.31a1.81 1.81 0 012.52-.45l6.3 4.38a1.81 1.81 0 01-2.06 3l-2.86-2a25.35 25.35 0 01-39.73 22.87 1.81 1.81 0 012.06-3 21.73 21.73 0 0034.11-19zm-13.59-4.93a1.81 1.81 0 012 2.5l-7.81 18a1.82 1.82 0 01-3.45-.4l-1.6-8.91-5.34 1a1.8 1.8 0 01-2.1-1.46 1.75 1.75 0 01.09-1l7.47-19.78a1.81 1.81 0 013.47.32l1.93 10.68zm-2.69 4.16l-3.8.69a1.82 1.82 0 01-2.1-1.47l-1.09-6-4 10.64 4-.71a1.81 1.81 0 012.1 1.46l.86 4.81zM1262.67 385a1.81 1.81 0 01-.48 2.52 1.78 1.78 0 01-.7.28l-57 10.25a1.82 1.82 0 01-2.1-1.47 1.73 1.73 0 010-.75l4.16-16.94-4.42-24.57a3.62 3.62 0 012.93-4.2l39.2-7a3.62 3.62 0 014.2 2.92l4.41 24.57zm-13.61-15.2l-4.16-23.16-39.2 7 4.16 23.16zm-4.74 17.41l13.79-2.48-7.78-11.48-40.46 7.27-3.3 13.47 13.8-2.48 1-7.2a1.83 1.83 0 011.48-1.53l16-2.88a1.8 1.8 0 011.91.92zm-19.51-1.09l-.69 4.72 16.44-3-2.29-4.18z"/>
  <path fill="#dad6e7" fill-rule="evenodd" d="M1478.18 303.7a1.81 1.81 0 01-.72-3.55h.08l14.26-2.56a1.81 1.81 0 01.64 3.56l1.87 10.39a18.1 18.1 0 11-14.26 2.56zm26.39 26.44c-3.88 2.59-9 3.21-15.14.69-5.44-2.23-9.5-1.5-12.5.88a7.49 7.49 0 00-.84.75c1.5 3.67 9.27 12.26 16.58 11a14.49 14.49 0 0011.9-13.26zm-.37-4.37a14.5 14.5 0 00-11.75-10.92 1.82 1.82 0 01-1.49-1.46l-2.08-11.61-7.13 1.28 2.08 11.61a1.81 1.81 0 01-.88 1.89 14.49 14.49 0 00-7.29 11.6c3.88-2.58 9-3.21 15.14-.68 5.43 2.23 9.5 1.5 12.49-.88a10.2 10.2 0 00.91-.82zm22.42-28.93a1.81 1.81 0 01.64 3.56l-10.69 1.92a1.81 1.81 0 11-.72-3.54h.08zm1.28 7.13a1.81 1.81 0 01.64 3.56l-10.69 1.92a1.81 1.81 0 11-.72-3.55h.08zm1.28 7.13a1.81 1.81 0 01.64 3.56l-10.69 1.92a1.81 1.81 0 11-.72-3.55h.08zm-18.85-7.65l-3.72.66-4.69 6.75a1.81 1.81 0 01-3-2.07l5.12-7.36a1.75 1.75 0 011.17-.75l4.45-.8a1.81 1.81 0 11.72 3.55h-.08z"/>
  <path fill="#dad6e7" d="M1091.17 422.06l-2.69-23.68-.9.7c-.87.66-1.71 1.28-2.53 1.87-6.81 4.91-10.74 6.82-12.88 4.29-2-2.33 0-5.43 4.8-10.39.87-.9 1.82-1.84 2.84-2.82 1.65-1.57 3.43-3.18 5.26-4.77l.58-.5-.28-1.7c-.38-2.38-.7-4.71-.95-6.91-1-9-.73-13.61 2.64-14.22s5.22 3.67 7.41 12.42c.54 2.14 1 4.44 1.52 6.81.12.6.23 1.15.33 1.68l.72.27c2.27.86 4.49 1.74 6.59 2.65 1.3.56 2.52 1.11 3.64 1.65 6.21 3 9.15 5.2 8.12 8.07-1.13 3.12-5.47 2.7-13.57.46-1-.27-2-.56-3-.88l-1.09-.33 5.72 23.13 22.38-4a1.81 1.81 0 01.73 3.55h-.09l-57 10.25a1.81 1.81 0 01-.64-3.57zm3.57-.64l5.11-.92-6.2-25.11-.77-.27-.23-.08-.19.16-.64.52zm-2.88-30.76a1.81 1.81 0 10-2.1-1.46 1.8 1.8 0 002.1 1.46zm.51-7.15c-.44-2.19-.91-4.31-1.41-6.28a50.9 50.9 0 00-2.38-7.55 10.72 10.72 0 00-.77-1.51 13.49 13.49 0 00-.19 1.68 52.15 52.15 0 00.4 7.9c.23 2 .52 4.18.87 6.38a5.4 5.4 0 013.48-.62zm3.4 8.77c1.37.46 2.74.9 4.09 1.32 1 .3 2 .59 2.92.85A46.26 46.26 0 001110 396a10.39 10.39 0 001.37.06 6.27 6.27 0 00-.52-.43 33.65 33.65 0 00-5.12-2.92c-1.07-.51-2.24-1.05-3.5-1.59-1.67-.71-3.42-1.43-5.22-2.12a5.43 5.43 0 01-1.2 3.33zm-9.3-1.44c-1.45 1.28-2.85 2.56-4.16 3.81-1 .94-1.9 1.85-2.73 2.71a32 32 0 00-3.78 4.52 6.17 6.17 0 00-.34.58 10.75 10.75 0 001.27-.54 44.89 44.89 0 006.2-3.91c.79-.57 1.6-1.17 2.44-1.81 1.13-.86 2.25-1.75 3.38-2.66a5.43 5.43 0 01-2.28-2.7z"/>
  <path fill="#dad6e7" fill-rule="evenodd" d="M1790.06 247.77a1.81 1.81 0 011.47-2.1l7.13-1.29a1.82 1.82 0 012.1 1.47l7.52 41.88a1.8 1.8 0 010 .83l-2.28 7.77a1.82 1.82 0 01-2.25 1.22 1.87 1.87 0 01-.94-.65l-4.84-6.49a1.86 1.86 0 01-.34-.76zm13.44 44.06l1.14-3.89-.4-2.25-3.57.64.4 2.25zm.1-9.7l-4.8-26.74-3.57.65 4.8 26.73zm-9-29.66l3.57-.64-.64-3.56-3.57.64zm-20.88-3.61l3.56-.64a3.63 3.63 0 014.21 2.92l8.16 45.44a3.63 3.63 0 01-2.93 4.21l-33.85 6.08a3.63 3.63 0 01-4.21-2.92l-8.16-45.43a3.62 3.62 0 012.92-4.21l3.56-.64-.16-.9a3.62 3.62 0 012.92-4.2l4.14-.74a8.22 8.22 0 01.48-1.19 6.33 6.33 0 018.51-2.81 6 6 0 011.47 1 7.84 7.84 0 01.87 1l4.13-.75a3.63 3.63 0 014.21 2.92zm-29.65 9l8.16 45.44 33.85-6.08-8.16-45.44-3.56.64.16.89a3.61 3.61 0 01-2.92 4.2l-19.6 3.54a3.62 3.62 0 01-4.2-2.93l-.16-.89zm26.88-3.91l-1-5.35-5.34 1a1.8 1.8 0 01-2-1 3.49 3.49 0 00-.8-1 2.7 2.7 0 00-3.83.13 2.47 2.47 0 00-.44.63 3.7 3.7 0 00-.39 1.26 1.81 1.81 0 01-1.48 1.66l-5.35 1 1 5.34zm3.7 10.37a1.81 1.81 0 11.64 3.57l-11.58 2.11a1.81 1.81 0 11-.64-3.57zm1.93 10.69a1.81 1.81 0 01.64 3.57l-11.58 2.08a1.81 1.81 0 01-.64-3.57zm-23.73-6.23l.61.43 1.9-2.72a1.81 1.81 0 013 2.07l-2.93 4.2a1.8 1.8 0 01-2.51.45l-2.11-1.46a1.81 1.81 0 012.07-3zm1.92 10.69l.62.43 1.89-2.72a1.81 1.81 0 013 2v.06l-2.93 4.2a1.8 1.8 0 01-2.51.45l-2.11-1.46a1.81 1.81 0 012.07-3zm23.73 6.24a1.81 1.81 0 01.64 3.56l-11.58 2.08a1.81 1.81 0 01-.64-3.56zm-21.81 4.45l.62.43 1.89-2.72a1.81 1.81 0 013 2.07l-2.93 4.2a1.8 1.8 0 01-2.51.46l-2.1-1.46a1.81 1.81 0 112.07-3z"/>
  <path fill="#dad6e7" d="M1907.93 222.91l19.61-3.52a1.8 1.8 0 012.09 1.46l2.4 13.37a1.82 1.82 0 01-1.46 2.1l-19.57 3.52 1.93 10.74a38 38 0 0130.83 9.86 1.81 1.81 0 01-2.41 2.7 34.4 34.4 0 00-27.73-9l1.27 7.09a1.81 1.81 0 11-3.56.64l-1.27-7.09a34.42 34.42 0 00-22.89 18 1.81 1.81 0 01-3.23-1.63 38 38 0 0125.48-20l-5.34-29.15a2.72 2.72 0 113.74-.9 2.33 2.33 0 01-.17.26zm20.22 10.17l-1.76-9.8-17.82 3.2 1.76 9.8zm-32.23 40.74a1.81 1.81 0 111.46-2.1 1.8 1.8 0 01-1.46 2.1zm14.65 4.73a3.62 3.62 0 112.92-4.21 3.63 3.63 0 01-2.92 4.21zm-6.57-10.79a2.71 2.71 0 112.19-3.15 2.7 2.7 0 01-2.19 3.15zM1621.07 322.73a6.32 6.32 0 004.42-3.38c.67-1.06 1-1.5 1.84-1.65s1.32.14 2.32.91a6.08 6.08 0 008.59-.11 5.87 5.87 0 001.14-1.65c.67-1.06 1-1.49 1.83-1.65s1.31.15 2.3.91a6.28 6.28 0 005.32 1.63 6.36 6.36 0 004.44-3.38c.67-1.06 1-1.5 1.85-1.65s1.3.14 2.3.9a6.26 6.26 0 005.32 1.64 1.93 1.93 0 00-.69-3.79c-.86.16-1.3-.15-2.3-.91a7.18 7.18 0 00-3.46-1.67l1.16-11.69a1.94 1.94 0 00-1.46-2.06l-7-1.71-2.2-12.42a1.92 1.92 0 00-2.23-1.56l-3.79.68-1-5.68a1.92 1.92 0 00-2.23-1.55l-7.58 1.36a1.92 1.92 0 00-1.55 2.23l1 5.68-3.79.68a1.92 1.92 0 00-1.55 2.23l2.23 12.44-5.93 4a1.9 1.9 0 00-.78 1.1 1.94 1.94 0 00.13 1.34l5.18 10.55a7.39 7.39 0 00-2.67 2.77c-.67 1.07-1 1.5-1.85 1.66a1.93 1.93 0 00.68 3.79zm31.24-13a7.84 7.84 0 00-2.3 2.56c-.67 1.06-1 1.5-1.84 1.65s-1.3-.14-2.3-.9a7.41 7.41 0 00-3.38-1.66l-2.93-16.33 13.9 3.41zm-19.79-32.07l3.78-.68.69 3.79-3.79.68zm-4.32 8.6l15.15-2.72 1.59 8.86-7.35-1.8a2 2 0 00-.8 0 1.78 1.78 0 00-.74.3l-6.26 4.24zm7.56 9.46l2.94 16.35a7.37 7.37 0 00-2.57 2.72c-.66 1.05-1 1.5-1.84 1.65s-1.31-.15-2.31-.91a7.71 7.71 0 00-3.08-1.6l-5-10.17zM1473.29 477.9l19.19 13.34a1.81 1.81 0 01-2.07 3l-19.19-13.34a25.32 25.32 0 112.07-3zm-18 8.43a21.72 21.72 0 10-25.22-17.54 21.73 21.73 0 0025.22 17.54zm-12.75-19.78a9 9 0 012.28-7.77 9 9 0 01-4.84-6.49l-.32-1.78a1.81 1.81 0 011.46-2.1l14.26-2.56a1.82 1.82 0 012.1 1.46l.32 1.78a9.06 9.06 0 01-2.28 7.77 9.07 9.07 0 014 12.16 9.29 9.29 0 01-1.46 2.1 9 9 0 014.84 6.49l.32 1.78a1.81 1.81 0 01-1.46 2.1l-14.26 2.56a1.81 1.81 0 01-2.1-1.46l-.32-1.78a9.06 9.06 0 012.28-7.77 9.07 9.07 0 01-4.84-6.49zm1-14.9a5.43 5.43 0 0010.72-1.79v-.13zm5.12 28.51l10.7-1.92a5.43 5.43 0 00-10.72 1.78c.06.05.06.1.07.14zm7.51-17.9a5.43 5.43 0 00-10.08 1.81zm-9.44 5.38a5.43 5.43 0 0010.08-1.82zM1592.81 472.67l-2.69-23.67-.91.7c-.86.65-1.7 1.28-2.52 1.87-6.82 4.91-10.74 6.82-12.88 4.28-2-2.32 0-5.42 4.8-10.38.87-.9 1.82-1.84 2.84-2.82 1.65-1.58 3.43-3.18 5.26-4.77.2-.17.38-.34.58-.5l-.28-1.7c-.38-2.38-.7-4.71-1-6.91-1-9-.73-13.61 2.64-14.22s5.22 3.67 7.41 12.42c.54 2.14 1.05 4.44 1.52 6.8.12.6.23 1.16.33 1.69l.72.27c2.27.86 4.49 1.74 6.59 2.64 1.3.56 2.52 1.12 3.64 1.66 6.2 3 9.15 5.2 8.11 8.06-1.12 3.12-5.46 2.7-13.56.47-1-.26-2-.56-3-.88l-1.09-.34 5.72 23.14 22.39-4a1.81 1.81 0 01.64 3.56l-57 10.24a1.81 1.81 0 01-.64-3.56zm3.57-.64l5.11-.92-6.2-25.1-.78-.27-.23-.08-.18.15-.64.53zm-2.88-30.75a1.81 1.81 0 10-2.1-1.47 1.8 1.8 0 002.09 1.46zm.51-7.15c-.44-2.19-.92-4.31-1.41-6.29a52.37 52.37 0 00-2.38-7.54 12.68 12.68 0 00-.76-1.52 10.66 10.66 0 00-.19 1.69 50.89 50.89 0 00.4 7.9c.22 2 .51 4.18.86 6.38a5.47 5.47 0 013.48-.63zm3.4 8.77c1.37.46 2.74.9 4.09 1.31 1 .31 2 .6 2.92.86a46.38 46.38 0 007.17 1.5 10.62 10.62 0 001.38.06c-.15-.13-.32-.27-.52-.42a32 32 0 00-5.12-2.92c-1.07-.52-2.24-1.05-3.5-1.59-1.67-.72-3.42-1.43-5.22-2.12a5.42 5.42 0 01-1.2 3.32zm-9.3-1.44q-2.17 1.92-4.16 3.81c-1 .94-1.9 1.85-2.73 2.71a32.54 32.54 0 00-3.77 4.51c-.14.21-.25.4-.35.58a11 11 0 001.27-.53 44.3 44.3 0 006.2-3.91c.79-.57 1.61-1.18 2.45-1.82 1.12-.85 2.25-1.74 3.38-2.65a5.4 5.4 0 01-2.29-2.7zM1845.07 396.85l1.75-2.52a1.81 1.81 0 013 2.07l-4.38 6.3a1.81 1.81 0 01-2.52.46l-6.31-4.39a1.81 1.81 0 112.07-3l2.85 2a25.35 25.35 0 0139.77-22.84 1.81 1.81 0 11-2.07 3 21.73 21.73 0 00-34.13 18.94zm43.4-2.25l-1.75 2.52a1.81 1.81 0 11-3-2 .25.25 0 010-.07l4.38-6.3a1.81 1.81 0 012.52-.45l6.31 4.38a1.81 1.81 0 11-2 3l-2.85-2a25.35 25.35 0 01-39.74 22.87 1.81 1.81 0 012.07-3 21.72 21.72 0 0034.1-19zm-13.59-4.93a1.82 1.82 0 012 2.5l-7.82 18a1.81 1.81 0 01-3.44-.4l-1.6-8.91-5.34 1a1.82 1.82 0 01-2.11-1.46 1.79 1.79 0 01.09-1l7.49-19.74a1.83 1.83 0 012.34-1.05 1.85 1.85 0 011.14 1.37l1.92 10.7zm-2.69 4.16l-3.8.68a1.8 1.8 0 01-2.1-1.46l-1.08-6-4 10.64 4-.71a1.81 1.81 0 012.1 1.46l.86 4.81zM1764.31 435.57a1.8 1.8 0 01-.48 2.51 1.66 1.66 0 01-.7.29l-57 10.24a1.8 1.8 0 01-2.1-1.46 1.73 1.73 0 010-.75l4.16-16.94-4.42-24.57a3.62 3.62 0 012.93-4.2l39.2-7.05a3.63 3.63 0 014.2 2.93l4.41 24.57zm-13.61-15.2l-4.16-23.16-39.2 7 4.16 23.16zm-4.7 17.41l13.79-2.48-7.79-11.48-40.46 7.27-3.3 13.47 13.8-2.48 1-7.21a1.83 1.83 0 011.47-1.52l16-2.88a1.8 1.8 0 011.91.92zm-19.51-1.09l-.69 4.72 16.44-3-2.28-4.18z"/>
  <path fill="#dad6e7" fill-rule="evenodd" d="M1309.23 502l5.94 4.14-7.75 11.15-6-4.14zm-11.31 13.09l8.92 6.2a1.81 1.81 0 002.52-.45l9.82-14.12a1.81 1.81 0 00-.45-2.52l-8.92-6.2a1.81 1.81 0 00-2.52.45l-9.82 14.12a1.81 1.81 0 00.45 2.56zM1332.49 468.6l5.94 4.14-7.75 11.14-6-4.13zm-11.31 13.09l8.92 6.2a1.81 1.81 0 002.52-.45l9.82-14.13a1.81 1.81 0 00-.45-2.52l-8.92-6.2a1.8 1.8 0 00-2.52.46l-9.82 14.12a1.81 1.81 0 00.45 2.52z"/>
  <path fill="#dad6e7" fill-rule="evenodd" d="M1327.12 485.82a1.81 1.81 0 00-3-2.07l-2.07 3a1.81 1.81 0 003 2.06zM1317.82 499.2a1.81 1.81 0 00-3-2.07l-2.07 3a1.81 1.81 0 103 2.06z"/>
  <path fill="#dad6e7" fill-rule="evenodd" d="M1332.65 498.49l-3.1 4.46-22.3-15.51a1.81 1.81 0 10-2.07 3L1329 507a1.81 1.81 0 002.52-.45l5.17-7.43a1.8 1.8 0 00-.46-2.52l-23.81-16.6a1.81 1.81 0 10-2.07 3z"/>
  <path fill="#dad6e7" fill-rule="evenodd" d="M1338.48 503.64l-4.12-2.86a1.81 1.81 0 00-2.06 3l4.11 2.86a3.62 3.62 0 102.07-3zM1306.48 475.87l3 2.07-7.24 10.4-3-2.06zm-10.79 12.35l5.94 4.13a1.81 1.81 0 002.52-.45l9.3-13.38a1.81 1.81 0 00-.45-2.52l-6-4.14a1.81 1.81 0 00-2.52.46l-9.3 13.38a1.81 1.81 0 00.46 2.52zM1064.74 518.78a1.82 1.82 0 011.46-2.1l7.13-1.28a1.81 1.81 0 012.1 1.46l7.52 41.88a1.83 1.83 0 010 .84l-2.28 7.76a1.82 1.82 0 01-2.25 1.23 1.79 1.79 0 01-.94-.65l-4.85-6.49a2 2 0 01-.33-.76zm13.44 44.07l1.14-3.89-.4-2.25-3.57.64.4 2.25zm.1-9.7l-4.8-26.74-3.57.64 4.8 26.74zm-9-29.66l3.56-.64-.64-3.56-3.56.64zm-20.88-3.61l3.55-.64a3.62 3.62 0 014.21 2.92l8.16 45.43a3.64 3.64 0 01-2.93 4.22l-33.85 6.08a3.63 3.63 0 01-4.21-2.92l-8.16-45.43a3.62 3.62 0 012.91-4.21l3.55-.63-.16-.9a3.62 3.62 0 012.93-4.19l4.14-.74a8.22 8.22 0 01.48-1.19 6.33 6.33 0 018.51-2.81 6.45 6.45 0 011.47 1 7.76 7.76 0 01.86 1l4.14-.75a3.62 3.62 0 014.2 2.92zm-29.65 9l8.15 45.44 33.86-6.07-8.16-45.44-3.56.63.16.9a3.63 3.63 0 01-2.93 4.2l-19.6 3.52a3.62 3.62 0 01-4.2-2.92l-.16-.9zm26.88-3.91l-1-5.34-5.34 1a1.82 1.82 0 01-2-1 3.63 3.63 0 00-.79-1 2.72 2.72 0 00-3.84.14 2.84 2.84 0 00-.44.63 3.63 3.63 0 00-.38 1.25 1.81 1.81 0 01-1.48 1.66l-5.35 1 1 5.35zm3.7 10.38a1.81 1.81 0 01.64 3.56l-11.59 2.09a1.81 1.81 0 01-.64-3.57zm1.92 10.69a1.81 1.81 0 01.64 3.56l-11.57 2.08a1.81 1.81 0 01-.73-3.55h.09zm-23.73-6.24l.62.43 1.89-2.72a1.81 1.81 0 113 2v.05l-2.92 4.2a1.81 1.81 0 01-2.52.46l-2.1-1.46a1.81 1.81 0 112.06-3zm1.92 10.7l.62.43 1.89-2.72a1.81 1.81 0 013 2.06l-2.92 4.2a1.81 1.81 0 01-2.52.46l-2.1-1.47a1.81 1.81 0 012.07-3zm23.73 6.23a1.81 1.81 0 11.72 3.55h-.08l-11.57 2.08a1.81 1.81 0 11-.72-3.55h.08zm-21.81 4.46l.62.43 1.89-2.72a1.81 1.81 0 013 2.07l-2.92 4.2a1.81 1.81 0 01-2.52.45l-2.1-1.46a1.81 1.81 0 112-3z"/>
  <path fill="#dad6e7" d="M1182.61 493.93l19.6-3.52a1.81 1.81 0 012.1 1.46l2.4 13.37a1.81 1.81 0 01-1.46 2.1l-19.6 3.52 1.93 10.73a38 38 0 0130.83 9.87 1.81 1.81 0 01-2.46 2.66 34.4 34.4 0 00-27.73-9l1.27 7.08a1.81 1.81 0 11-3.55.73v-.09l-1.28-7.08a34.42 34.42 0 00-22.88 18.05 1.81 1.81 0 11-3.23-1.63 38 38 0 0125.47-20l-5.26-29.18a2.71 2.71 0 113.74-.89 2.2 2.2 0 01-.17.25zm20.22 10.17l-1.76-9.8-17.82 3.2 1.76 9.8zm-32.23 40.74a1.81 1.81 0 111.46-2.11 1.81 1.81 0 01-1.46 2.11zm14.65 4.73a3.62 3.62 0 112.92-4.21 3.63 3.63 0 01-2.92 4.2zm-6.54-10.79a2.71 2.71 0 112.19-3.15 2.7 2.7 0 01-2.19 3.15z"/>
  <path fill="#dad6e7" fill-rule="evenodd" d="M549.21 468.05a1.79 1.79 0 011.46-2.1l7.13-1.28a1.8 1.8 0 012.1 1.46l7.52 41.87a1.8 1.8 0 010 .83l-2.28 7.77a1.81 1.81 0 01-2.25 1.22 1.87 1.87 0 01-.94-.65l-4.84-6.49a1.78 1.78 0 01-.33-.76zm13.43 44.06l1.14-3.89-.4-2.25-3.56.64.4 2.26zm.1-9.7l-4.8-26.73-3.56.64 4.8 26.73zm-9-29.66l3.57-.64-.64-3.56-3.57.64zm-20.88-3.6l3.56-.64a3.61 3.61 0 014.21 2.91l8.16 45.43a3.62 3.62 0 01-2.93 4.21l-33.86 6.1a3.62 3.62 0 01-4.21-2.92l-8.16-45.43a3.62 3.62 0 012.91-4.21l3.56-.64-.16-.89a3.6 3.6 0 012.91-4.2l4.14-.74a8.22 8.22 0 01.48-1.19 6.34 6.34 0 018.53-2.84 6.49 6.49 0 011.47 1 7.76 7.76 0 01.86.95l4.15-.75a3.61 3.61 0 014.19 2.92zm-29.65 9l8.16 45.44 33.85-6.08-8.15-45.44-3.57.64.16.89a3.61 3.61 0 01-2.92 4.2l-19.61 3.52a3.62 3.62 0 01-4.2-2.92l-.16-.89zm26.89-3.91l-1-5.35-5.35 1a1.8 1.8 0 01-2-1 3.82 3.82 0 00-.79-1 2.72 2.72 0 00-3.84.14 2.47 2.47 0 00-.44.63 3.63 3.63 0 00-.38 1.25 1.82 1.82 0 01-1.49 1.66l-5.35 1 1 5.35zm3.69 10.37a1.81 1.81 0 01.64 3.57l-11.57 2.07a1.81 1.81 0 11-.64-3.56zm1.93 10.69a1.81 1.81 0 01.72 3.55h-.08L524.77 501a1.81 1.81 0 01-.64-3.57zM512 489.07l.61.42 1.89-2.71a1.81 1.81 0 113 2l-2.93 4.21a1.81 1.81 0 01-2.52.45l-2.1-1.46a1.81 1.81 0 012-3h.05zm1.92 10.69l.61.43 1.89-2.72a1.81 1.81 0 013 2.07l-2.93 4.2a1.81 1.81 0 01-2.52.45l-2.1-1.46a1.81 1.81 0 012-3zm23.7 6.24a1.81 1.81 0 11.73 3.55h-.09l-11.57 2.08a1.81 1.81 0 01-.64-3.56zm-21.8 4.46l.61.42 1.89-2.71a1.81 1.81 0 113 2l-2.92 4.2a1.81 1.81 0 01-2.52.46l-2.1-1.47a1.81 1.81 0 012.07-3z"/>
  <path fill="#dad6e7" d="M667.07 443.2l19.61-3.52a1.8 1.8 0 012.1 1.46l2.4 13.37a1.81 1.81 0 01-1.46 2.1l-19.61 3.52 1.89 10.73a38 38 0 0130.84 9.87 1.81 1.81 0 01-2.46 2.65 34.43 34.43 0 00-27.74-8.95l1.27 7.08a1.81 1.81 0 11-3.54.72v-.08l-1.27-7.08a34.4 34.4 0 00-22.88 18.05 1.81 1.81 0 01-3.24-1.63 38 38 0 0125.47-20l-5.25-29.24a2.72 2.72 0 113.74-.89l-.18.25zm20.23 10.16l-1.76-9.8-17.82 3.2 1.76 9.8zm-32.24 40.74a1.81 1.81 0 111.47-2.1 1.82 1.82 0 01-1.46 2.1zm14.65 4.73a3.62 3.62 0 112.93-4.21 3.63 3.63 0 01-2.93 4.2zM663.17 488a2.71 2.71 0 112.2-3.15 2.7 2.7 0 01-2.2 3.15zM102.57 566.51l1.76-2.52a1.81 1.81 0 113 2.07l-4.39 6.31a1.81 1.81 0 01-2.52.45l-6.3-4.39a1.81 1.81 0 012.06-3l2.86 2a25.35 25.35 0 0139.76-22.85 1.81 1.81 0 01-2.07 3 21.73 21.73 0 00-34.13 18.94zm43.4-2.24l-1.75 2.52a1.81 1.81 0 01-3-2.07l4.38-6.31a1.81 1.81 0 012.52-.45l6.31 4.39a1.81 1.81 0 01-2.07 3l-2.85-2a25.35 25.35 0 01-39.71 22.85 1.81 1.81 0 112.07-3 21.73 21.73 0 0034.1-19zm-13.59-4.94a1.81 1.81 0 012.1 1.47 1.73 1.73 0 01-.12 1l-7.81 18a1.81 1.81 0 01-3.44-.4l-1.6-8.91-5.35 1a1.81 1.81 0 01-2.1-1.46 1.78 1.78 0 01.09-1l7.49-19.74a1.82 1.82 0 012.34-1 1.85 1.85 0 011.14 1.38L127 560.3zm-2.69 4.17l-3.8.68a1.82 1.82 0 01-2.1-1.46l-1.08-6-4 10.64 4-.72a1.82 1.82 0 012.1 1.46l.86 4.81z"/>
  <path fill="#dad6e7" fill-rule="evenodd" d="M237.33 524a1.81 1.81 0 11-.72-3.55h.08l14.31-2.59a1.81 1.81 0 01.64 3.56l1.86 10.4a18.12 18.12 0 11-14.25 2.56zm26.38 26.45c-3.87 2.58-9 3.21-15.14.68-5.43-2.23-9.5-1.5-12.49.88a8.72 8.72 0 00-.84.76c1.5 3.67 9.27 12.25 16.58 10.94a14.48 14.48 0 0011.89-13.28zm-.37-4.37a14.48 14.48 0 00-11.74-10.92 1.82 1.82 0 01-1.49-1.47L248 522.06l-7.12 1.28 2.08 11.6a1.82 1.82 0 01-.88 1.9 14.47 14.47 0 00-7.29 11.6c3.88-2.59 9-3.21 15.14-.69 5.44 2.23 9.5 1.5 12.49-.88a8.66 8.66 0 00.9-.81zm22.42-28.94a1.81 1.81 0 11.72 3.55h-.07l-10.7 1.92a1.81 1.81 0 01-.72-3.55h.08zm1.29 7.13a1.81 1.81 0 01.64 3.56L277 529.74a1.81 1.81 0 01-.71-3.55h.07zm1.28 7.13a1.81 1.81 0 01.64 3.56l-10.7 1.92a1.81 1.81 0 01-.72-3.55h.08zm-18.85-7.65l-3.72.67-4.69 6.74a1.81 1.81 0 01-3-2.07l5.11-7.36a1.88 1.88 0 011.17-.75l4.46-.8a1.81 1.81 0 01.72 3.55h-.08z"/>
  <path fill="#dad6e7" d="M957.76 427.16l19.18 13.34a1.81 1.81 0 01-2.07 3l-19.18-13.34a25.33 25.33 0 112.07-3zm-18 8.43a21.72 21.72 0 10-25.23-17.54 21.72 21.72 0 0025.23 17.54zM927 415.81a9.08 9.08 0 012.29-7.77 9.06 9.06 0 01-4.85-6.49l-.32-1.78a1.82 1.82 0 011.47-2.1l14.25-2.56a1.82 1.82 0 012.1 1.46l.32 1.78a9 9 0 01-2.28 7.77 9.06 9.06 0 014 12.16 9.52 9.52 0 01-1.46 2.1 9 9 0 014.84 6.49l.32 1.78a1.81 1.81 0 01-1.46 2.1L932 433.31a1.82 1.82 0 01-2.11-1.46l-.32-1.78a9.07 9.07 0 012.29-7.77 9.06 9.06 0 01-4.81-6.49zm1-14.9a5.44 5.44 0 1010.7-1.92zm5.13 28.51l10.69-1.92a5.43 5.43 0 00-10.69 1.92zm7.5-17.9a5.43 5.43 0 00-10.08 1.82zm-9.44 5.38a5.43 5.43 0 0010.08-1.81z"/>
  <path fill="#dad6e7" fill-rule="evenodd" d="M793.69 451.31l5.95 4.13-7.75 11.15-5.95-4.13zm-11.31 13.09l8.92 6.2a1.81 1.81 0 002.52-.45l9.83-14.15a1.82 1.82 0 00-.46-2.52l-8.92-6.2a1.81 1.81 0 00-2.52.45l-9.82 14.12a1.81 1.81 0 00.45 2.52zM817 417.86l5.9 4.14-7.75 11.15-5.95-4.15zM805.65 431l8.91 6.2a1.81 1.81 0 002.52-.45l9.82-14.12a1.82 1.82 0 00-.45-2.53l-8.92-6.2a1.82 1.82 0 00-2.52.45l-9.82 14.12a1.81 1.81 0 00.45 2.52z"/>
  <path fill="#dad6e7" fill-rule="evenodd" d="M811.59 435.08a1.81 1.81 0 10-3-2.06l-2.07 3a1.81 1.81 0 003 2.07zM802.29 448.46a1.81 1.81 0 00-3-2.06l-2.06 3a1.81 1.81 0 102.93 2.12v-.06z"/>
  <path fill="#dad6e7" fill-rule="evenodd" d="M817.12 447.75l-3.1 4.46-22.3-15.51a1.81 1.81 0 00-2.07 3l23.78 16.55a1.83 1.83 0 002.53-.46l5.17-7.43a1.81 1.81 0 00-.46-2.52l-23.78-16.54a1.81 1.81 0 10-2.07 3z"/>
  <path fill="#dad6e7" fill-rule="evenodd" d="M822.94 452.9l-4.11-2.9a1.81 1.81 0 00-2.07 3l4.12 2.86a3.62 3.62 0 103.9-3.3 3.66 3.66 0 00-1.84.33zM790.94 425.14l3 2.06-7.23 10.4-3-2.06zm-10.79 12.34l6 4.13a1.8 1.8 0 002.52-.45l9.3-13.38a1.81 1.81 0 00-.45-2.52l-6-4.13a1.81 1.81 0 00-2.52.45L779.7 435a1.81 1.81 0 00.45 2.52z"/>
  <path fill="#dad6e7" d="M380.21 543a6.28 6.28 0 004.42-3.38c.67-1.06 1-1.5 1.85-1.65s1.31.14 2.31.91a6.09 6.09 0 009.74-1.76c.67-1.06 1-1.5 1.83-1.64s1.3.14 2.3.9a6.1 6.1 0 009.76-1.76c.67-1.06 1-1.5 1.84-1.65s1.31.15 2.3.91a6.24 6.24 0 005.32 1.63 1.92 1.92 0 00-.68-3.78c-.87.15-1.31-.15-2.3-.91a7.28 7.28 0 00-3.47-1.68l1.16-11.68a1.91 1.91 0 00-1.46-2.06l-7-1.71-2.24-12.45a1.92 1.92 0 00-2.23-1.55l-3.79.68-1-5.68a1.92 1.92 0 00-2.23-1.55l-7.58 1.36a1.91 1.91 0 00-1.55 2.23l1 5.68-3.79.68a1.93 1.93 0 00-1.55 2.24l2.23 12.44-5.93 4a1.92 1.92 0 00-.65 2.43l5.18 10.55a7.35 7.35 0 00-2.67 2.78c-.67 1.06-1 1.5-1.85 1.65a1.93 1.93 0 00.68 3.79zm31.24-13a7.77 7.77 0 00-2.3 2.57c-.67 1-1 1.49-1.84 1.65s-1.3-.15-2.3-.91a7.31 7.31 0 00-3.38-1.66l-2.93-16.33 13.9 3.4zm-19.79-32l3.79-.68.68 3.78-3.79.68zm-4.32 8.59l15.15-2.72 1.59 8.87-7.35-1.8a1.8 1.8 0 00-.8 0 2.06 2.06 0 00-.74.3l-6.26 4.24zm7.57 9.46l2.93 16.35a7.34 7.34 0 00-2.56 2.72c-.67 1.06-1 1.5-1.85 1.65s-1.31-.15-2.31-.91a7.67 7.67 0 00-3.07-1.6l-5-10.17z"/>
  <path fill="#dad6e7" fill-rule="evenodd" d="M383.27 639.9a1.8 1.8 0 011.46-2.1l7.13-1.28A1.82 1.82 0 01394 638l7.52 41.88a1.79 1.79 0 01-.05.83l-2.28 7.77a1.8 1.8 0 01-2.25 1.22 1.77 1.77 0 01-.94-.7l-4.84-6.49a1.73 1.73 0 01-.33-.76zM396.7 684l1.14-3.88-.4-2.26-3.56.64.4 2.26zm.1-9.7l-4.8-26.77-3.56.64 4.8 26.73zm-9-29.66l3.56-.64-.64-3.56-3.56.64zM366.91 641l3.56-.64a3.61 3.61 0 014.2 2.91l8.16 45.43a3.63 3.63 0 01-2.93 4.21L346.06 699a3.62 3.62 0 01-4.21-2.91l-8.16-45.44a3.62 3.62 0 012.92-4.21l3.56-.64-.16-.89a3.62 3.62 0 012.91-4.2l4.14-.74a8.22 8.22 0 01.48-1.19 6.34 6.34 0 018.51-2.82 6.49 6.49 0 011.47 1 7.67 7.67 0 01.86.94l4.14-.74a3.61 3.61 0 014.2 2.92zm-29.65 9l8.15 45.44 33.86-6.08-8.16-45.44-3.56.64.16.89a3.62 3.62 0 01-2.92 4.2l-19.61 3.52a3.61 3.61 0 01-4.2-2.92l-.16-.89zm26.88-3.91l-1-5.35-5.34 1a1.8 1.8 0 01-2-1 3.49 3.49 0 00-.8-1 2.71 2.71 0 00-3.84.13 3.09 3.09 0 00-.44.63 3.7 3.7 0 00-.38 1.25 1.82 1.82 0 01-1.48 1.67l-5.35 1 1 5.34zm3.7 10.37a1.81 1.81 0 11.71 3.55h-.07l-11.58 2.08a1.81 1.81 0 11-.72-3.55h.08zm1.92 10.7a1.81 1.81 0 11.64 3.56l-11.57 2.08a1.81 1.81 0 01-.64-3.57zM346 660.92l.62.43 1.89-2.72a1.81 1.81 0 013 2.07l-2.92 4.2a1.81 1.81 0 01-2.52.45l-2.1-1.46a1.81 1.81 0 012.07-3zm2 10.69l.62.43 1.89-2.72a1.81 1.81 0 113 2.07l-2.92 4.2a1.81 1.81 0 01-2.52.46l-2.1-1.46a1.81 1.81 0 112-3zm23.73 6.24a1.81 1.81 0 01.64 3.56l-11.57 2.08a1.81 1.81 0 01-.64-3.56zm-21.81 4.45l.62.43 1.89-2.71a1.81 1.81 0 113 2.06l-2.92 4.21a1.81 1.81 0 01-2.52.45l-2.1-1.46a1.81 1.81 0 012.07-3z"/>
  <path fill="#dad6e7" d="M501.13 615l19.61-3.52a1.82 1.82 0 012.1 1.47l2.4 13.36a1.81 1.81 0 01-1.46 2.1L504.17 632l1.93 10.74a38 38 0 0130.84 9.86 1.81 1.81 0 01-2.46 2.66 34.37 34.37 0 00-27.74-9l1.28 7.08a1.81 1.81 0 01-1.51 2.06 1.8 1.8 0 01-2.05-1.42l-1.28-7.09A34.41 34.41 0 00480.3 665a1.81 1.81 0 11-3.23-1.64 38 38 0 0125.47-20l-5.25-29.24a2.72 2.72 0 012.85-4.63 2.73 2.73 0 01.89 3.74l-.18.25zm20.22 10.17l-1.76-9.8-17.82 3.2 1.76 9.8zM489.12 666a1.81 1.81 0 111.47-2.1 1.82 1.82 0 01-1.46 2.1zm14.65 4.73a3.62 3.62 0 112.93-4.21 3.62 3.62 0 01-2.93 4.21zm-6.54-10.78a2.72 2.72 0 112.2-3.16 2.73 2.73 0 01-2.2 3.11z"/>
  <path fill="#dad6e7" fill-rule="evenodd" d="M71.39 695.83a1.81 1.81 0 01-.64-3.56L85 689.71a1.81 1.81 0 01.64 3.56l1.87 10.4a18.11 18.11 0 11-14.26 2.56zm26.38 26.45c-3.88 2.58-9 3.21-15.14.68-5.43-2.23-9.5-1.5-12.49.88a10.24 10.24 0 00-.85.76c1.51 3.67 9.28 12.25 16.59 10.94a14.49 14.49 0 0011.89-13.26zm-.37-4.37A14.5 14.5 0 0085.65 707a1.82 1.82 0 01-1.49-1.46l-2.08-11.61-7.08 1.26 2 11.61a1.81 1.81 0 01-.89 1.89 14.49 14.49 0 00-7.28 11.6c3.87-2.58 9-3.2 15.13-.68 5.44 2.23 9.5 1.5 12.5-.88a8.76 8.76 0 00.9-.82zM119.82 689a1.81 1.81 0 01.64 3.57l-10.69 1.92a1.81 1.81 0 01-.71-3.55h.07zm1.28 7.13a1.81 1.81 0 01.73 3.55h-.09l-10.69 1.92a1.81 1.81 0 01-.72-3.55h.08zm1.28 7.13a1.81 1.81 0 01.64 3.56l-10.69 1.92a1.81 1.81 0 01-.72-3.55h.08zm-18.85-7.65l-3.71.66-4.69 6.73a1.81 1.81 0 01-3-2.07l5.12-7.36a1.88 1.88 0 011.17-.75l4.45-.8a1.81 1.81 0 01.64 3.57z"/>
  <path fill="#dad6e7" d="M791.82 599L811 612.35a1.81 1.81 0 11-2.07 3L789.75 602a25.32 25.32 0 112.07-3zm-18 8.43a21.73 21.73 0 10-25.23-17.54 21.73 21.73 0 0025.23 17.54zm-12.76-19.78a9 9 0 012.29-7.77 9 9 0 01-4.85-6.49l-.32-1.78a1.82 1.82 0 011.47-2.1L774 567a1.82 1.82 0 012.1 1.46l.32 1.78a9 9 0 01-2.28 7.77 9.07 9.07 0 014 12.16 9.52 9.52 0 01-1.46 2.1 9 9 0 014.84 6.49l.32 1.78a1.81 1.81 0 01-1.46 2.1l-14.25 2.56a1.82 1.82 0 01-2.1-1.46l-.32-1.78a9 9 0 012.28-7.77 9.06 9.06 0 01-4.85-6.49zm1-14.9a5.44 5.44 0 0010.7-1.92zm5.13 28.51l10.69-1.92a5.43 5.43 0 00-10.69 1.92zm7.5-17.9a5.43 5.43 0 00-10.08 1.81zm-9.44 5.37a5.43 5.43 0 0010.08-1.81z"/>
  <path fill="#dad6e7" fill-rule="evenodd" d="M627.75 623.16l6 4.13-7.75 11.15-6-4.14zm-11.31 13.08l8.92 6.2a1.81 1.81 0 002.52-.45l9.82-14.12a1.81 1.81 0 00-.45-2.52l-8.92-6.2a1.81 1.81 0 00-2.52.45L616 633.73a1.8 1.8 0 00.45 2.51zM651 589.71l6 4.13-7.8 11.16-6-4.14zm-11.3 13.09l8.92 6.2a1.8 1.8 0 002.51-.45l9.87-14.12a1.8 1.8 0 00-.46-2.52l-8.91-6.2a1.81 1.81 0 00-2.52.45l-9.82 14.12a1.81 1.81 0 00.45 2.52z"/>
  <path fill="#dad6e7" fill-rule="evenodd" d="M645.65 606.93a1.81 1.81 0 00-3-2.06l-2.06 3a1.81 1.81 0 003 2.07zM636.35 620.31a1.81 1.81 0 10-2.94-2.12l-2.07 3a1.81 1.81 0 003 2.06z"/>
  <path fill="#dad6e7" fill-rule="evenodd" d="M651.17 619.6l-3.09 4.46-22.3-15.51a1.81 1.81 0 00-2.07 3l23.78 16.54a1.82 1.82 0 002.53-.46l5.16-7.43a1.8 1.8 0 00-.45-2.52l-23.79-16.54a1.81 1.81 0 00-2.06 3z"/>
  <path fill="#dad6e7" fill-rule="evenodd" d="M657 624.75l-4.11-2.86a1.81 1.81 0 00-2.07 3l4.11 2.87a3.62 3.62 0 102.07-3zM625 597l3 2.07-7.23 10.4-3-2.06zm-10.79 12.35l5.94 4.13a1.82 1.82 0 002.53-.45l9.3-13.38a1.81 1.81 0 00-.46-2.52l-5.94-4.13a1.82 1.82 0 00-2.53.45l-9.3 13.38a1.81 1.81 0 00.46 2.52z"/>
  <path fill="#dad6e7" d="M214.27 714.86a6.3 6.3 0 004.42-3.38c.67-1.06 1-1.5 1.85-1.65s1.31.14 2.31.91a6.09 6.09 0 009.74-1.76c.67-1.06 1-1.49 1.83-1.65s1.3.15 2.3.91a6.25 6.25 0 005.31 1.63 6.35 6.35 0 004.45-3.38c.67-1.06 1-1.5 1.84-1.65s1.31.14 2.3.9a6.27 6.27 0 005.32 1.64 1.93 1.93 0 00-.68-3.79c-.87.16-1.31-.15-2.3-.91a7.17 7.17 0 00-3.47-1.67l1.16-11.69a1.93 1.93 0 00-1.46-2.06l-7-1.71-2.19-12.44a1.93 1.93 0 00-2.23-1.56l-3.79.68-1-5.68a1.93 1.93 0 00-2.24-1.55l-7.57 1.36a1.93 1.93 0 00-1.56 2.23l1 5.68-3.78.68a1.94 1.94 0 00-1.56 2.24l2.24 12.44-5.94 4a1.92 1.92 0 00-.64 2.44l5.17 10.55a7.22 7.22 0 00-2.66 2.77c-.67 1.06-1 1.5-1.85 1.66a1.92 1.92 0 10.62 3.79zm31.24-13a7.88 7.88 0 00-2.3 2.57c-.67 1-1 1.49-1.83 1.65s-1.31-.15-2.3-.91a7.35 7.35 0 00-3.39-1.66l-2.93-16.34 13.9 3.41zm-19.79-32.06l3.79-.68.68 3.78-3.79.68zm-4.32 8.59l15.15-2.72 1.59 8.87-7.35-1.8a1.87 1.87 0 00-1.54.27l-6.25 4.25zm7.56 9.47l2.94 16.34a7.37 7.37 0 00-2.57 2.72c-.66 1.06-1 1.49-1.84 1.65s-1.31-.15-2.31-.91a7.64 7.64 0 00-3.08-1.6l-5-10.17zM313.66 390l1.75-2.52a1.81 1.81 0 113 2v.05l-4.41 6.33a1.81 1.81 0 01-2.52.45l-6.31-4.39a1.81 1.81 0 012.07-3l2.85 2a25.35 25.35 0 0139.77-22.84 1.81 1.81 0 11-2 3h-.06A21.72 21.72 0 00313.66 390zm43.4-2.25l-1.76 2.52a1.81 1.81 0 01-3-2.06l4.39-6.31a1.81 1.81 0 012.52-.45l6.3 4.38a1.81 1.81 0 01-2.06 3l-2.86-2a25.35 25.35 0 01-39.73 22.87 1.81 1.81 0 112.06-3 21.73 21.73 0 0034.11-19zm-13.59-4.93a1.81 1.81 0 012.1 1.46 1.86 1.86 0 01-.12 1l-7.81 18a1.81 1.81 0 01-3.45-.4l-1.6-8.91-5.34 1a1.82 1.82 0 01-2.11-1.46 2 2 0 01.09-1l7.5-19.74a1.81 1.81 0 013.47.33l1.92 10.69zm-2.69 4.18l-3.8.69a1.81 1.81 0 01-2.1-1.47l-1.09-6-4 10.64 4-.71a1.81 1.81 0 012.1 1.46l.86 4.81zM232.9 428.72a1.81 1.81 0 01-.48 2.52 1.78 1.78 0 01-.7.28l-57 10.24a1.8 1.8 0 01-2.1-1.46 1.73 1.73 0 010-.75l4.16-16.94-4.42-24.61a3.62 3.62 0 012.93-4.2l39.2-7a3.63 3.63 0 014.2 2.93l4.41 24.57zm-13.61-15.2l-4.16-23.16-39.2 7 4.16 23.16zm-4.74 17.41l13.79-2.48-7.78-11.45-40.46 7.27-3.3 13.47 13.79-2.48 1-7.21a1.8 1.8 0 011.47-1.52l16-2.88a1.82 1.82 0 011.91.91zM195 429.84l-.69 4.72 16.44-3-2.28-4.18z"/>
  <path fill="#dad6e7" fill-rule="evenodd" d="M448.41 347.47a1.81 1.81 0 01-.72-3.55h.08l14.23-2.57a1.81 1.81 0 01.64 3.56l1.87 10.39a18.12 18.12 0 11-14.26 2.57zm26.39 26.45c-3.88 2.58-9 3.2-15.14.68-5.43-2.23-9.5-1.5-12.5.88a10 10 0 00-.84.75c1.51 3.67 9.27 12.26 16.59 10.95a14.49 14.49 0 0011.89-13.26zm-.37-4.38a14.5 14.5 0 00-11.74-10.92 1.8 1.8 0 01-1.49-1.46l-2.09-11.61-7.11 1.28 2.09 11.61a1.82 1.82 0 01-.89 1.89 14.48 14.48 0 00-7.28 11.6c3.87-2.58 9-3.21 15.14-.68 5.43 2.23 9.5 1.5 12.49-.88a10.07 10.07 0 00.9-.82zm22.43-28.93a1.81 1.81 0 01.64 3.56l-10.7 1.93a1.81 1.81 0 01-.64-3.57zm1.28 7.13a1.81 1.81 0 01.64 3.56l-10.7 1.92a1.81 1.81 0 01-.72-3.55h.08zm1.28 7.13a1.81 1.81 0 01.64 3.56l-10.7 1.92a1.81 1.81 0 11-.71-3.55h.07zm-18.86-7.65l-3.71.66-4.69 6.75a1.81 1.81 0 11-3-2.05l5.12-7.36a1.79 1.79 0 011.16-.75l4.46-.8a1.81 1.81 0 01.64 3.57zM889.36 548.9a1.81 1.81 0 01-.72-3.55h.08l14.28-2.57a1.81 1.81 0 01.64 3.56l1.87 10.39a18.1 18.1 0 11-14.26 2.56zm26.38 26.44c-3.87 2.59-9 3.21-15.13.69-5.44-2.23-9.5-1.5-12.5.88a7.49 7.49 0 00-.84.75c1.5 3.67 9.27 12.26 16.58 11a14.48 14.48 0 0011.89-13.27zm-.36-4.37a14.5 14.5 0 00-11.75-10.92 1.8 1.8 0 01-1.49-1.46L900.05 547l-7.12 1.28 2.08 11.6a1.81 1.81 0 01-.89 1.9 14.5 14.5 0 00-7.28 11.6c3.88-2.58 9-3.21 15.14-.68 5.43 2.23 9.5 1.5 12.49-.88a9 9 0 00.91-.83zM937.8 542a1.81 1.81 0 01.64 3.56l-10.69 1.92A1.81 1.81 0 11927 544h.08zm1.28 7.13a1.81 1.81 0 01.64 3.56L929 554.65a1.81 1.81 0 01-.73-3.55h.09zm1.28 7.13a1.81 1.81 0 01.64 3.56l-10.69 1.92a1.81 1.81 0 11-.72-3.55h.08zm-18.85-7.65l-3.72.66-4.69 6.74a1.81 1.81 0 11-3-2l5.12-7.36a1.76 1.76 0 011.16-.75l4.46-.8a1.81 1.81 0 11.64 3.56z"/>
  <path fill="#dad6e7" d="M61.4 465.83l-2.69-23.68c-.31.23-.61.47-.9.7-.87.66-1.71 1.28-2.53 1.87-6.82 4.91-10.74 6.82-12.88 4.28-2-2.32 0-5.42 4.8-10.38.86-.9 1.81-1.84 2.84-2.82 1.65-1.58 3.43-3.18 5.25-4.77l.59-.5c-.1-.54-.19-1.1-.28-1.7-.38-2.38-.7-4.71-1-6.91-1-9-.74-13.61 2.63-14.22s5.23 3.67 7.42 12.42c.54 2.14 1 4.44 1.52 6.81.12.6.23 1.15.33 1.68l.72.27c2.27.86 4.49 1.74 6.59 2.65 1.3.56 2.51 1.11 3.64 1.65 6.2 3 9.14 5.2 8.11 8.07-1.12 3.12-5.46 2.7-13.56.46-1-.26-2-.56-3-.88l-1.09-.33 5.71 23.13 22.39-4a1.81 1.81 0 01.72 3.55h-.08l-57 10.24a1.81 1.81 0 01-.64-3.56zm3.57-.65l5.11-.91-6.2-25.11-.78-.27-.23-.08-.19.16-.63.52zm-2.89-30.75A1.81 1.81 0 1060 433a1.81 1.81 0 002.1 1.46zm.52-7.15c-.45-2.19-.92-4.31-1.41-6.28a52.1 52.1 0 00-2.38-7.55 11.91 11.91 0 00-.77-1.51 13.49 13.49 0 00-.19 1.68 52.15 52.15 0 00.4 7.9c.23 2 .52 4.18.87 6.38a5.4 5.4 0 013.48-.62zm3.4 8.77c1.36.46 2.73.9 4.08 1.32 1 .31 2 .59 2.93.85a45.89 45.89 0 007.17 1.5 10.62 10.62 0 001.38.06c-.15-.13-.33-.28-.53-.43a33.08 33.08 0 00-5.11-2.92c-1.07-.51-2.24-1-3.5-1.59-1.67-.71-3.43-1.42-5.23-2.12a5.36 5.36 0 01-1.19 3.33zm-9.3-1.44c-1.45 1.28-2.85 2.56-4.17 3.81-1 .94-1.9 1.85-2.72 2.71a32.5 32.5 0 00-3.81 4.51c-.13.21-.25.41-.35.59.44-.16.86-.34 1.28-.54a45.5 45.5 0 006.2-3.91c.79-.57 1.6-1.17 2.44-1.81q1.68-1.29 3.38-2.66a5.43 5.43 0 01-2.28-2.7z"/>
  <path fill="#dad6e7" fill-rule="evenodd" d="M760.29 291.53a1.82 1.82 0 011.47-2.1l7.12-1.28a1.81 1.81 0 012.1 1.47l7.53 41.88a1.8 1.8 0 010 .83l-2.28 7.77a1.82 1.82 0 01-2.25 1.22 1.79 1.79 0 01-.94-.65l-4.84-6.49a1.86 1.86 0 01-.34-.76zm13.44 44.07l1.14-3.88-.4-2.26-3.57.64.4 2.26zm.1-9.7L769 299.17l-3.57.64 4.8 26.73zm-9-29.66l3.56-.64-.64-3.56-3.56.64zm-20.88-3.6l3.56-.64a3.61 3.61 0 014.2 2.91l8.16 45.43a3.63 3.63 0 01-2.93 4.21l-33.85 6.08a3.62 3.62 0 01-4.21-2.91l-8.16-45.43a3.62 3.62 0 012.91-4.21l3.56-.64-.16-.89a3.61 3.61 0 012.92-4.2l4.14-.75a9.25 9.25 0 01.48-1.19 6.34 6.34 0 018.51-2.81 6.24 6.24 0 011.47 1 7.76 7.76 0 01.86.95l4.14-.74a3.61 3.61 0 014.2 2.92zm-29.65 9l8.15 45.44L756.3 341l-8.16-45.44-3.56.64.16.89a3.63 3.63 0 01-2.92 4.2l-19.62 3.52a3.61 3.61 0 01-4.2-2.92l-.16-.89zm26.88-3.91l-1-5.35-5.34 1a1.82 1.82 0 01-2-1 3.63 3.63 0 00-.79-1 2.71 2.71 0 00-3.83.14 2.47 2.47 0 00-.44.63 3.5 3.5 0 00-.39 1.25 1.8 1.8 0 01-1.49 1.66l-5.34 1 1 5.35zm3.7 10.37a1.81 1.81 0 01.64 3.57l-11.58 2.08a1.81 1.81 0 01-.64-3.57zm1.93 10.69a1.81 1.81 0 01.64 3.57l-11.58 2.08a1.81 1.81 0 01-.64-3.57zm-23.73-6.23l.61.43 1.9-2.72a1.81 1.81 0 113 2l-2.93 4.2a1.81 1.81 0 01-2.52.45l-2.1-1.46a1.81 1.81 0 012.07-3zm1.92 10.69l.61.43 1.89-2.72a1.81 1.81 0 013 2.07l-2.93 4.2a1.8 1.8 0 01-2.51.45l-2.1-1.46a1.81 1.81 0 012.07-3zm23.73 6.24a1.81 1.81 0 01.64 3.56l-11.58 2.08a1.81 1.81 0 01-.64-3.56zm-21.82 4.45l.62.43 1.89-2.72a1.81 1.81 0 113 2.05l-2.93 4.2a1.81 1.81 0 01-2.51.46l-2.1-1.46a1.81 1.81 0 012.07-3z"/>
  <path fill="#dad6e7" d="M878.16 266.68l19.6-3.52a1.8 1.8 0 012.1 1.46l2.4 13.37a1.8 1.8 0 01-1.46 2.1l-19.6 3.52 1.93 10.74a37.94 37.94 0 0130.87 9.87 1.81 1.81 0 11-2.46 2.65 34.35 34.35 0 00-27.73-8.95L885 305a1.81 1.81 0 01-3.55.72v-.08l-1.27-7.08a34.37 34.37 0 00-22.89 18 1.81 1.81 0 01-3.23-1.62 38 38 0 0125.48-20l-5.25-29.24a2.72 2.72 0 113.73-.9 1.51 1.51 0 01-.18.26zm20.22 10.17l-1.76-9.8-17.82 3.2 1.76 9.8zm-32.23 40.74a1.81 1.81 0 111.46-2.1 1.8 1.8 0 01-1.46 2.1zm14.65 4.73a3.62 3.62 0 112.92-4.21 3.63 3.63 0 01-2.92 4.2zm-6.54-10.79a2.71 2.71 0 112.2-3.15 2.71 2.71 0 01-2.2 3.15zM591.29 366.5a6.34 6.34 0 004.43-3.38c.66-1.06 1-1.5 1.84-1.66s1.31.15 2.32.91a6.07 6.07 0 009.73-1.75c.67-1.06 1-1.5 1.83-1.65s1.31.15 2.3.91a6.1 6.1 0 009.76-1.76c.67-1.05 1-1.5 1.85-1.65s1.3.15 2.3.9A6.21 6.21 0 00633 359a1.93 1.93 0 10-.62-3.8h-.06c-.86.16-1.3-.14-2.3-.9a7.11 7.11 0 00-3.46-1.68l1.11-11.62a1.92 1.92 0 00-1.46-2.06l-7-1.71-2.21-12.49a1.93 1.93 0 00-2.23-1.56l-3.78.68-1-5.68a1.93 1.93 0 00-2.24-1.55l-7.58 1.37a1.92 1.92 0 00-1.55 2.23l1 5.68-3.79.68a1.93 1.93 0 00-1.55 2.24l2.23 12.44-5.93 4a1.93 1.93 0 00-.65 2.44l5.18 10.55a7.39 7.39 0 00-2.67 2.77c-.67 1.07-1 1.5-1.84 1.66a1.93 1.93 0 10.62 3.8zm31.25-13a7.87 7.87 0 00-2.31 2.56c-.67 1.06-1 1.5-1.84 1.65s-1.3-.14-2.3-.9a7.43 7.43 0 00-3.38-1.67l-2.93-16.33 13.9 3.41zm-19.79-32.07l3.78-.68.68 3.79-3.78.68zm-4.32 8.6l15.14-2.72 1.6 8.86-7.35-1.8a1.91 1.91 0 00-1.54.28L600 338.9zm7.57 9.47l2.94 16.35a7.34 7.34 0 00-2.57 2.71c-.66 1.06-1 1.5-1.84 1.66s-1.31-.15-2.32-.91a7.67 7.67 0 00-3.07-1.6l-5-10.18zM596.71 776.4l19.18 13.34a1.81 1.81 0 11-2.06 3l-19.19-13.34a25.31 25.31 0 112.07-3zm-18 8.44a21.73 21.73 0 10-25.23-17.55 21.73 21.73 0 0025.23 17.55zM566 765.05a9 9 0 012.28-7.77 9 9 0 01-4.84-6.49l-.32-1.78a1.81 1.81 0 011.46-2.1l14.26-2.56a1.81 1.81 0 012.1 1.46l.32 1.79a9 9 0 01-2.29 7.76 9.06 9.06 0 014 12.16 8.69 8.69 0 01-1.46 2.1 9 9 0 014.85 6.49l.32 1.78a1.82 1.82 0 01-1.46 2.1L571 782.55a1.81 1.81 0 01-2.1-1.46l-.32-1.78a9 9 0 012.28-7.77 9 9 0 01-4.84-6.49zm1-14.9a5.43 5.43 0 0010.69-1.92zm5.12 28.51l10.69-1.92a5.43 5.43 0 10-10.71 1.78.59.59 0 00.03.14zm7.51-17.9a5.44 5.44 0 00-10.09 1.82zm-9.44 5.38a5.43 5.43 0 0010.08-1.81zM716.23 762.18l-2.69-23.68-.91.71c-.87.65-1.71 1.28-2.52 1.87-6.82 4.91-10.74 6.82-12.88 4.28-2-2.32 0-5.42 4.8-10.38.87-.9 1.82-1.84 2.84-2.82 1.65-1.58 3.43-3.18 5.25-4.77l.59-.5-.28-1.7c-.38-2.39-.71-4.71-.95-6.91-1-9-.74-13.62 2.63-14.22s5.23 3.66 7.42 12.41c.54 2.15 1.05 4.44 1.52 6.81.12.6.23 1.15.33 1.69.24.08.47.17.72.27 2.26.85 4.49 1.74 6.59 2.64 1.3.56 2.51 1.11 3.64 1.65 6.2 3 9.14 5.21 8.11 8.07-1.12 3.12-5.46 2.7-13.56.47-1-.27-2-.56-3-.88l-1.09-.34 5.69 23.15 22.39-4a1.81 1.81 0 01.64 3.57l-57 10.24a1.81 1.81 0 01-.64-3.56zm3.57-.64l5.11-.92-6.2-25.11-.78-.27-.23-.08-.19.16-.63.52zm-2.89-30.76a1.81 1.81 0 10-2.1-1.46 1.8 1.8 0 002.09 1.47zm.52-7.15c-.44-2.19-.92-4.3-1.41-6.28a52.49 52.49 0 00-2.38-7.55 12.62 12.62 0 00-.77-1.51 13.71 13.71 0 00-.19 1.68 52.15 52.15 0 00.4 7.9c.22 2 .52 4.18.87 6.39a5.47 5.47 0 013.48-.63zm3.4 8.78c1.37.46 2.74.9 4.08 1.31 1 .31 2 .59 2.93.85a45.23 45.23 0 007.17 1.5 10.62 10.62 0 001.38.06l-.52-.42a32 32 0 00-5.12-2.92c-1.07-.52-2.24-1-3.5-1.59-1.67-.72-3.42-1.43-5.23-2.12a5.4 5.4 0 01-1.19 3.33zm-9.3-1.44c-1.45 1.27-2.85 2.55-4.17 3.81-1 .94-1.9 1.84-2.72 2.7a32.7 32.7 0 00-3.78 4.52c-.13.21-.25.4-.34.58a11.73 11.73 0 001.27-.53 45.86 45.86 0 006.2-3.91c.79-.57 1.61-1.18 2.45-1.82 1.12-.85 2.25-1.74 3.37-2.65a5.43 5.43 0 01-2.28-2.67zM968.49 692.35l1.75-2.52a1.81 1.81 0 013 2l-4.38 6.31a1.81 1.81 0 01-2.52.45l-6.34-4.31a1.81 1.81 0 012.07-3l2.85 2a25.36 25.36 0 0139.77-22.85 1.81 1.81 0 11-2.07 3 21.73 21.73 0 00-34.13 18.94zm43.4-2.24l-1.75 2.52a1.81 1.81 0 11-3-2l4.38-6.31a1.81 1.81 0 012.52-.45l6.31 4.39a1.81 1.81 0 01-2.07 3l-2.86-2a25.34 25.34 0 01-39.7 22.74 1.81 1.81 0 012.07-3 21.73 21.73 0 0034.1-19zm-13.59-4.93a1.8 1.8 0 012.1 1.46 1.86 1.86 0 01-.12 1l-7.81 18a1.81 1.81 0 01-3.44-.41l-1.6-8.9-5.35 1a1.82 1.82 0 01-2.1-1.46 1.78 1.78 0 01.09-1l7.49-19.74a1.82 1.82 0 013.48.32l1.96 10.68zm-2.69 4.16l-3.8.68a1.81 1.81 0 01-2.1-1.46l-1.08-6-4 10.64 4-.72a1.81 1.81 0 012.1 1.46l.87 4.81zM887.73 729.08a1.8 1.8 0 01-.48 2.51 2 2 0 01-.7.29l-57 10.24a1.81 1.81 0 01-2.1-1.46 1.72 1.72 0 010-.75L831.6 723l-4.41-24.57a3.63 3.63 0 012.92-4.2l39.21-7a3.62 3.62 0 014.2 2.92l4.41 24.57zm-13.61-15.2L870 690.71l-39.2 7 4.16 23.17zm-4.74 17.41l13.79-2.48-7.78-11.48-40.46 7.27-3.3 13.46 13.8-2.47 1-7.21a1.82 1.82 0 011.47-1.52L864 724a1.81 1.81 0 011.91.91zm-19.52-1.1l-.68 4.72 16.44-2.91-2.28-4.19z"/>
  <path fill="#dad6e7" fill-rule="evenodd" d="M461.75 758.1l5.95 4.13-7.76 11.15-5.94-4.13zm-11.31 13.09l8.92 6.2a1.8 1.8 0 002.52-.46l9.82-14.12a1.81 1.81 0 00-.45-2.52l-8.92-6.2a1.81 1.81 0 00-2.52.45L450 768.67a1.8 1.8 0 00.45 2.51z"/>
  <path fill="#dad6e7" fill-rule="evenodd" d="M456.39 775.32a1.81 1.81 0 10-2.94-2.11l-2.07 3a1.81 1.81 0 003 2.07z"/>
  <path fill="#dad6e7" fill-rule="evenodd" d="M461.92 788l-3.1 4.46-22.3-15.51a1.81 1.81 0 00-2.07 3l23.78 16.54a1.81 1.81 0 002.52-.45l5.17-7.43a1.81 1.81 0 00-.45-2.52l-23.79-16.54a1.81 1.81 0 10-2.06 3z"/>
  <path fill="#dad6e7" fill-rule="evenodd" d="M435.74 765.37l3 2.07-7.23 10.4-3-2.07zM425 777.72l5.95 4.13a1.81 1.81 0 002.52-.45l9.3-13.38a1.8 1.8 0 00-.46-2.52l-5.94-4.13a1.81 1.81 0 00-2.52.45l-9.3 13.38a1.81 1.81 0 00.45 2.52zM1334.88 68.41a1.82 1.82 0 011.47-2.1l7.12-1.28a1.81 1.81 0 012.1 1.46l7.53 41.88a1.79 1.79 0 010 .83l-2.28 7.77a1.82 1.82 0 01-2.25 1.23 1.75 1.75 0 01-.94-.66l-4.85-6.48a2 2 0 01-.33-.77zm13.44 44.07l1.14-3.89-.4-2.25-3.56.64.4 2.25zm.1-9.7l-4.8-26.78-3.57.64 4.8 26.74zm-9-29.66l3.57-.64-.64-3.56-3.57.64zm-20.88-3.61l3.56-.64a3.63 3.63 0 014.21 2.92l8.16 45.43a3.63 3.63 0 01-2.93 4.21l-33.85 6.08a3.63 3.63 0 01-4.21-2.91l-8.16-45.43a3.63 3.63 0 012.92-4.21l3.56-.64-.16-.89a3.62 3.62 0 012.92-4.2l4.14-.74a8.22 8.22 0 01.48-1.19 6.34 6.34 0 018.51-2.82 6.54 6.54 0 011.47 1 7.77 7.77 0 01.87 1l4.14-.74a3.62 3.62 0 014.2 2.92zm-29.65 9L1297 124l33.86-6.08-8.16-45.44-3.56.64.16.89a3.62 3.62 0 01-2.92 4.2l-19.61 3.52a3.61 3.61 0 01-4.2-2.92l-.16-.89zm26.88-3.91l-1-5.35-5.34 1a1.8 1.8 0 01-2-1 3.66 3.66 0 00-.8-1 2.7 2.7 0 00-4.27.77 3.71 3.71 0 00-.39 1.25 1.8 1.8 0 01-1.48 1.66l-5.35 1 1 5.35zm3.7 10.37a1.81 1.81 0 01.71 3.55h-.07l-11.58 2.08a1.81 1.81 0 01-.64-3.57zm1.92 10.69a1.81 1.81 0 11.64 3.57l-11.57 2.08a1.81 1.81 0 11-.72-3.55h.08zm-23.73-6.23l.62.43 1.89-2.72a1.81 1.81 0 013 2.07l-2.92 4.2a1.81 1.81 0 01-2.52.45l-2.1-1.46a1.81 1.81 0 012.07-3zm1.92 10.69l.62.43 1.89-2.72a1.81 1.81 0 013 2.07l-2.92 4.2a1.81 1.81 0 01-2.52.45l-2.1-1.46a1.81 1.81 0 012-3zm23.73 6.24a1.81 1.81 0 11.64 3.56l-11.58 2.08a1.81 1.81 0 11-.64-3.56zm-21.8 4.45l.61.43 1.89-2.72a1.81 1.81 0 013 2.07l-2.92 4.2a1.81 1.81 0 01-2.52.45l-2.1-1.46a1.81 1.81 0 112.07-3z"/>
  <path fill="#dad6e7" d="M1452.75 43.56l19.61-3.56a1.81 1.81 0 012.1 1.46l2.4 13.37a1.82 1.82 0 01-1.46 2.1l-19.61 3.52 1.93 10.73a38 38 0 0130.84 9.87 1.81 1.81 0 01-2.46 2.65 34.46 34.46 0 00-27.74-8.95l1.27 7.09a1.81 1.81 0 01-3.56.63l-1.27-7.08a34.4 34.4 0 00-22.88 18 1.81 1.81 0 01-3.24-1.63 38 38 0 0125.48-20l-5.25-29.23a2.72 2.72 0 113.73-.9 2.33 2.33 0 01-.17.26zM1473 53.72l-1.76-9.8-17.82 3.2 1.76 9.8zm-32.23 40.75a1.81 1.81 0 111.46-2.11 1.8 1.8 0 01-1.45 2.1zm14.65 4.72a3.62 3.62 0 112.92-4.2 3.61 3.61 0 01-2.92 4.2zm-6.54-10.78a2.71 2.71 0 112.19-3.15 2.71 2.71 0 01-2.22 3.15z"/>
  <path fill="#dad6e7" fill-rule="evenodd" d="M1023 124.35a1.81 1.81 0 01-.65-3.57l14.26-2.56a1.81 1.81 0 01.64 3.57l1.87 10.39a18.1 18.1 0 11-14.26 2.56zm26.38 26.44c-3.88 2.59-9 3.21-15.14.68-5.44-2.22-9.5-1.5-12.49.89a8.6 8.6 0 00-.85.75c1.51 3.67 9.27 12.26 16.59 10.95a14.5 14.5 0 0011.9-13.27zm-.37-4.37a14.49 14.49 0 00-11.75-10.92 1.82 1.82 0 01-1.49-1.47l-2.08-11.6-7.13 1.28 2.08 11.61a1.8 1.8 0 01-.88 1.89 14.53 14.53 0 00-7.29 11.6c3.88-2.58 9-3.2 15.14-.68 5.44 2.23 9.5 1.5 12.5-.88a8.85 8.85 0 00.89-.83zm22.42-28.93a1.81 1.81 0 01.64 3.56l-10.68 1.95a1.81 1.81 0 01-.64-3.56zm1.28 7.13a1.81 1.81 0 01.64 3.56l-10.69 1.92a1.81 1.81 0 11-.72-3.55h.08zm1.28 7.13a1.81 1.81 0 01.64 3.56l-10.63 1.92a1.81 1.81 0 11-.72-3.55h.08zm-18.85-7.66l-3.71.67-4.69 6.74a1.81 1.81 0 01-3-2.06l5.12-7.36a1.78 1.78 0 011.17-.75l4.45-.8a1.81 1.81 0 01.64 3.56z"/>
  <path fill="#dad6e7" d="M1743.43 27.52l19.19 13.34a1.81 1.81 0 01-2.07 3l-19.18-13.36a25.38 25.38 0 112.06-3zM1725.49 36a21.73 21.73 0 10-25.23-17.54A21.73 21.73 0 001725.49 36zm-12.76-19.78a9.06 9.06 0 012.27-7.81 9.07 9.07 0 01-4.84-6.49l-.32-1.78a1.81 1.81 0 011.46-2.1l14.26-2.56a1.8 1.8 0 012.1 1.46l.32 1.78a9 9 0 01-2.28 7.77 9.07 9.07 0 012.56 14.26 9 9 0 014.84 6.48l.32 1.79a1.81 1.81 0 01-1.46 2.1l-14.25 2.56a1.81 1.81 0 01-2.1-1.47l-.32-1.78a9 9 0 012.28-7.77 9 9 0 01-4.85-6.48zm1-14.9a5.43 5.43 0 006.27 4.34 5.42 5.42 0 004.38-6.31zm5.12 28.51l10.7-1.92a5.44 5.44 0 10-10.7 1.92zm7.51-17.9a5.43 5.43 0 00-10.08 1.81zm-9.44 5.37a5.43 5.43 0 0010.08-1.85z"/>
  <path fill="#dad6e7" fill-rule="evenodd" d="M1579.37 51.67l5.94 4.14-7.75 11.19-5.94-4.14zm-11.31 13.09L1577 71a1.81 1.81 0 002.52-.45l9.82-14.12a1.81 1.81 0 00-.45-2.52l-8.92-6.2a1.81 1.81 0 00-2.52.45l-9.82 14.12a1.81 1.81 0 00.43 2.48zM1602.63 18.23l5.95 4.13-7.76 11.15-6-4.13zm-11.31 13.08l8.92 6.2a1.81 1.81 0 002.52-.45l9.82-14.12a1.81 1.81 0 00-.45-2.52l-8.92-6.2a1.81 1.81 0 00-2.52.45l-9.82 14.12a1.81 1.81 0 00.45 2.52z"/>
  <path fill="#dad6e7" fill-rule="evenodd" d="M1597.27 35.45a1.81 1.81 0 00-3-2.07l-2.06 3a1.81 1.81 0 103 2.07zM1588 48.83a1.81 1.81 0 10-2.93-2.12l-2.07 3a1.81 1.81 0 003 2.07z"/>
  <path fill="#dad6e7" fill-rule="evenodd" d="M1602.79 48.11l-3.1 4.46-22.3-15.5a1.81 1.81 0 00-2.11 2.94l23.78 16.54a1.81 1.81 0 002.52-.45l5.17-7.43a1.81 1.81 0 00-.45-2.52l-23.79-16.54a1.81 1.81 0 10-2.06 3z"/>
  <path fill="#dad6e7" fill-rule="evenodd" d="M1608.62 53.27l-4.11-2.86a1.81 1.81 0 10-2.1 3l4.12 2.86a3.61 3.61 0 102.06-3zM1576.62 25.5l3 2.07-7.26 10.43-3-2.07zm-10.79 12.34l5.94 4.14a1.81 1.81 0 002.52-.45l9.3-13.38a1.8 1.8 0 00-.45-2.52l-6-4.14a1.81 1.81 0 00-2.52.46l-9.3 13.37a1.81 1.81 0 00.46 2.52z"/>
  <path fill="#dad6e7" d="M1165.89 143.38a6.32 6.32 0 004.42-3.38c.67-1.06 1-1.5 1.85-1.66s1.31.15 2.31.91a6.06 6.06 0 008.59-.11 5.82 5.82 0 001.14-1.64c.68-1.06 1-1.5 1.83-1.65s1.31.15 2.3.91a6.11 6.11 0 009.77-1.76c.67-1.06 1-1.5 1.84-1.65s1.31.14 2.3.9a6.24 6.24 0 005.32 1.64 1.93 1.93 0 00-.68-3.79c-.87.16-1.31-.14-2.3-.9a7.1 7.1 0 00-3.47-1.68l1.16-11.69a1.93 1.93 0 00-1.46-2.06l-7-1.71-2.24-12.44a1.92 1.92 0 00-2.23-1.56l-3.79.69-1-5.69a1.91 1.91 0 00-2.23-1.55l-7.57 1.36a1.94 1.94 0 00-1.56 2.24l1 5.68-3.78.68a1.92 1.92 0 00-1.56 2.23l2.24 12.44-5.94 4a1.92 1.92 0 00-.64 2.44l5.17 10.55a7.29 7.29 0 00-2.66 2.77c-.67 1.07-1 1.5-1.85 1.66a1.93 1.93 0 00.68 3.79zm31.24-13a7.73 7.73 0 00-2.3 2.56c-.67 1.06-1 1.5-1.84 1.65s-1.31-.14-2.3-.9a7.48 7.48 0 00-3.38-1.67l-2.94-16.33 13.9 3.41zm-19.79-32.07l3.79-.68.68 3.79-3.79.68zm-4.32 8.6l15.15-2.73 1.59 8.87-7.35-1.8a2.15 2.15 0 00-.8 0 1.8 1.8 0 00-.74.31l-6.26 4.24zm7.56 9.46l2.94 16.35a7.34 7.34 0 00-2.57 2.71c-.66 1.06-1 1.5-1.84 1.65s-1.31-.14-2.31-.9a7.64 7.64 0 00-3.08-1.6l-5-10.17z"/>
  <path fill="#dad6e7" fill-rule="evenodd" d="M1841-22.59a1.8 1.8 0 01-2.1-1.46 1.81 1.81 0 011.46-2.1l14.26-2.56a1.81 1.81 0 012.1 1.46 1.8 1.8 0 01-1.46 2.1l1.87 10.4a18.1 18.1 0 11-14.26 2.56zm26.38 26.45c-3.87 2.58-9 3.21-15.14.68-5.43-2.23-9.5-1.5-12.5.88-.29.24-.57.49-.84.76 1.51 3.67 9.28 12.26 16.59 10.94a14.47 14.47 0 0011.89-13.26zM1867-.51a14.49 14.49 0 00-11.75-10.92 1.81 1.81 0 01-1.49-1.47l-2.08-11.61-7.13 1.28 2.08 11.61a1.79 1.79 0 01-.89 1.89 14.51 14.51 0 00-7.28 11.6c3.88-2.58 9-3.2 15.14-.68 5.43 2.23 9.5 1.5 12.49-.88a8.86 8.86 0 00.91-.82zm22.42-28.94a1.82 1.82 0 012.1 1.47 1.81 1.81 0 01-1.46 2.1L1879.37-24a1.82 1.82 0 01-2.11-1.46 1.81 1.81 0 011.47-2.1zm1.28 7.13a1.82 1.82 0 012.1 1.46 1.8 1.8 0 01-1.46 2.1l-10.69 1.93a1.81 1.81 0 01-2.1-1.47 1.81 1.81 0 011.46-2.1zm1.28 7.13a1.82 1.82 0 012.1 1.46 1.81 1.81 0 01-1.46 2.1l-10.69 1.93a1.82 1.82 0 01-2.11-1.46 1.81 1.81 0 011.47-2.1zm-18.85-7.65l-3.72.67-4.69 6.74a1.81 1.81 0 01-2.52.45 1.81 1.81 0 01-.45-2.52l5.12-7.36a1.78 1.78 0 011.16-.74l4.46-.8a1.8 1.8 0 012.1 1.46 1.82 1.82 0 01-1.46 2.1z"/>
  <path fill="#dad6e7" d="M501.54 250.92l19.18 13.34a1.81 1.81 0 11-2 3h-.05l-19.2-13.36a25.32 25.32 0 112.07-3zm-18 8.44a21.73 21.73 0 10-25.23-17.54 21.73 21.73 0 0025.23 17.54zm-12.75-19.78a9 9 0 012.28-7.77 9 9 0 01-4.84-6.49l-.32-1.78a1.8 1.8 0 011.46-2.1l14.26-2.57a1.82 1.82 0 012.1 1.47l.32 1.78a9.05 9.05 0 01-2.29 7.77 9 9 0 014 12.16 8.63 8.63 0 01-1.46 2.09 9.05 9.05 0 014.85 6.49l.32 1.78a1.81 1.81 0 01-1.46 2.1l-14.26 2.57a1.82 1.82 0 01-2.1-1.47l-.32-1.78a9 9 0 012.28-7.77 9 9 0 01-4.84-6.49zm1-14.9a5.43 5.43 0 0010.69-1.93zm5.21 28.51l10.69-1.92a5.43 5.43 0 10-10.75 1.73.77.77 0 00.06.19zm7.51-17.9a5.44 5.44 0 00-10.09 1.81zm-9.51 5.37a5.43 5.43 0 0010.09-1.81zM621.06 245.7l-2.69-23.7-.91.7c-.86.66-1.71 1.29-2.52 1.88-6.82 4.91-10.74 6.82-12.88 4.28-2-2.32 0-5.42 4.8-10.39.87-.9 1.82-1.84 2.84-2.81 1.65-1.58 3.43-3.18 5.25-4.77.2-.18.39-.34.59-.5-.09-.54-.19-1.1-.28-1.7-.38-2.38-.7-4.71-1-6.91-1-9-.74-13.61 2.63-14.22s5.22 3.66 7.42 12.41c.54 2.15 1 4.45 1.52 6.81.12.6.22 1.15.33 1.69l.72.27c2.26.85 4.49 1.74 6.59 2.64 1.3.56 2.51 1.11 3.64 1.66 6.2 3 9.14 5.2 8.11 8.06-1.12 3.12-5.46 2.7-13.56.47-1-.27-2-.56-3-.88l-1.09-.34 5.71 23.14 22.39-4a1.81 1.81 0 01.64 3.56l-57 10.25a1.81 1.81 0 01-.64-3.57zm3.57-.64l5.11-.92-6.2-25.14-.78-.27-.23-.08-.19.16-.63.52zm-2.89-30.76a1.81 1.81 0 10-2.1-1.46 1.81 1.81 0 002.09 1.47zm.52-7.15c-.44-2.19-.92-4.3-1.41-6.28a52.49 52.49 0 00-2.38-7.55 11.91 11.91 0 00-.77-1.51 13.71 13.71 0 00-.19 1.68 52.15 52.15 0 00.4 7.9c.22 2 .52 4.18.87 6.38a5.53 5.53 0 013.48-.62zm3.4 8.78c1.37.46 2.74.9 4.09 1.31 1 .31 2 .59 2.92.85a46.38 46.38 0 007.17 1.5 10.62 10.62 0 001.38.06l-.52-.42a32 32 0 00-5.12-2.92c-1.07-.52-2.24-1.05-3.5-1.59-1.67-.72-3.42-1.43-5.22-2.12a5.47 5.47 0 01-1.2 3.33zm-9.3-1.44c-1.45 1.27-2.85 2.55-4.16 3.81q-1.49 1.41-2.73 2.7a32.61 32.61 0 00-3.78 4.51c-.13.21-.24.4-.34.58a11.73 11.73 0 001.27-.53 44.89 44.89 0 006.2-3.91c.79-.57 1.61-1.18 2.45-1.82 1.12-.85 2.25-1.74 3.37-2.65a5.41 5.41 0 01-2.28-2.69zM873.32 169.88l1.75-2.52a1.81 1.81 0 113 2l-4.38 6.31a1.82 1.82 0 01-2.52.46l-6.31-4.38a1.81 1.81 0 012.07-3l2.85 2A25.35 25.35 0 01909.52 148a1.81 1.81 0 01.45 2.52 1.79 1.79 0 01-2.52.45 21.74 21.74 0 00-34.13 18.95zm43.4-2.25l-1.72 2.52a1.81 1.81 0 01-3.05-2 1 1 0 00.08-.11l4.38-6.3a1.81 1.81 0 012.52-.46l6.31 4.39a1.81 1.81 0 11-2.07 3l-2.85-2a25.34 25.34 0 01-39.74 22.86 1.81 1.81 0 112.07-3 21.73 21.73 0 0034.1-19zm-13.59-4.93a1.81 1.81 0 012.1 1.46 1.86 1.86 0 01-.12 1l-7.81 18a1.81 1.81 0 01-2.38.94 1.78 1.78 0 01-1.06-1.34l-1.6-8.91-5.35 1a1.8 1.8 0 01-2.1-1.46 1.75 1.75 0 01.09-1l7.49-19.75a1.82 1.82 0 012.34-1 1.85 1.85 0 011.14 1.38l1.92 10.69zm-2.69 4.16l-3.8.68a1.81 1.81 0 01-2.1-1.46l-1.08-6-4 10.64 4-.72a1.82 1.82 0 012.1 1.47l.86 4.8zM792.56 208.6a1.8 1.8 0 01-.48 2.51 1.66 1.66 0 01-.7.29l-57 10.24a1.8 1.8 0 01-2.1-1.45 1.77 1.77 0 010-.76l4.16-17-4.44-24.51a3.62 3.62 0 012.93-4.2l39.2-7.05a3.63 3.63 0 014.2 2.93l4.41 24.57zM779 193.4l-4.16-23.17-39.2 7 4.16 23.17zm-4.74 17.4l13.74-2.48-7.78-11.47-40.46 7.26-3.3 13.47 13.8-2.48 1-7.2a1.79 1.79 0 011.47-1.52l16-2.88a1.82 1.82 0 011.91.91zm-19.52-1.09l-.68 4.72 16.44-3-2.28-4.18z"/>
  <path fill="#dad6e7" fill-rule="evenodd" d="M337.48 275.07l5.94 4.14-7.75 11.15-5.95-4.14zm-11.31 13.09l8.92 6.2a1.81 1.81 0 002.52-.45l9.82-14.12a1.81 1.81 0 00-.45-2.52l-8.92-6.2a1.81 1.81 0 00-2.52.45l-9.83 14.12a1.81 1.81 0 00.46 2.52zM360.73 241.63l5.95 4.13-7.75 11.15-5.93-4.14zm-11.3 13.08l8.92 6.2a1.81 1.81 0 002.52-.45l9.82-14.12a1.81 1.81 0 00-.45-2.52l-8.91-6.2a1.81 1.81 0 00-2.52.45L349 252.19a1.81 1.81 0 00.46 2.52z"/>
  <path fill="#dad6e7" fill-rule="evenodd" d="M355.37 258.85a1.81 1.81 0 10-3-2.07l-2.07 3a1.81 1.81 0 002.94 2.12v-.05zM346.07 272.23a1.81 1.81 0 10-3-2.07l-2.07 3a1.81 1.81 0 002.91 2.16l.06-.09z"/>
  <path fill="#dad6e7" fill-rule="evenodd" d="M360.9 271.51l-3.1 4.49-22.3-15.5a1.81 1.81 0 10-2.07 3l23.79 16.5a1.8 1.8 0 002.51-.45l5.16-7.44a1.79 1.79 0 00-.45-2.51L340.67 253a1.81 1.81 0 00-2.07 3z"/>
  <path fill="#dad6e7" fill-rule="evenodd" d="M366.73 276.67l-4.12-2.86a1.81 1.81 0 10-2.06 3l4.11 2.86a3.62 3.62 0 103.91-3.3 3.54 3.54 0 00-1.84.33zM334.73 248.9l3 2.07-7.24 10.4-3-2.07zm-10.8 12.34l5.95 4.14a1.81 1.81 0 002.52-.45l9.3-13.38a1.81 1.81 0 00-.45-2.52l-5.95-4.14a1.8 1.8 0 00-2.52.46l-9.3 13.37a1.81 1.81 0 00.45 2.52zM93 291.81a1.82 1.82 0 011.46-2.1l7.13-1.28a1.82 1.82 0 012.1 1.46l7.52 41.88a1.79 1.79 0 010 .83l-2.28 7.77a1.82 1.82 0 01-2.25 1.23 1.79 1.79 0 01-.94-.65l-4.85-6.49a1.82 1.82 0 01-.33-.77zm13.43 44.06l1.15-3.88-.4-2.25-3.57.64.4 2.25zm.1-9.7l-4.8-26.73-3.56.64 4.8 26.73zm-9-29.65l3.56-.64-.64-3.56-3.56.64zm-20.89-3.61l3.56-.64a3.64 3.64 0 014.21 2.92l8.16 45.43a3.62 3.62 0 01-2.93 4.21l-33.85 6.08a3.61 3.61 0 01-4.2-2.91l-8.17-45.43a3.63 3.63 0 012.92-4.21l3.56-.64-.16-.89a3.61 3.61 0 012.92-4.2l4.14-.75a8.71 8.71 0 01.48-1.19 6.35 6.35 0 018.51-2.81 6.24 6.24 0 011.47 1 7.1 7.1 0 01.87 1l4.14-.75a3.62 3.62 0 014.2 2.93zm-29.65 9l8.16 45.44L89 341.28l-8.16-45.44-3.57.63.16.9a3.62 3.62 0 01-2.92 4.2l-19.61 3.52a3.61 3.61 0 01-4.2-2.92l-.16-.89zM73.87 298l-1-5.34-5.35 1a1.83 1.83 0 01-2-1 3.67 3.67 0 00-.79-1 2.72 2.72 0 00-3.84.14 2.84 2.84 0 00-.44.63 3.63 3.63 0 00-.38 1.25 1.82 1.82 0 01-1.49 1.66l-5.34 1 1 5.34zm3.69 10.38a1.81 1.81 0 01.64 3.56L66.63 314a1.81 1.81 0 01-.64-3.57zm1.93 10.69a1.81 1.81 0 01.64 3.56l-11.57 2.08a1.81 1.81 0 01-.64-3.56zm-23.73-6.24l.62.43 1.89-2.72a1.81 1.81 0 113 2.07l-2.92 4.2a1.81 1.81 0 01-2.52.45l-2.1-1.46a1.81 1.81 0 012.06-3zm1.92 10.69l.62.43 1.89-2.72a1.81 1.81 0 113 2v.05l-2.92 4.2a1.81 1.81 0 01-2.52.46l-2.1-1.47a1.81 1.81 0 112-3zm23.73 6.24a1.81 1.81 0 11.72 3.55h-.08l-11.57 2.09a1.81 1.81 0 01-.64-3.56zm-21.81 4.46l.62.43 1.89-2.72a1.81 1.81 0 013 2v.06l-2.93 4.2a1.81 1.81 0 01-2.52.45l-2.1-1.46a1.81 1.81 0 012-3z"/>
  <path fill="#dad6e7" d="M210.86 267l19.6-3.52a1.81 1.81 0 012.1 1.46l2.4 13.37a1.82 1.82 0 01-1.46 2.1l-19.6 3.52 1.92 10.73a38 38 0 0130.84 9.87 1.81 1.81 0 01.14 2.56 1.83 1.83 0 01-2.56.14v-.05a34.42 34.42 0 00-27.73-8.95l1.27 7.08a1.81 1.81 0 01-3.57.64l-1.27-7.08A34.42 34.42 0 00190 316.88a1.81 1.81 0 01-3.23-1.64 38 38 0 0125.47-20L207 266a2.72 2.72 0 113.74-.89c-.06.08-.11.17-.18.25zm20.22 10.16l-1.76-9.8-17.82 3.2 1.76 9.8zm-32.23 40.75a1.81 1.81 0 111.46-2.11 1.81 1.81 0 01-1.46 2.1zm14.64 4.72a3.62 3.62 0 112.93-4.2 3.62 3.62 0 01-2.93 4.2zM207 311.81a2.72 2.72 0 112.19-3.15 2.71 2.71 0 01-2.19 3.15z"/>
  <path fill="#dad6e7" fill-rule="evenodd" d="M1218.21 2.18l6 4.14-7.75 11.15-6-4.14zm-11.3 13.09l8.91 6.2a1.81 1.81 0 002.53-.45l9.82-14.12a1.81 1.81 0 00-.46-2.52l-8.92-6.2a1.8 1.8 0 00-2.51.45l-9.82 14.12a1.81 1.81 0 00.45 2.52z"/>
  <path fill="#dad6e7" fill-rule="evenodd" d="M1226.81-.66a1.81 1.81 0 00-.45-2.52 1.81 1.81 0 00-2.52.45l-2.07 3a1.81 1.81 0 003 2.06z"/>
  <path fill="#dad6e7" fill-rule="evenodd" d="M1241.64-1.37l-3.1 4.46-22.3-15.51a1.81 1.81 0 00-2.52.45 1.81 1.81 0 00.45 2.52L1238 7.09a1.8 1.8 0 002.51-.45l5.16-7.43a1.81 1.81 0 00-.45-2.52l-23.78-16.54a1.81 1.81 0 00-2.52.45 1.81 1.81 0 00.45 2.52z"/>
  <path fill="#dad6e7" fill-rule="evenodd" d="M1247.47 3.78l-4.12-2.86a1.81 1.81 0 10-2.06 3l4.11 2.87a3.62 3.62 0 102.07-3zM973.73 18.93a1.8 1.8 0 011.46-2.1l7.13-1.28a1.8 1.8 0 012.1 1.46l7.52 41.88a1.8 1.8 0 010 .83l-2.29 7.77a1.81 1.81 0 01-3.18.57l-4.85-6.49a1.84 1.84 0 01-.33-.76zM987.16 63l1.14-3.89-.4-2.25-3.56.64.4 2.25zm.1-9.7l-4.8-26.74-3.56.64 4.8 26.74zm-9-29.66l3.56-.64-.64-3.56-3.56.64zM957.37 20l3.56-.64a3.63 3.63 0 014.21 2.92l8.16 45.44a3.63 3.63 0 01-2.93 4.28l-33.85 6a3.62 3.62 0 01-4.2-2.92l-8.16-45.43a3.62 3.62 0 012.92-4.21l3.56-.63-.16-.9a3.6 3.6 0 012.92-4.19l4.14-.74a8.22 8.22 0 01.46-1.18 6.34 6.34 0 018.53-2.8 6.54 6.54 0 011.47 1 8.58 8.58 0 01.86.95l4.15-.74a3.61 3.61 0 014.19 2.92zm-29.65 9l8.16 45.44 33.86-6.08L961.58 23l-3.57.64.16.89a3.61 3.61 0 01-2.92 4.2l-19.61 3.47a3.62 3.62 0 01-4.2-2.92l-.16-.89zm26.89-3.91l-1-5.35-5.35 1a1.81 1.81 0 01-2-1 3.82 3.82 0 00-.79-1 2.72 2.72 0 00-3.84.14 3.09 3.09 0 00-.44.63 3.7 3.7 0 00-.38 1.25 1.81 1.81 0 01-1.49 1.66l-5.34 1 1 5.35zm3.69 10.37A1.81 1.81 0 11959 39h-.08l-11.57 2.08a1.83 1.83 0 01-2.14-1.42 1.8 1.8 0 011.42-2.13h.08zm1.92 10.69a1.81 1.81 0 01.64 3.57l-11.57 2.08a1.81 1.81 0 01-.64-3.57zM936.5 40l.61.43 1.89-2.77a1.81 1.81 0 013 2.07l-2.92 4.2a1.8 1.8 0 01-2.52.45l-2.1-1.46a1.81 1.81 0 012-3zm1.92 10.69l.62.43 1.89-2.72a1.81 1.81 0 013 2.07L941 54.62a1.82 1.82 0 01-2.52.46l-2.1-1.47a1.81 1.81 0 112.06-3zm23.73 6.24a1.81 1.81 0 11.72 3.55h-.08l-11.58 2.08a1.81 1.81 0 01-.64-3.56zm-21.81 4.45l.62.43 1.89-2.81a1.81 1.81 0 013 2.07l-2.92 4.2a1.81 1.81 0 01-2.52.46l-2.1-1.47a1.81 1.81 0 012.06-3z"/>
  <path fill="#dad6e7" d="M1091.6-5.93l19.6-3.52a1.82 1.82 0 012.1 1.45l2.4 13.37a1.81 1.81 0 01-1.46 2.1l-19.6 3.53 1.93 10.73a38 38 0 0130.83 9.87 1.81 1.81 0 11-2.46 2.66 34.4 34.4 0 00-27.73-9l1.27 7.08a1.81 1.81 0 01-3.56.64l-1.28-7.08a34.42 34.42 0 00-22.88 18.1 1.81 1.81 0 01-3.27-1.56.43.43 0 010-.07 38 38 0 0125.47-20l-5.25-29.24a2.71 2.71 0 01-1.25-1.83 2.71 2.71 0 012.19-3.15 2.71 2.71 0 013.16 2.19 2.73 2.73 0 01-.54 2.15zm20.22 10.17l-1.76-9.8-17.82 3.2 1.76 9.8zM1079.59 45a1.81 1.81 0 111.46-2.1 1.82 1.82 0 01-1.46 2.1zm14.64 4.73a3.62 3.62 0 112.93-4.21 3.63 3.63 0 01-2.93 4.19zm-6.53-10.79a2.71 2.71 0 112.19-3.15 2.7 2.7 0 01-2.19 3.13z"/>
  <path fill="#dad6e7" fill-rule="evenodd" d="M292.25 140a1.81 1.81 0 011.46-2.1l7.13-1.28a1.8 1.8 0 012.1 1.46l7.53 41.92a1.79 1.79 0 01-.05.83l-2.28 7.77a1.8 1.8 0 01-2.25 1.22 1.87 1.87 0 01-.94-.65l-4.84-6.49a1.73 1.73 0 01-.33-.76zm13.44 44.06l1.14-3.88-.4-2.26-3.57.64.4 2.26zm.1-9.7L301 147.67l-3.57.64 4.8 26.73zm-9-29.65l3.57-.65-.64-3.56-3.57.64zm-20.88-3.61l3.56-.64a3.62 3.62 0 014.21 2.91l8.16 45.43a3.63 3.63 0 01-2.93 4.21l-33.85 6.08a3.61 3.61 0 01-4.2-2.91l-8.16-45.43a3.62 3.62 0 012.92-4.21l3.56-.64-.16-.89a3.62 3.62 0 012.91-4.21l4.14-.74a8.22 8.22 0 01.48-1.19 6.34 6.34 0 018.51-2.82 6.27 6.27 0 011.47 1 8.57 8.57 0 01.87.94l4.14-.74a3.63 3.63 0 014.2 2.92zm-29.65 9l8.16 45.44 33.85-6.08-8.16-45.43-3.56.63.16.89a3.62 3.62 0 01-2.93 4.2l-19.6 3.53a3.62 3.62 0 01-4.2-2.93l-.16-.89zm26.89-3.91l-1-5.35-5.35 1a1.8 1.8 0 01-2-1 3.66 3.66 0 00-.8-1 2.71 2.71 0 00-3.83.14 2.47 2.47 0 00-.44.63 3.88 3.88 0 00-.39 1.25 1.79 1.79 0 01-1.48 1.66l-5.35 1 1 5.35zm3.69 10.37a1.81 1.81 0 01.64 3.56l-11.58 2.08a1.81 1.81 0 11-.64-3.56zm1.92 10.7a1.81 1.81 0 01.64 3.56l-11.57 2.08a1.81 1.81 0 01-.73-3.55h.08zm-23.76-6.2l.62.43 1.89-2.72a1.81 1.81 0 013 2.07l-2.92 4.21a1.81 1.81 0 01-2.52.45L253 164a1.81 1.81 0 112-3h.05zm1.92 10.7l.62.42 1.89-2.71a1.81 1.81 0 113 2v.05l-2.92 4.2a1.81 1.81 0 01-2.52.46l-2.1-1.47a1.81 1.81 0 012.06-3zm23.75 6.24a1.81 1.81 0 01.64 3.57l-11.57 2.08a1.81 1.81 0 01-.64-3.57zm-21.81 4.46l.62.42 1.89-2.71a1.81 1.81 0 113 2l-2.92 4.2a1.81 1.81 0 01-2.52.45l-2.1-1.47a1.81 1.81 0 112-3z"/>
  <path fill="#dad6e7" d="M410.12 115.19l19.61-3.53a1.82 1.82 0 012.1 1.46l2.4 13.36a1.81 1.81 0 01-1.46 2.1l-19.61 3.52 1.93 10.74a37.94 37.94 0 0130.83 9.87 1.79 1.79 0 01.1 2.55 1.81 1.81 0 01-2.56.1 34.35 34.35 0 00-27.73-9l1.27 7.14a1.81 1.81 0 11-3.56.64l-1.27-7.08a34.37 34.37 0 00-22.89 18 1.81 1.81 0 11-3.23-1.63 38 38 0 0125.48-20l-5.26-29.24a2.72 2.72 0 113.74-.89 2 2 0 01-.18.25zm20.22 10.16l-1.76-9.8-17.82 3.2 1.76 9.8zm-32.23 40.74a1.81 1.81 0 111.46-2.1 1.8 1.8 0 01-1.46 2.1zm14.65 4.73a3.62 3.62 0 112.92-4.21 3.61 3.61 0 01-2.92 4.21zM406.22 160a2.72 2.72 0 112.19-3.16 2.71 2.71 0 01-2.19 3.16z"/>
  <path fill="#dad6e7" fill-rule="evenodd" d="M-19.62 196a1.81 1.81 0 01-2.11-1.46 1.82 1.82 0 011.47-2.1L-6 189.85a1.81 1.81 0 012.1 1.46 1.8 1.8 0 01-1.46 2.1l1.87 10.4a18.13 18.13 0 0113.63 14.41 18.11 18.11 0 01-14.62 21 18.1 18.1 0 01-21-14.62 18.1 18.1 0 017.75-18.26zm26.38 26.42c-3.88 2.58-9 3.21-15.14.68-5.44-2.23-9.5-1.5-12.5.88-.29.24-.57.49-.84.76 1.51 3.67 9.27 12.26 16.59 10.94a14.49 14.49 0 0011.89-13.26zm-.37-4.37a14.47 14.47 0 00-11.75-10.92 1.83 1.83 0 01-1.49-1.47l-2.08-11.6-7.13 1.28L-14 207a1.81 1.81 0 01-.88 1.89 14.51 14.51 0 00-7.29 11.6c3.88-2.58 9-3.21 15.14-.68 5.44 2.22 9.5 1.5 12.5-.88a10.17 10.17 0 00.92-.88zm22.42-28.94a1.81 1.81 0 11.72 3.55h-.08l-10.69 1.94a1.81 1.81 0 01-.64-3.57zm1.28 7.13a1.81 1.81 0 01.72 3.55h-.08L20 201.73a1.81 1.81 0 11-.72-3.55h.08zm1.28 7.13a1.81 1.81 0 01.73 3.55H32l-10.69 1.92a1.81 1.81 0 11-.72-3.54h.08zm-18.85-7.65l-3.71.67-4.69 6.74a1.81 1.81 0 01-3-2.07l5.12-7.36a1.83 1.83 0 011.19-.7l4.45-.8a1.81 1.81 0 01.64 3.56z"/>
  <path fill="#dad6e7" d="M700.8 99.15l19.2 13.34a1.81 1.81 0 01-2 3l-.06-.05-19.19-13.34a25.32 25.32 0 112.07-3zm-17.95 8.43A21.72 21.72 0 10657.62 90a21.71 21.71 0 0025.23 17.54zM670.1 87.8a9 9 0 012.28-7.8 9 9 0 01-4.84-6.49l-.32-1.78a1.81 1.81 0 011.46-2.1l14.26-2.56a1.81 1.81 0 012.1 1.46l.32 1.78a9 9 0 01-2.28 7.77 9.05 9.05 0 014 12.16 9.19 9.19 0 01-1.46 2.1 9 9 0 014.84 6.49l.32 1.78a1.81 1.81 0 01-1.46 2.1l-14.25 2.56a1.82 1.82 0 01-2.11-1.46l-.32-1.78a9 9 0 012.36-7.74 9 9 0 01-4.9-6.49zm1-14.9a5.44 5.44 0 1010.7-1.9zm5.12 28.51l10.7-1.91a5.43 5.43 0 10-10.69 1.92zm7.51-17.9a5.44 5.44 0 00-10.09 1.81zm-9.45 5.38a5.44 5.44 0 0010.09-1.81z"/>
  <path fill="#dad6e7" fill-rule="evenodd" d="M536.74 123.3l5.94 4.13-7.75 11.15-5.93-4.13zm-11.31 13.08l8.92 6.2a1.8 1.8 0 002.52-.45l9.82-14.13a1.81 1.81 0 00-.45-2.52l-8.92-6.2a1.81 1.81 0 00-2.52.45l-9.8 14.14a1.8 1.8 0 00.45 2.51zM560 89.85l6 4.15-7.76 11.15-6-4.14zm-11.31 13.09l8.92 6.2a1.81 1.81 0 002.52-.45L570 94.56a1.81 1.81 0 00-.5-2.56l-8.92-6.2a1.82 1.82 0 00-2.52.45l-9.82 14.12a1.81 1.81 0 00.45 2.52z"/>
  <path fill="#dad6e7" fill-rule="evenodd" d="M554.64 107.07a1.81 1.81 0 00-3-2.06l-2.06 3a1.81 1.81 0 102.95 2.09zM545.33 120.45a1.81 1.81 0 00-3-2.06l-2.07 3a1.81 1.81 0 102.93 2.12z"/>
  <path fill="#dad6e7" fill-rule="evenodd" d="M560.16 119.74l-3.1 4.46-22.3-15.51a1.81 1.81 0 00-2.06 3l23.78 16.54a1.8 1.8 0 002.52-.46l5.17-7.43a1.81 1.81 0 00-.45-2.52l-23.79-16.54a1.81 1.81 0 10-2.06 3z"/>
  <path fill="#dad6e7" fill-rule="evenodd" d="M566 124.9l-4.12-2.9a1.81 1.81 0 00-2.07 3l4.11 2.86a3.62 3.62 0 102.07-3zM534 97.12l3 2.07-7.23 10.41-3-2.07zm-10.8 12.35l5.94 4.14a1.83 1.83 0 002.53-.46L541 99.77a1.82 1.82 0 00-.46-2.52l-5.94-4.13a1.82 1.82 0 00-2.53.45L522.74 107a1.81 1.81 0 00.46 2.47z"/>
  <path fill="#dad6e7" d="M123.26 215a6.31 6.31 0 004.42-3.37c.67-1.07 1-1.5 1.84-1.66s1.32.14 2.32.91a6.08 6.08 0 008.59-.11 5.87 5.87 0 001.14-1.65c.67-1.05 1-1.49 1.83-1.64s1.31.14 2.3.9A6.32 6.32 0 00151 210a6.4 6.4 0 004.44-3.39c.67-1.06 1-1.5 1.85-1.65s1.3.14 2.3.9a6.24 6.24 0 005.32 1.64 1.93 1.93 0 00-.64-3.8c-.86.16-1.3-.15-2.3-.9a7.11 7.11 0 00-3.46-1.68l1.16-11.69a1.94 1.94 0 00-1.46-2.06l-7-1.71-2.21-12.41a1.93 1.93 0 00-2.23-1.56l-3.79.68-1-5.68a1.92 1.92 0 00-2.23-1.55l-7.58 1.36a1.92 1.92 0 00-1.55 2.23l1 5.68-3.79.68a1.93 1.93 0 00-1.55 2.24l2.23 12.44-5.93 4a1.93 1.93 0 00-.65 2.44l5.18 10.54a7.35 7.35 0 00-2.67 2.78c-.67 1.06-1 1.5-1.84 1.66a1.92 1.92 0 00.63 3.79zm31.24-13a7.66 7.66 0 00-2.3 2.57c-.67 1.06-1 1.49-1.84 1.65s-1.31-.15-2.3-.91a7.35 7.35 0 00-3.39-1.66l-2.93-16.33 13.9 3.41zm-19.79-32l3.78-.68.68 3.78-3.78.68zm-4.32 8.59l15.14-2.72 1.6 8.87-7.35-1.8a1.87 1.87 0 00-1.54.27l-6.24 4.2zM138 188l2.94 16.34a7.37 7.37 0 00-2.57 2.72c-.66 1.06-1 1.5-1.84 1.65s-1.31-.14-2.32-.91a7.8 7.8 0 00-3.07-1.6l-5-10.17z"/>
  <path fill="#dad6e7" fill-rule="evenodd" d="M798.35 49a1.81 1.81 0 01-.72-3.55h.08L812 42.91a1.81 1.81 0 01.64 3.57l1.86 10.39a18.12 18.12 0 11-14.25 2.56zm26.38 26.44c-3.87 2.59-9 3.21-15.14.69-5.43-2.23-9.5-1.5-12.5.88a9.8 9.8 0 00-.84.75c1.51 3.67 9.28 12.26 16.59 11a14.48 14.48 0 0011.89-13.28zm-.36-4.37a14.53 14.53 0 00-11.75-10.92 1.79 1.79 0 01-1.49-1.47L809 47.12l-7.13 1.28L804 60a1.82 1.82 0 01-.89 1.89 14.5 14.5 0 00-7.28 11.6c3.87-2.58 9-3.21 15.14-.68 5.43 2.23 9.5 1.5 12.49-.88a10.17 10.17 0 00.91-.82zm22.42-28.93a1.81 1.81 0 01.64 3.56l-10.7 1.92a1.81 1.81 0 01-.72-3.55h.08zm1.28 7.13a1.81 1.81 0 01.64 3.56L838 54.79a1.81 1.81 0 11-.72-3.55h.07zm1.28 7.13A1.81 1.81 0 01850 60l-10.7 1.92a1.81 1.81 0 11-.72-3.55h.08zm-18.85-7.62l-3.72.67-4.69 6.75a1.81 1.81 0 01-3-2l5.11-7.36a1.83 1.83 0 011.2-.84l4.45-.8a1.81 1.81 0 11.73 3.55h-.08zM1599.87 777.35a1.81 1.81 0 011.47-2.1l7.12-1.28a1.8 1.8 0 012.1 1.46l7.53 41.88a1.79 1.79 0 010 .83l-2.28 7.77a1.82 1.82 0 01-3.19.57l-4.84-6.49a1.75 1.75 0 01-.34-.76zm13.44 44.06l1.14-3.89-.4-2.25-3.57.64.41 2.26zm.1-9.7l-4.8-26.73-3.57.64 4.8 26.73zm-9-29.66l3.57-.64-.65-3.56-3.56.64zm-20.88-3.6l3.56-.64a3.61 3.61 0 014.2 2.91l8.16 45.43a3.63 3.63 0 01-2.93 4.21l-33.85 6.08a3.62 3.62 0 01-4.21-2.91l-8.16-45.43a3.62 3.62 0 012.91-4.21l3.56-.64-.16-.89a3.61 3.61 0 012.91-4.2l4.14-.75a8.58 8.58 0 01.48-1.18 6.34 6.34 0 018.51-2.82 6.45 6.45 0 011.47 1 7.76 7.76 0 01.86 1l4.14-.74a3.61 3.61 0 014.2 2.92zm-29.65 9l8.15 45.44 33.86-6.08-8.16-45.44-3.56.64.16.89a3.62 3.62 0 01-2.92 4.2l-19.61 3.52a3.61 3.61 0 01-4.2-2.92l-.16-.89zm26.88-3.91l-1-5.35-5.34 1a1.8 1.8 0 01-2-1 3.66 3.66 0 00-.8-1 2.7 2.7 0 00-4.27.77 3.5 3.5 0 00-.39 1.25 1.8 1.8 0 01-1.48 1.66l-5.35 1 1 5.35zm3.7 10.37a1.81 1.81 0 01.64 3.57l-11.58 2.08a1.81 1.81 0 01-.64-3.57zm1.92 10.69a1.81 1.81 0 01.64 3.57l-11.57 2.08a1.81 1.81 0 01-.64-3.57zm-23.73-6.23l.62.43 1.89-2.72a1.81 1.81 0 113 2.06l-2.92 4.2a1.8 1.8 0 01-2.52.46l-2.1-1.46a1.81 1.81 0 112-3h.05zm1.92 10.69l.62.43 1.89-2.72a1.81 1.81 0 013 2v.05l-2.92 4.2a1.81 1.81 0 01-2.52.45l-2.1-1.46a1.81 1.81 0 012-3zm23.73 6.24a1.81 1.81 0 11.64 3.56l-11.57 2.08a1.81 1.81 0 01-.64-3.56zm-21.81 4.45l.62.43 1.89-2.72a1.81 1.81 0 113 2.07l-2.92 4.21a1.81 1.81 0 01-2.52.45l-2.1-1.47a1.81 1.81 0 012.07-3z"/>
  <path fill="#dad6e7" d="M1717.74 768.5l19.61-3.52a1.8 1.8 0 012.1 1.46l2.4 13.37a1.82 1.82 0 01-1.46 2.1l-19.61 3.52 1.93 10.73a38 38 0 0130.84 9.87 1.81 1.81 0 01-2.47 2.65 34.39 34.39 0 00-27.73-8.95l1.27 7.08a1.81 1.81 0 11-3.55.67l-1.27-7.08a34.38 34.38 0 00-22.88 18 1.81 1.81 0 01-3.24-1.63 38 38 0 0125.48-20l-5.25-29.23a2.72 2.72 0 113.73-.9c-.05.09-.11.17-.17.26zm20.26 10.16l-1.76-9.8-17.82 3.2 1.76 9.8zm-32.23 40.74a1.81 1.81 0 111.46-2.1 1.81 1.81 0 01-1.5 2.1zm14.65 4.73a3.62 3.62 0 112.92-4.21 3.62 3.62 0 01-2.92 4.21zm-6.54-10.78a2.72 2.72 0 112.19-3.16 2.71 2.71 0 01-2.19 3.16z"/>
  <path fill="#dad6e7" fill-rule="evenodd" d="M1844.36 779.61l5.94 4.13-7.75 11.15-5.94-4.14zm-11.31 13.08l8.92 6.2a1.81 1.81 0 002.52-.45l9.82-14.12a1.81 1.81 0 00-.45-2.52l-8.92-6.2a1.81 1.81 0 00-2.52.45l-9.82 14.12a1.81 1.81 0 00.45 2.52zM1867.62 746.16l6 4.14-7.76 11.15-6-4.14zm-11.31 13.09l8.92 6.2a1.8 1.8 0 002.52-.46l9.82-14.12a1.81 1.81 0 00-.45-2.52l-8.92-6.2a1.81 1.81 0 00-2.52.45l-9.82 14.13a1.81 1.81 0 00.45 2.52z"/>
  <path fill="#dad6e7" fill-rule="evenodd" d="M1862.26 763.38a1.81 1.81 0 10-3-2.06l-2.06 3a1.81 1.81 0 003 2.07zM1853 776.76a1.81 1.81 0 00-3-2.06l-2.07 3a1.81 1.81 0 002.95 2.09z"/>
  <path fill="#dad6e7" fill-rule="evenodd" d="M1867.78 776.05l-3.1 4.46-22.3-15.51a1.81 1.81 0 10-2.06 3l23.78 16.54a1.81 1.81 0 002.52-.45l5.17-7.43a1.81 1.81 0 00-.45-2.52l-23.79-16.54a1.81 1.81 0 10-2.06 3z"/>
  <path fill="#dad6e7" fill-rule="evenodd" d="M1873.61 781.2l-4.12-2.86a1.81 1.81 0 00-2.06 3l4.11 2.86a3.62 3.62 0 102.07-3zM1841.61 753.43l3 2.07-7.23 10.41-3-2.07zm-10.79 12.35l5.94 4.13a1.8 1.8 0 002.52-.45l9.3-13.38a1.8 1.8 0 00-.45-2.52l-5.94-4.13a1.82 1.82 0 00-2.53.45l-9.3 13.38a1.81 1.81 0 00.46 2.52z"/>
  <path fill="#dad6e7" d="M1905.69 109.61a6.28 6.28 0 004.42-3.38c.67-1.06 1-1.5 1.85-1.65s1.31.14 2.31.91a6.09 6.09 0 009.74-1.76c.67-1.06 1-1.49 1.83-1.64s1.3.14 2.3.9a6.29 6.29 0 005.31 1.64 6.39 6.39 0 004.45-3.39c.67-1.06 1-1.5 1.84-1.65s1.31.14 2.3.9a6.27 6.27 0 005.32 1.64 1.93 1.93 0 00-.63-3.8c-.87.16-1.31-.15-2.3-.91a7.22 7.22 0 00-3.47-1.67l1.16-11.69a1.94 1.94 0 00-1.46-2.06l-7-1.71-2.24-12.44a1.93 1.93 0 00-2.23-1.56l-3.79.68-1-5.68a1.92 1.92 0 00-2.23-1.55l-7.58 1.36a1.92 1.92 0 00-1.55 2.23l1 5.68-3.79.68a1.92 1.92 0 00-1.55 2.23l2.24 12.44-5.94 4a1.93 1.93 0 00-.65 2.44l5.18 10.55a7.39 7.39 0 00-2.67 2.77c-.66 1.07-1 1.5-1.84 1.66a1.93 1.93 0 00.62 3.8h.06zm31.24-13a7.88 7.88 0 00-2.3 2.57c-.67 1-1 1.49-1.83 1.65s-1.31-.15-2.3-.91a7.35 7.35 0 00-3.39-1.66l-2.93-16.34 13.9 3.42zm-19.79-32.06l3.79-.68.68 3.78-3.79.68zm-4.32 8.59l15.18-2.71 1.59 8.87-7.35-1.8a1.8 1.8 0 00-.8 0 2 2 0 00-.73.3l-6.29 4.2zm7.57 9.46l2.93 16.4a7.26 7.26 0 00-2.56 2.72c-.67 1.06-1 1.5-1.85 1.65s-1.31-.15-2.31-.91a7.67 7.67 0 00-3.07-1.6l-5-10.17zM1516.66 723.53l19.19 13.34a1.81 1.81 0 01-2.07 3l-19.18-13.34a25.36 25.36 0 112.07-3zm-18 8.44a21.73 21.73 0 10-25.22-17.55 21.72 21.72 0 0025.27 17.58zM1486 712.18a9 9 0 012.28-7.76 9.07 9.07 0 01-4.84-6.49l-.32-1.78a1.8 1.8 0 011.46-2.1l14.26-2.57a1.82 1.82 0 012.1 1.47l.32 1.78a9 9 0 01-2.28 7.77 9.07 9.07 0 014 12.16 9.23 9.23 0 01-1.46 2.09 9.07 9.07 0 014.84 6.49l.32 1.78a1.8 1.8 0 01-1.46 2.1l-14.26 2.56a1.8 1.8 0 01-2.1-1.46l-.32-1.78a9.08 9.08 0 012.28-7.77 9 9 0 01-4.84-6.49zm1-14.9a5.43 5.43 0 1010.72-1.79v-.13zm5.12 28.52l10.7-1.92a5.43 5.43 0 00-10.72 1.79.59.59 0 01-.02.13zm7.51-17.91a5.43 5.43 0 00-10.08 1.81zm-9.44 5.38a5.43 5.43 0 0010.08-1.81zM1636.18 718.31l-2.69-23.67-.91.7c-.86.66-1.7 1.28-2.52 1.87-6.82 4.91-10.74 6.82-12.88 4.28-2-2.32 0-5.42 4.8-10.38.87-.9 1.82-1.84 2.84-2.82 1.65-1.57 3.43-3.18 5.26-4.77l.58-.5-.28-1.69c-.38-2.39-.7-4.72-1-6.91-1-9-.73-13.62 2.64-14.23s5.22 3.67 7.42 12.42c.53 2.15 1 4.44 1.51 6.81.12.6.23 1.15.33 1.68l.72.27c2.27.86 4.49 1.74 6.59 2.65 1.3.56 2.52 1.11 3.64 1.65 6.21 3 9.15 5.21 8.11 8.07-1.12 3.12-5.46 2.7-13.56.46-1-.26-2-.56-3-.88l-1.09-.33 5.72 23.13 22.39-4a1.81 1.81 0 01.64 3.56l-57 10.24a1.81 1.81 0 01-.64-3.56zm3.57-.64l5.12-.92-6.21-25.11-.78-.26-.23-.08-.18.15-.64.52zm-2.88-30.75a1.81 1.81 0 10-2.1-1.47 1.81 1.81 0 002.1 1.47zm.51-7.15c-.44-2.19-.91-4.31-1.41-6.29a51.65 51.65 0 00-2.38-7.55 12.55 12.55 0 00-.76-1.51 10.67 10.67 0 00-.19 1.68 50.82 50.82 0 00.4 7.9c.22 2 .51 4.18.86 6.39a5.47 5.47 0 013.48-.63zm3.4 8.77c1.37.46 2.74.9 4.09 1.31 1 .31 2 .6 2.93.85a43.71 43.71 0 007.17 1.5 10.39 10.39 0 001.37.06c-.15-.13-.32-.27-.52-.42a32 32 0 00-5.11-2.92c-1.07-.52-2.24-1-3.5-1.59-1.67-.72-3.43-1.43-5.23-2.12a5.47 5.47 0 01-1.2 3.33zm-9.3-1.44c-1.45 1.27-2.84 2.55-4.16 3.81-1 .94-1.9 1.85-2.73 2.7a32.63 32.63 0 00-3.77 4.52c-.14.21-.25.4-.35.58a11 11 0 001.27-.53 45.24 45.24 0 006.2-3.91c.79-.57 1.61-1.18 2.45-1.82 1.12-.85 2.25-1.74 3.38-2.65a5.45 5.45 0 01-2.29-2.7zM1888.44 642.49l1.75-2.52a1.81 1.81 0 013 2.06l-4.38 6.31a1.81 1.81 0 01-2.52.45l-6.31-4.38a1.81 1.81 0 012.07-3l2.86 2a25.35 25.35 0 0139.76-22.85 1.81 1.81 0 11-2.07 3 21.73 21.73 0 00-34.13 19zm43.4-2.25l-1.75 2.52a1.81 1.81 0 11-3-2v-.06l4.38-6.3a1.81 1.81 0 012.52-.46l6.31 4.39a1.81 1.81 0 11-2 3l-2.85-2a25.34 25.34 0 01-39.74 22.86 1.81 1.81 0 012.07-3 21.72 21.72 0 0034.1-19zm-13.59-4.93a1.8 1.8 0 012.1 1.46 1.77 1.77 0 01-.11 1l-7.82 18a1.81 1.81 0 01-3.44-.4l-1.6-8.91-5.34 1a1.82 1.82 0 01-2.11-1.46 1.78 1.78 0 01.09-1l7.49-19.74a1.81 1.81 0 013.48.32l1.92 10.69zm-2.68 4.16l-3.8.68a1.8 1.8 0 01-2.1-1.46l-1.09-6-4 10.64 4-.72a1.82 1.82 0 012.1 1.47l.86 4.8zM1807.68 681.21a1.81 1.81 0 01-.47 2.51 1.84 1.84 0 01-.71.29l-57 10.24a1.81 1.81 0 01-2.1-1.46 1.72 1.72 0 010-.75l4.16-16.95-4.42-24.57a3.63 3.63 0 012.93-4.2l39.2-7a3.62 3.62 0 014.2 2.92l4.42 24.57zM1794.07 666l-4.16-23.17-39.2 7 4.16 23.17zm-4.74 17.4l13.79-2.47-7.78-11.48-40.45 7.27-3.31 13.47 13.8-2.48 1-7.21a1.83 1.83 0 011.48-1.52l16-2.88a1.81 1.81 0 011.91.91zm-19.51-1.09l-.69 4.72 16.44-2.95-2.28-4.19z"/>
  <path fill="#dad6e7" fill-rule="evenodd" d="M1352.6 747.68l6 4.14-7.81 11.18-5.94-4.14zm-11.31 13.09l8.92 6.2a1.81 1.81 0 002.52-.45l9.82-14.13a1.81 1.81 0 00-.45-2.52l-8.92-6.2a1.81 1.81 0 00-2.52.46l-9.82 14.12a1.81 1.81 0 00.45 2.52zM1375.86 714.23l5.94 4.14-7.75 11.15-6-4.14zm-11.31 13.09l8.92 6.2a1.81 1.81 0 002.52-.45l9.82-14.12a1.81 1.81 0 00-.45-2.52l-8.92-6.2a1.81 1.81 0 00-2.52.45l-9.82 14.12a1.81 1.81 0 00.45 2.52z"/>
  <path fill="#dad6e7" fill-rule="evenodd" d="M1370.5 731.46a1.81 1.81 0 10-3-2.07l-2.07 3a1.81 1.81 0 103 2.07zM1361.19 744.84a1.81 1.81 0 10-3-2.07l-2.07 3a1.81 1.81 0 103 2.07z"/>
  <path fill="#dad6e7" fill-rule="evenodd" d="M1376 744.12l-3.1 4.46-22.3-15.5a1.81 1.81 0 10-2.06 3l23.78 16.54a1.81 1.81 0 002.52-.45l5.17-7.43a1.82 1.82 0 00-.45-2.53l-23.79-16.54a1.81 1.81 0 00-2.07 3z"/>
  <path fill="#dad6e7" fill-rule="evenodd" d="M1381.85 749.28l-4.11-2.86a1.81 1.81 0 00-2.07 3l4.11 2.86a3.62 3.62 0 103.92-3.3 3.57 3.57 0 00-1.85.3zM1349.85 721.51l3 2.07-7.24 10.4-3-2.07zm-10.79 12.34L1345 738a1.81 1.81 0 002.52-.45l9.3-13.38a1.81 1.81 0 00-.45-2.52l-5.95-4.14a1.81 1.81 0 00-2.52.45l-9.3 13.38a1.81 1.81 0 00.46 2.52z"/>
  <path fill="#dad6e7" d="M1226 739.57l19.6-3.52a1.81 1.81 0 012.1 1.46l2.4 13.36a1.8 1.8 0 01-1.46 2.1L1229 756.5l1.93 10.73a38 38 0 0130.83 9.87 1.81 1.81 0 11-2.46 2.65 34.35 34.35 0 00-27.73-9l1.27 7.08a1.81 1.81 0 01-3.56.64l-1.28-7.08a34.42 34.42 0 00-22.88 18 1.81 1.81 0 01-3.23-1.64 38 38 0 0125.47-20l-5.25-29.24a2.71 2.71 0 113.74-.88c-.06.08-.11.17-.17.24zm20.22 10.16l-1.76-9.8-17.82 3.2 1.76 9.8zM1214 790.47a1.81 1.81 0 111.46-2.1 1.8 1.8 0 01-1.46 2.1zm14.65 4.73a3.62 3.62 0 112.92-4.2 3.62 3.62 0 01-2.92 4.2zm-6.54-10.78a2.72 2.72 0 112.19-3.15 2.71 2.71 0 01-2.19 3.15zM6.4 574l19.6-3.57a1.82 1.82 0 012.1 1.47l2.4 13.36a1.82 1.82 0 01-1.46 2.1l-19.6 3.53 1.93 10.73a38 38 0 0130.84 9.87 1.81 1.81 0 11-2.41 2.7v-.05a34.37 34.37 0 00-27.8-8.95l1.28 7.08a1.81 1.81 0 01-3.56.64l-1.28-7.08a34.42 34.42 0 00-22.88 18 1.81 1.81 0 01-2.43.8 1.81 1.81 0 01-.8-2.44 38 38 0 0125.47-20L2.56 573a2.72 2.72 0 113.74-.89l-.18.25zm20.23 10.16l-1.76-9.8L7 577.52l1.76 9.8zm-32.23 40.7a1.81 1.81 0 01-2.1-1.46 1.81 1.81 0 011.46-2.1 1.81 1.81 0 012.1 1.47 1.8 1.8 0 01-1.46 2.09zm14.65 4.73a3.62 3.62 0 112.95-4.21 3.62 3.62 0 01-2.92 4.21zM2.5 618.81a2.72 2.72 0 112.2-3.16 2.73 2.73 0 01-2.19 3.16zM198.44 811.72l19.18 13.34a1.8 1.8 0 01.51 2.51 1.82 1.82 0 01-2.51.51l-.07-.05-19.18-13.34a25.33 25.33 0 112.07-3zm-17.95 8.43a21.73 21.73 0 10-25.23-17.54 21.72 21.72 0 0025.22 17.54zm-12.75-19.78a9 9 0 012.26-7.77 9 9 0 01-4.84-6.49l-.32-1.78a1.81 1.81 0 011.46-2.1l14.25-2.56a1.8 1.8 0 012.1 1.46l.32 1.78a9 9 0 01-2.28 7.77 9.05 9.05 0 014 12.16 9.19 9.19 0 01-1.46 2.1 9.06 9.06 0 014.85 6.49l.32 1.78a1.83 1.83 0 01-1.47 2.1l-14.25 2.56a1.81 1.81 0 01-2.1-1.46l-.32-1.79a9 9 0 012.28-7.76 9 9 0 01-4.8-6.49zm1-14.9a5.43 5.43 0 0010.69-1.92zm5.12 28.53l10.69-1.92a5.43 5.43 0 10-10.69 1.92zm7.51-17.9a5.44 5.44 0 00-10.09 1.81zm-9.45 5.37a5.44 5.44 0 0010.08-1.83zM466.78 24.15L486 37.49a1.81 1.81 0 01-2.06 3l-19.23-13.36a25.36 25.36 0 112.07-3zm-17.95 8.44A21.73 21.73 0 10423.6 15a21.73 21.73 0 0025.23 17.55zM436.08 12.8a9 9 0 012.28-7.8 9.08 9.08 0 01-4.85-6.49l-.32-1.78a1.81 1.81 0 011.47-2.1l14.25-2.53A1.8 1.8 0 01451-6.44l.32 1.78a9 9 0 01-2.28 7.77 9.05 9.05 0 014 12.16 8.69 8.69 0 01-1.46 2.1 9.06 9.06 0 014.85 6.49l.32 1.78a1.82 1.82 0 01-1.46 2.1l-14.23 2.56a1.8 1.8 0 01-2.1-1.46l-.32-1.78a9 9 0 012.28-7.77 9 9 0 01-4.84-6.49zm1-14.9a5.42 5.42 0 006.3 4.39A5.43 5.43 0 00447.77-4zm5.12 28.52l10.69-1.92a5.43 5.43 0 10-10.69 1.92zm7.51-17.9a5.44 5.44 0 00-10.09 1.81zm-9.45 5.38a5.44 5.44 0 0010.09-1.81zM1081 812.65l-2.65-23.65-.91.7c-.86.66-1.7 1.29-2.52 1.88-6.82 4.91-10.74 6.81-12.88 4.28-2-2.32 0-5.42 4.8-10.39.87-.9 1.82-1.84 2.84-2.81 1.65-1.58 3.43-3.18 5.26-4.77.2-.18.38-.34.58-.5l-.28-1.7c-.38-2.38-.71-4.71-1-6.91-1-9-.73-13.61 2.64-14.22s5.22 3.66 7.42 12.41c.53 2.15 1 4.45 1.51 6.81.12.6.23 1.15.33 1.69l.72.27c2.27.85 4.49 1.74 6.59 2.64 1.3.56 2.52 1.11 3.64 1.66 6.2 3 9.15 5.2 8.11 8.06-1.12 3.12-5.46 2.7-13.56.47-1-.27-2-.56-3-.88l-1.09-.34 5.72 23.14 22.39-4a1.81 1.81 0 01.64 3.57l-57 10.24a1.81 1.81 0 01-.64-3.56zm3.57-.64l5.11-.92-6.2-25.11-.77-.27-.23-.08-.19.16-.63.52zm-2.88-30.76a1.81 1.81 0 10-2.1-1.46 1.8 1.8 0 002.1 1.46zm.51-7.15c-.44-2.19-.92-4.31-1.41-6.28a52.49 52.49 0 00-2.38-7.55 11.85 11.85 0 00-.76-1.51 11.85 11.85 0 00-.2 1.68 53.48 53.48 0 00.4 7.9c.23 2 .52 4.18.87 6.38a5.53 5.53 0 013.48-.62zm3.4 8.77c1.37.47 2.74.91 4.09 1.32 1 .31 2 .59 2.93.85a45.89 45.89 0 007.17 1.5 10.39 10.39 0 001.37.06 6.29 6.29 0 00-.52-.42 32.78 32.78 0 00-5.11-2.93c-1.07-.51-2.24-1-3.5-1.58-1.68-.72-3.43-1.43-5.23-2.13a5.43 5.43 0 01-1.2 3.33zm-9.3-1.44c-1.45 1.28-2.85 2.56-4.16 3.81q-1.48 1.43-2.73 2.7a33.22 33.22 0 00-3.77 4.52c-.14.21-.25.4-.35.58a11 11 0 001.27-.53 45.86 45.86 0 006.2-3.91c.79-.57 1.61-1.18 2.45-1.82 1.12-.85 2.25-1.74 3.37-2.65a5.43 5.43 0 01-2.24-2.7zM302.08 791.73l1.59-2.28a1.91 1.91 0 012.37-.7 1.8 1.8 0 01.82 2.41 1.38 1.38 0 01-.14.24l-4.36 6.27a1.85 1.85 0 01-2.58.46l-6.15-4.27a1.91 1.91 0 01-.7-2.37 1.82 1.82 0 012.44-.82l.22.13 2.77 1.93a.06.06 0 00.07 0 25.35 25.35 0 0139.67-22.81 1.89 1.89 0 01.67 2.37 1.8 1.8 0 01-2.42.8l-.22-.13A21.72 21.72 0 00302 791.7a.05.05 0 00.05 0zm43.23-2l-1.58 2.27a1.91 1.91 0 01-2.38.7 1.8 1.8 0 01-.82-2.41c0-.08.09-.16.14-.24l4.36-6.27a1.86 1.86 0 012.59-.46l6.15 4.27a1.92 1.92 0 01.7 2.38 1.82 1.82 0 01-2.44.81l-.22-.13-2.81-1.92a.05.05 0 00-.07 0 25.35 25.35 0 01-39.65 22.83 1.91 1.91 0 01-.68-2.37 1.82 1.82 0 012.44-.8l.22.13a21.73 21.73 0 0034.11-18.81h-.06zm-13.5-5.06a1.81 1.81 0 012.1 1.46 1.86 1.86 0 01-.12 1l-7.81 18a1.82 1.82 0 01-3.45-.41l-1.59-8.86h-.06l-5.29.95a1.8 1.8 0 01-2.1-1.45 1.78 1.78 0 01.09-1l7.49-19.74a1.81 1.81 0 013.47.32l1.91 10.64a.06.06 0 00.06 0zm-2.81 4.19l-3.65.65a1.86 1.86 0 01-2.16-1.5l-1-5.81s0-.05-.06 0l-3.94 10.39v.06L322 792a1.85 1.85 0 012.15 1.5l.83 4.6.05.05a.1.1 0 00.05 0l4-9.13a.06.06 0 000-.07zM145.17-3.7a1.81 1.81 0 01-.48 2.52 1.78 1.78 0 01-.7.28L87 9.35a1.82 1.82 0 01-2.1-1.46 1.77 1.77 0 010-.76l4.15-16.94-4.42-24.57a3.62 3.62 0 012.93-4.2l39.2-7A3.62 3.62 0 01131-42.7l4.41 24.57zm-13.61-15.2l-4.16-23.16L88.2-35l4.16 23.16zm-4.74 17.41L140.61-4l-7.78-11.48-40.46 7.3-3.3 13.47 13.8-2.48 1-7.21a1.8 1.8 0 011.47-1.52l16-2.88a1.81 1.81 0 011.91.91zM607 4.18l13.79-2.47L613-9.77 572.53-2.5l-3.3 13.5L583 8.49l1-7.21a1.83 1.83 0 011.48-1.52l16-2.88a1.8 1.8 0 011.91.92zM107.31-2.59l-.69 4.73 16.44-3L120.78-5z"/>
  <path fill="#dad6e7" fill-rule="evenodd" d="M318.92 58.25l5.94 4.13-7.75 11.15-5.95-4.14zm-11.31 13.08l8.92 6.2a1.81 1.81 0 002.52-.45L328.87 63a1.81 1.81 0 00-.45-2.52l-8.92-6.2a1.81 1.81 0 00-2.52.45l-9.82 14.12a1.81 1.81 0 00.45 2.48zM342.18 24.8l5.94 4.13-7.75 11.15-5.94-4.08zm-11.31 13.09l8.92 6.2a1.81 1.81 0 002.52-.45l9.82-14.13a1.81 1.81 0 00-.45-2.52l-8.92-6.2a1.81 1.81 0 00-2.52.46l-9.82 14.12a1.81 1.81 0 00.45 2.52z"/>
  <path fill="#dad6e7" fill-rule="evenodd" d="M336.82 42a1.81 1.81 0 00-3-2.07l-2.06 3a1.81 1.81 0 003 2.07zM327.51 55.4a1.81 1.81 0 10-3-2.07l-2.07 3a1.81 1.81 0 002.94 2.12v-.05z"/>
  <path fill="#dad6e7" fill-rule="evenodd" d="M342.34 54.69l-3.1 4.46-22.3-15.51a1.81 1.81 0 00-2.11 2.94h.05l23.78 16.54a1.81 1.81 0 002.52-.45l5.17-7.43a1.81 1.81 0 00-.45-2.52l-23.79-16.51a1.81 1.81 0 10-2.06 3z"/>
  <path fill="#dad6e7" fill-rule="evenodd" d="M348.17 59.84L344.06 57a1.81 1.81 0 00-2.06 3l4.11 2.87a3.62 3.62 0 103.89-3.36 3.68 3.68 0 00-1.85.33zM316.17 32.07l3 2.07-7.27 10.41-3-2.07zm-10.79 12.35l5.94 4.13a1.81 1.81 0 002.52-.45l9.3-13.38a1.81 1.81 0 00-.45-2.52l-5.95-4.13a1.8 1.8 0 00-2.51.45l-9.3 13.38a1.81 1.81 0 00.46 2.52zM74.43 75a1.81 1.81 0 011.47-2.1l7.1-1.29a1.79 1.79 0 012.1 1.46L92.65 115a1.8 1.8 0 01-.05.83l-2.28 7.77a1.81 1.81 0 01-2.25 1.22 1.83 1.83 0 01-.94-.65l-4.84-6.49a1.8 1.8 0 01-.34-.76zm13.44 44.06l1.13-3.9-.41-2.25-3.56.64.41 2.25zm.1-9.7l-4.8-26.74-3.57.65L84.4 110zM79 79.69l3.56-.64-.64-3.56-3.56.64zm-20.92-3.61l3.55-.64a3.62 3.62 0 014.21 2.92L74 123.81a3.63 3.63 0 01-2.92 4.19l-33.85 6.1a3.62 3.62 0 01-4.23-2.92l-8.14-45.44a3.62 3.62 0 012.91-4.21l3.56-.64-.15-.89a3.62 3.62 0 012.92-4.2l4.14-.74a7.22 7.22 0 01.48-1.19 6.35 6.35 0 0110-1.8 8.58 8.58 0 01.86 1l4.14-.74a3.61 3.61 0 014.2 2.91zm-29.65 9l8.15 45.44 33.86-6.08L62.28 79l-3.56.64.16.89A3.62 3.62 0 0156 84.74l-19.6 3.53a3.62 3.62 0 01-4.2-2.93l-.2-.89zm26.88-3.91l-1-5.35-5.34 1a1.82 1.82 0 01-2-1 3.82 3.82 0 00-.79-1 2.73 2.73 0 00-3.84.14 3.09 3.09 0 00-.44.63 3.7 3.7 0 00-.38 1.25 1.81 1.81 0 01-1.42 1.56l-5.35 1 1 5.35zM59 91.55a1.81 1.81 0 01.64 3.57L48.07 97.2a1.81 1.81 0 01-.64-3.56zm1.92 10.69a1.81 1.81 0 01.64 3.57L50 107.89a1.81 1.81 0 11-.72-3.55h.08zM37.2 96l.62.43 1.89-2.72a1.81 1.81 0 013 2.07L39.76 100a1.81 1.81 0 01-2.52.45L35.14 99A1.81 1.81 0 0137 95.9a.91.91 0 01.2.1zm1.92 10.69l.62.43 1.89-2.72a1.81 1.81 0 113 2l-2.92 4.2a1.81 1.81 0 01-2.52.45l-2.1-1.46a1.81 1.81 0 012.06-3zm23.73 6.24a1.81 1.81 0 01.72 3.55h-.08l-11.57 2.08a1.81 1.81 0 01-.64-3.57zM41 117.39l.62.43 1.89-2.72a1.81 1.81 0 113 2.07l-2.92 4.2a1.81 1.81 0 01-2.52.45L39 120.36a1.81 1.81 0 112-3z"/>
  <path fill="#dad6e7" d="M192.3 50.13l19.6-3.52a1.82 1.82 0 012.1 1.46l2.4 13.37a1.81 1.81 0 01-1.46 2.1l-19.6 3.52 1.93 10.74a38 38 0 0130.84 9.87 1.81 1.81 0 01-2.46 2.65 34.37 34.37 0 00-27.74-8.95l1.28 7.08a1.81 1.81 0 01-3.57.64L194.35 82a34.39 34.39 0 00-22.88 18 1.81 1.81 0 01-3.24-1.63 38 38 0 0125.48-20l-5.25-29.17a2.72 2.72 0 113.73-.89 2.2 2.2 0 01-.17.25zm20.22 10.17l-1.76-9.8-17.82 3.2 1.76 9.8zM180.29 101a1.81 1.81 0 111.46-2.1 1.81 1.81 0 01-1.46 2.1zm14.65 4.73a3.62 3.62 0 112.92-4.21 3.63 3.63 0 01-2.92 4.25zM188.4 95a2.71 2.71 0 112.19-3.15A2.7 2.7 0 01188.4 95z"/>
</svg>