<svg width="64" height="64" viewBox="0 0 64 64" fill="none" xmlns="http://www.w3.org/2000/svg">
<g clip-path="url(#clip0)">
<path d="M36.9689 5.66128H37.4689V5.16128V3.09677C37.4689 1.66556 38.6344 0.5 40.0656 0.5H54.5172C55.9484 0.5 57.114 1.66556 57.114 3.09677V15.4838C57.114 16.9151 55.9484 18.0806 54.5172 18.0806H49.8559V16.5161C49.8559 15.1014 48.7062 13.9516 47.2914 13.9516C45.8767 13.9516 44.7269 15.1014 44.7269 16.5161V18.0806H37.4689V13.4193V12.9193H36.9689C34.9679 12.9193 33.3398 11.2913 33.3398 9.29031C33.3398 7.28929 34.9679 5.66128 36.9689 5.66128ZM50.9205 16.5161V17.0161H51.4205H54.5172C55.3635 17.0161 56.0495 16.3284 56.0495 15.4838V3.09677C56.0495 2.25218 55.3635 1.56451 54.5172 1.56451H40.0656C39.2194 1.56451 38.5334 2.25218 38.5334 3.09677V6.7258H36.9689C35.5541 6.7258 34.4044 7.87559 34.4044 9.29031C34.4044 10.705 35.5541 11.8548 36.9689 11.8548H38.5334V16.5161V17.0161H39.0334H43.1624H43.6624V16.5161C43.6624 14.5151 45.2904 12.8871 47.2914 12.8871C49.2924 12.8871 50.9205 14.5151 50.9205 16.5161Z" fill="#FF0080" stroke="#FF0080"/>
<path d="M36.9677 20.6453C34.6905 20.6453 32.8387 22.4972 32.8387 24.7743H28.7096V19.6131H26.6451C25.5065 19.6131 24.5806 18.6871 24.5806 17.5485C24.5806 16.41 25.5065 15.484 26.6451 15.484H28.7096V6.19373H25.9422C14.9466 6.19373 6 15.1403 6 26.1359C6 32.1416 8.66632 37.7674 13.3146 41.5702L17.3548 44.8765V47.675C16.1564 48.1023 15.2903 49.2378 15.2903 50.5818C15.2903 52.0094 16.2658 53.2027 17.5819 53.5588C17.4384 53.9149 17.3548 54.302 17.3548 54.7098C17.3548 56.0744 18.2477 57.2223 19.4751 57.6342C19.9024 61.214 22.9527 64.0001 26.6451 64.0001C30.3375 64.0001 33.3878 61.214 33.8152 57.6342C35.0425 57.2223 35.9354 56.0744 35.9354 54.7098C35.9354 54.302 35.8518 53.9149 35.7083 53.5578C37.0245 53.2006 37.9999 52.0084 37.9999 50.5808C37.9999 49.2368 37.1339 48.1013 35.9354 47.6739V44.8755L39.9757 41.5692C44.6239 37.7674 47.2903 32.1416 47.2903 26.1359V24.7743H41.0967C41.0967 22.4972 39.2449 20.6453 36.9677 20.6453ZM25.9422 8.25824H26.6451V13.4195C24.368 13.4195 22.5161 15.2714 22.5161 17.5485C22.5161 19.8257 24.368 21.6776 26.6451 21.6776V24.7743H22.5161C22.5161 22.4972 20.6642 20.6453 18.3871 20.6453C16.1099 20.6453 14.2581 22.4972 14.2581 24.7743H8.11613C8.81393 15.5501 16.5424 8.25824 25.9422 8.25824ZM14.6214 39.9723C10.6359 36.7114 8.27613 31.9568 8.07896 26.8389H16.3226V24.7743C16.3226 23.6358 17.2485 22.7098 18.3871 22.7098C19.5257 22.7098 20.4516 23.6358 20.4516 24.7743V26.8389H26.6451V30.9679C24.368 30.9679 22.5161 32.8197 22.5161 35.0969C22.5161 37.3741 24.368 39.2259 26.6451 39.2259V47.484H19.4193V43.8979L14.6214 39.9723ZM26.6451 61.9356C24.1533 61.9356 22.0681 60.1591 21.5881 57.8065H31.7022C31.2222 60.1591 29.137 61.9356 26.6451 61.9356ZM32.8387 55.742H20.4516C19.8818 55.742 19.4193 55.2786 19.4193 54.7098C19.4193 54.141 19.8818 53.6775 20.4516 53.6775H32.8387C33.4085 53.6775 33.8709 54.141 33.8709 54.7098C33.8709 55.2786 33.4085 55.742 32.8387 55.742ZM34.9032 51.613H32.8387H20.4516H18.3871C17.8173 51.613 17.3548 51.1495 17.3548 50.5808C17.3548 50.012 17.8173 49.5485 18.3871 49.5485H34.9032C35.473 49.5485 35.9354 50.012 35.9354 50.5808C35.9354 51.1495 35.473 51.613 34.9032 51.613ZM38.6688 39.9723L33.8709 43.8979V47.484H28.7096V37.1614H26.6451C25.5065 37.1614 24.5806 36.2355 24.5806 35.0969C24.5806 33.9583 25.5065 33.0324 26.6451 33.0324H28.7096V26.8389H34.9032V24.7743C34.9032 23.6358 35.8291 22.7098 36.9677 22.7098C38.1063 22.7098 39.0322 23.6358 39.0322 24.7743V26.8389H45.2113C45.0141 31.9568 42.6544 36.7114 38.6688 39.9723Z" fill="#FF0080"/>
</g>
<defs>
<clipPath id="clip0">
<rect width="64" height="64" fill="white"/>
</clipPath>
</defs>
</svg>
