<svg width="30" height="38" viewBox="0 0 30 38" fill="none" xmlns="http://www.w3.org/2000/svg">
<path d="M11.9345 2.52271C13.4739 0.492431 16.5261 0.492431 18.0655 2.52271C18.9055 3.6305 20.2778 4.19892 21.6551 4.00956C24.1793 3.6625 26.3375 5.8207 25.9904 8.34489C25.8011 9.72217 26.3695 11.0945 27.4773 11.9345C29.5076 13.4739 29.5076 16.5261 27.4773 18.0655C26.3695 18.9055 25.8011 20.2778 25.9904 21.6551C26.3375 24.1793 24.1793 26.3375 21.6551 25.9904C20.2778 25.8011 18.9055 26.3695 18.0655 27.4773C16.5261 29.5076 13.4739 29.5076 11.9345 27.4773C11.0945 26.3695 9.72217 25.8011 8.34489 25.9904C5.8207 26.3375 3.6625 24.1793 4.00956 21.6551C4.19892 20.2778 3.6305 18.9055 2.52271 18.0655C0.492431 16.5261 0.492431 13.4739 2.52271 11.9345C3.6305 11.0945 4.19892 9.72217 4.00956 8.34489C3.6625 5.8207 5.8207 3.6625 8.34489 4.00956C9.72217 4.19892 11.0945 3.6305 11.9345 2.52271Z" stroke="#6D659E" stroke-width="2"/>
<path d="M11 15.3529L13.6471 18L19 12" stroke="#6D659E" stroke-width="2" stroke-linecap="round" stroke-linejoin="round"/>
<circle cx="15" cy="15" r="9" stroke="#6D659E" stroke-width="2"/>
<path d="M9 26V35.1315C9 35.9302 9.89014 36.4066 10.5547 35.9635L14.4453 33.3698C14.7812 33.1459 15.2188 33.1459 15.5547 33.3698L19.4453 35.9635C20.1099 36.4066 21 35.9302 21 35.1315V26" stroke="#6D659E" stroke-width="2" stroke-linecap="round"/>
</svg>
