<svg xmlns="http://www.w3.org/2000/svg" x="0" y="0" version="1.1" viewBox="0 0 28.3 28.3" xml:space="preserve">
  <path fill="#76a9ea" d="M27.5 5.6c-.6.3-1.2.5-1.8.6.7-.7 1.2-1.5 1.5-2.4.1-.3-.2-.5-.4-.3-.9.5-1.8.9-2.8 1.2h-.2c-.2 0-.4-.1-.5-.2-1-.9-2.4-1.4-3.8-1.4-.7 0-1.3.1-2 .3-1.8.6-3.2 2.2-3.6 4-.2.7-.2 1.4-.1 2 0 .1 0 .1-.1.2 0 0-.1.1-.2.1-4.1-.5-7.8-2.4-10.4-5.6-.1-.2-.4-.2-.5 0C2.1 5 1.9 6 1.9 7c0 1.6.6 3 1.7 4.1-.5-.1-.9-.3-1.3-.5-.2-.1-.4 0-.4.3 0 2.3 1.3 4.4 3.4 5.3h-.1c-.3 0-.6 0-1-.1-.2 0-.4.2-.3.4.7 2.1 2.4 3.6 4.5 3.9-1.8 1.2-3.8 1.8-5.9 1.8h-.7c-.2 0-.4.1-.4.3-.1.2 0 .4.2.5 2.4 1.4 5.1 2.1 7.9 2.1 2.4 0 4.7-.5 6.8-1.4 1.9-.9 3.6-2.1 5-3.7 1.3-1.5 2.3-3.2 3-5.1.7-1.8 1-3.7 1-5.6 0-.3.1-.6.4-.8.7-.7 1.5-1.5 2.1-2.5.2-.2-.1-.6-.3-.4z"/>
</svg>